<svg width="105" height="105" viewBox="0 0 105 105" fill="none" xmlns="http://www.w3.org/2000/svg">
<path d="M58.4807 21.3319C63.3909 21.7404 67.6444 17.9932 68.042 12.9675C68.4224 7.9415 64.7743 3.57295 59.8639 3.14656C55.0053 2.77361 50.7175 6.52072 50.3544 11.5467C49.9395 16.537 53.5876 20.9412 58.4807 21.3319" fill="black"/>
<path d="M53.3605 24.5912C55.091 23.4954 57.1983 22.77 59.5454 22.9552C62.5609 23.1713 65.0281 24.8536 66.5356 26.9062L75.4105 42.7565L87.5236 50.2727C88.5516 50.9827 89.2026 52.1402 89.0656 53.4058C88.8942 55.3659 86.9925 56.8322 84.8166 56.6622C84.1484 56.6313 83.6002 56.3844 83.0005 56.1374L69.7909 47.9422C69.3797 47.649 69.0542 47.2786 68.7801 46.8927L65.4733 40.9507L61.4813 56.7548L77.0894 73.3614C77.4493 73.8708 77.6891 74.4727 77.8262 75.0746L82.041 95.1229C82.0068 95.5705 82.0753 95.8483 82.041 96.2033C81.8012 99.1975 78.9228 101.358 75.6503 101.142C72.9262 100.941 70.9215 99.1357 70.2877 96.8978L66.3128 78.1151L53.6171 65.6138L50.6874 77.7912C50.5846 78.3622 49.7451 79.566 49.5052 80.0445L37.3237 98.5339C36.1244 100.216 34.0856 101.297 31.7726 101.127C28.4658 100.911 26.0159 98.318 26.29 95.3546C26.3585 94.5212 26.7526 93.6415 27.0952 93.0396L38.403 75.9546L47.8433 38.2956L41.6755 42.7867L38.403 56.1985C37.9575 57.9271 36.2271 59.3316 34.1882 59.1927C31.978 59.0384 30.3674 57.3253 30.5389 55.3342C30.5389 55.1799 30.5732 55.0255 30.6074 54.8403L34.4796 39.206C34.7194 38.5423 35.1135 37.9404 35.696 37.4774L53.3602 24.5902L53.3605 24.5912Z" fill="black"/>
</svg>
