<svg xmlns="http://www.w3.org/2000/svg" xmlns:xlink="http://www.w3.org/1999/xlink" viewBox="0 0 510.44 554.89" xmlns:v="https://vecta.io/nano"><defs><filter id="A"><feGaussianBlur stdDeviation="3.959"/></filter><filter id="B"><feGaussianBlur stdDeviation="10.094"/></filter><linearGradient id="C" gradientUnits="userSpaceOnUse"><stop stop-color="#bedcdc" offset="0"/><stop stop-color="#8e9e9e" stop-opacity=".742" offset=".5"/><stop stop-color="#404f5c" stop-opacity=".839" offset="1"/></linearGradient><radialGradient id="D" cx="380" cy="389.51" r="148.86" gradientTransform="matrix(-.10557 -.9309 .99363 -.11268 45.964 812.42)" xlink:href="#C"/><radialGradient id="E" cx="380" cy="389.51" r="148.86" gradientTransform="matrix(.086859 -.58077 .6221 .093576 261.99 772.78)" xlink:href="#C"/><path id="F" d="M417.44 175.31c-2.408 18.121-17.911 32.125-36.688 32.125-17.823 0-32.724-12.598-36.25-29.375-13.059 2.812-25.653 6.85-37.688 11.969 6.595 16.77.137 36.313-15.938 45.594-14.925 8.617-33.388 5.681-44.938-6.062-8.1 7.531-15.638 15.691-22.469 24.406 14.381 11.169 18.672 31.538 9.313 47.75-8.927 15.462-27.34 22.073-43.656 16.688-3.91 12.02-6.779 24.515-8.469 37.375 18.742 1.825 33.406 17.624 33.406 36.844 0 18.105-13.012 33.161-30.188 36.375 1.278 5.759 2.759 11.429 4.5 17 3.36-.884 6.795-1.295 10.188-1.219 12.508.282 24.573 6.912 31.281 18.531 9.131 15.815 5.264 35.579-8.281 46.906a211.5 211.5 0 0 0 25.156 27.656c6.978-8.453 17.228-13.199 27.781-13.438 6.552-.148 13.195 1.455 19.281 4.969 16.875 9.743 23.171 30.78 14.875 48.062a208.3 208.3 0 0 0 35.844 11.188c3.526-16.777 18.427-29.375 36.25-29.375 18.777 0 34.28 14.004 36.688 32.125 11.22-1.529 22.165-3.925 32.75-7.156-5.538-16.378 1.052-34.933 16.594-43.906 5.533-3.194 11.561-4.784 17.531-4.937 12.004-.31 23.785 5.253 31.094 15.5a211.5 211.5 0 0 0 29.5-27.094c-12.831-11.436-16.335-30.691-7.406-46.156 6.708-11.619 18.774-18.249 31.281-18.531a36.79 36.79 0 0 1 14.875 2.781 208.34 208.34 0 0 0 10.312-33.344c-16.098-4.023-28.031-18.597-28.031-35.938 0-18.442 13.506-33.741 31.156-36.562a208.38 208.38 0 0 0-14.5-53.812c-17.277 8.278-38.293 1.992-48.031-14.875-9.104-15.769-5.266-35.469 8.188-46.812-8.077-8.699-16.877-16.737-26.312-23.969-11.356 13.373-30.989 17.175-46.719 8.094-14.783-8.535-21.462-25.745-17.312-41.5-11.275-3.58-22.96-6.238-34.969-7.875zm-28.562 133.75a75.07 75.07 0 0 1 3.813.094 74.21 74.21 0 0 1 14.75 2.25c1.187.305 2.368.638 3.531 1 2.326.724 4.591 1.559 6.813 2.5 1.111.47 2.2.975 3.281 1.5l1.625.813c.075.038.144.087.219.125a74.25 74.25 0 0 1 2.156 1.156l2.313 1.344c2.042 1.242 4.031 2.573 5.938 4a77.54 77.54 0 0 1 2.125 1.656l1.281 1.031c.567.476 1.104.976 1.656 1.469 1.034.923 2.052 1.864 3.031 2.844.63.631 1.237 1.285 1.844 1.938l.031.031.844.906c.707.787 1.389 1.589 2.063 2.406l.563.688a74.99 74.99 0 0 1 1.656 2.125c.668.895 1.309 1.793 1.938 2.719.878 1.293 1.734 2.619 2.531 3.969.454.769.885 1.558 1.313 2.344 1.144 2.105 2.185 4.247 3.125 6.469.412.973.816 1.943 1.188 2.938.038.101.056.211.094.313.33.895.642 1.808.938 2.719l.125.375c.115.361.203.731.313 1.094l.781 2.688.188.75c.16.64.294 1.291.438 1.938l.5 2.406c.008.042.023.083.031.125.013.072.018.146.031.219l.469 2.813c.009.063.022.124.031.188.029.207.035.418.063.625l.313 2.625c.104 1.096.194 2.204.25 3.313a76.29 76.29 0 0 1 .094 3.813 74.48 74.48 0 0 1-.375 7.563c-.001.01.001.021 0 .031-.126 1.238-.282 2.469-.469 3.688-.002.01.002.021 0 .031-.187 1.219-.411 2.426-.656 3.625-.002.01.002.021 0 .031-.123.599-.264 1.188-.406 1.781l-.437 1.781c-.003.01.003.021 0 .031-.303 1.177-.641 2.347-1 3.5-.003.01.003.022 0 .031-.722 2.316-1.564 4.6-2.5 6.813-.94 2.222-1.981 4.364-3.125 6.469-.004.008.004.023 0 .031a74.27 74.27 0 0 1-3.719 6.094c-.005.007.005.024 0 .031a74.07 74.07 0 0 1-2.062 2.875c-.005.007.005.024 0 .031-.709.947-1.467 1.87-2.219 2.781-.005.006.005.025 0 .031a74.9 74.9 0 0 1-10.062 10.062c-3.669 3.028-7.634 5.712-11.844 8a74.09 74.09 0 0 1-6.5 3.125c-2.222.94-4.487 1.776-6.812 2.5-1.163.362-2.345.695-3.531 1a74.26 74.26 0 0 1-14.75 2.25 75.07 75.07 0 0 1-3.812.094 75.07 75.07 0 0 1-3.812-.094 74.21 74.21 0 0 1-14.75-2.25c-1.187-.305-2.368-.638-3.531-1-2.326-.724-4.591-1.559-6.812-2.5s-4.395-1.981-6.5-3.125c-1.053-.572-2.073-1.192-3.094-1.812s-2.041-1.271-3.031-1.937a70.76 70.76 0 0 1-2.906-2.062 74.57 74.57 0 0 1-5.5-4.531c-.874-.794-1.727-1.634-2.562-2.469-.846-.845-1.664-1.677-2.469-2.562-.005-.006.005-.025 0-.031-.799-.88-1.587-1.77-2.344-2.687s-1.506-1.859-2.219-2.812a73.78 73.78 0 0 1-2.062-2.906c-1.335-1.976-2.575-4.02-3.719-6.125s-2.185-4.247-3.125-6.469c-.004-.009.004-.022 0-.031-.466-1.102-.93-2.215-1.344-3.344-.003-.009.003-.022 0-.031a72.99 72.99 0 0 1-1.156-3.437c-.354-1.138-.668-2.278-.969-3.437l-.062-.25a75.08 75.08 0 0 1-.75-3.219c-.056-.27-.103-.542-.156-.812l-.437-2.281-.187-1.156c-.005-.03.004-.063 0-.094a73.59 73.59 0 0 1-.375-3.062l-.062-.531c-.102-1.054-.161-2.121-.219-3.187-.005-.084-.027-.166-.031-.25a75.08 75.08 0 0 1-.094-3.812 75.07 75.07 0 0 1 .094-3.812c.061-1.253.155-2.507.281-3.75.001-.01-.001-.021 0-.031.126-1.238.283-2.468.469-3.687.002-.01-.002-.021 0-.031.186-1.219.411-2.426.656-3.625.002-.01-.002-.021 0-.031.245-1.199.541-2.386.844-3.562.002-.01-.003-.022 0-.031a73.9 73.9 0 0 1 1-3.5c.003-.009-.003-.022 0-.031.362-1.163.74-2.3 1.156-3.437.312-.852.658-1.694 1-2.531.039-.095.086-.186.125-.281l.5-1.219c.27-.621.557-1.232.844-1.844l.594-1.25a75.04 75.04 0 0 1 1.406-2.719c.004-.008-.004-.023 0-.031a73.58 73.58 0 0 1 1.781-3.094c.625-1.028 1.265-2.036 1.938-3.031.663-.981 1.355-1.928 2.063-2.875.005-.007-.005-.025 0-.031.708-.947 1.467-1.87 2.219-2.781.005-.006-.005-.025 0-.031a74.65 74.65 0 0 1 2.344-2.687c2.399-2.639 4.967-5.104 7.719-7.375 3.669-3.028 7.634-5.712 11.844-8a74.09 74.09 0 0 1 6.5-3.125c2.222-.94 4.487-1.776 6.813-2.5 1.163-.362 2.345-.695 3.531-1a74.26 74.26 0 0 1 14.75-2.25 75.07 75.07 0 0 1 3.813-.094z"/><path id="G" d="M388.88 274.48c-60.099 0-108.88 48.766-108.88 108.86s48.776 108.89 108.88 108.89 108.88-48.766 108.88-108.86v-.038c0-60.09-48.776-108.86-108.88-108.86zm0 24.653c46.575 0 84.374 37.74 84.374 84.241s-37.8 84.203-84.374 84.203-84.374-37.74-84.374-84.241 37.8-84.203 84.374-84.203z"/></defs><g transform="translate(-180.66 -174.36)"><use xlink:href="#F" transform="matrix(.95883 0 0 1.0046 28.865 22.524)" filter="url(#B)" opacity=".885"/><use xlink:href="#F" x="12.85" y="24.29" fill="silver"/><path d="M401.72 236.5c-94.471 0-171.12 76.685-171.12 171.16s76.654 171.12 171.12 171.12 171.16-76.654 171.16-171.12S496.195 236.5 401.72 236.5zm.031 96.844c1.281 0 2.547.03 3.813.094a74.21 74.21 0 0 1 14.75 2.25 73.95 73.95 0 0 1 3.531 1c2.326.724 4.591 1.559 6.813 2.5 3.332 1.41 6.531 3.076 9.594 4.938 2.042 1.242 4.031 2.573 5.938 4 2.86 2.14 5.573 4.479 8.094 7a74.58 74.58 0 0 1 12.781 17.125c1.144 2.105 2.185 4.247 3.125 6.469 3.297 7.785 5.3 16.256 5.75 25.125a76.28 76.28 0 0 1 .094 3.813c0 2.563-.121 5.066-.375 7.563-.001.01.001.021 0 .031a74.35 74.35 0 0 1-.469 3.688c-.002.01.002.021 0 .031-.187 1.219-.411 2.426-.656 3.625-.002.01.002.021 0 .031-.246 1.199-.541 2.386-.844 3.563-.002.01.003.021 0 .031a73.91 73.91 0 0 1-1 3.5c-.003.01.003.022 0 .031-1.447 4.641-3.342 9.08-5.625 13.281-.004.008.004.023 0 .031-1.14 2.097-2.388 4.125-3.719 6.094-.005.007.005.024 0 .031a74.08 74.08 0 0 1-2.062 2.875c-.005.007.005.024 0 .031-.709.947-1.467 1.87-2.219 2.781-.005.006.005.025 0 .031a74.71 74.71 0 0 1-4.781 5.25c-.845.846-1.709 1.664-2.594 2.469a74.8 74.8 0 0 1-2.687 2.344c-3.669 3.028-7.634 5.712-11.844 8a74.09 74.09 0 0 1-6.5 3.125c-2.222.94-4.487 1.776-6.812 2.5a73.92 73.92 0 0 1-3.531 1 74.26 74.26 0 0 1-14.75 2.25 75.07 75.07 0 0 1-3.812.094 75.07 75.07 0 0 1-3.812-.094 74.21 74.21 0 0 1-14.75-2.25c-1.187-.305-2.368-.638-3.531-1-2.326-.724-4.591-1.559-6.812-2.5a74.06 74.06 0 0 1-9.594-4.937c-2.042-1.242-4.031-2.573-5.937-4-3.82-2.858-7.329-6.068-10.531-9.594-.799-.88-1.587-1.77-2.344-2.687a74.47 74.47 0 0 1-8-11.844c-1.144-2.105-2.185-4.247-3.125-6.469-.004-.009.004-.022 0-.031-.466-1.102-.93-2.215-1.344-3.344-.003-.009.003-.022 0-.031-.417-1.138-.794-2.274-1.156-3.437-1.813-5.824-2.931-11.942-3.25-18.281a75.08 75.08 0 0 1-.094-3.812c0-2.574.119-5.087.375-7.594.126-1.238.283-2.468.469-3.687.002-.01-.002-.021 0-.031.186-1.219.411-2.426.656-3.625.002-.01-.002-.021 0-.031.245-1.199.541-2.386.844-3.562.002-.01-.002-.022 0-.031a73.9 73.9 0 0 1 1-3.5c.003-.009-.003-.022 0-.031a72.95 72.95 0 0 1 1.156-3.437c1.253-3.421 2.747-6.71 4.469-9.875.572-1.053 1.161-2.073 1.781-3.094.625-1.028 1.265-2.036 1.938-3.031.663-.981 1.355-1.928 2.063-2.875.005-.007-.005-.025 0-.031.708-.947 1.467-1.87 2.219-2.781.005-.006-.005-.025 0-.031a74.65 74.65 0 0 1 2.344-2.687c.799-.88 1.597-1.722 2.438-2.562a74.61 74.61 0 0 1 2.594-2.469 74.81 74.81 0 0 1 2.688-2.344c3.669-3.028 7.634-5.712 11.844-8a74.09 74.09 0 0 1 6.5-3.125c2.222-.94 4.487-1.776 6.813-2.5 1.163-.362 2.345-.695 3.531-1a74.26 74.26 0 0 1 14.75-2.25 75.07 75.07 0 0 1 3.813-.094z" fill="#a9a9a9" opacity=".794"/><path d="M401.72 258.79c-82.169 0-148.84 66.706-148.84 148.88s66.675 148.84 148.84 148.84S550.6 489.835 550.6 407.67s-66.706-148.88-148.88-148.88zm.031 74.562c41.006 0 74.281 33.307 74.281 74.312s-33.276 74.281-74.281 74.281-74.281-33.307-74.281-74.312 33.276-74.281 74.281-74.281z" fill="url(#D)" opacity=".794"/><use xlink:href="#G" transform="matrix(.83697 0 0 .8358 76.256 87.235)" fill="#696969" filter="url(#A)" opacity=".588"/><path d="M401.73 318.63c-49.059 0-88.875 39.87-88.875 89s39.816 89.031 88.875 89.031 88.875-39.87 88.875-89v-.031c0-49.13-39.816-89-88.875-89zm0 20.156c38.019 0 68.875 30.856 68.875 68.875s-30.856 68.844-68.875 68.844-68.875-30.856-68.875-68.875 30.856-68.844 68.875-68.844z" fill="silver"/><use xlink:href="#F" transform="matrix(.58268 .15613 -.16297 .6082 379.74 291.78)" filter="url(#B)" opacity=".885"/><path d="M594.961 464.347c-4.403 10.579-16.096 16.533-27.506 13.475-10.831-2.902-17.842-12.955-17.264-23.687-8.392-.424-16.7-.03-24.844 1.109 1.288 11.227-5.807 22.007-17.081 25.008-10.468 2.787-21.211-1.997-26.325-10.988-6.144 3.241-12.048 6.953-17.613 11.117 6.928 9.103 6.231 22.134-2.087 30.425-7.933 7.908-20.195 8.912-29.237 2.994-4.326 6.641-8.096 13.738-11.209 21.248 11.093 4.157 17.442 16.109 14.324 27.745-2.937 10.961-13.287 17.957-24.246 17.107-.158 3.695-.177 7.369-.023 11.025 2.185.012 4.339.322 6.389.921 7.555 2.207 13.812 8.186 16.003 16.313 2.983 11.062-2.573 22.397-12.642 27.049 2.979 7.253 6.594 14.231 10.801 20.84 5.612-3.981 12.611-5.186 19.062-3.612 4.005.977 7.783 3.029 10.911 6.148 8.675 8.646 9.088 22.408 1.243 31.52 6.202 4.745 12.87 8.977 19.967 12.61 4.865-9.583 15.964-14.784 26.794-11.881 11.41 3.057 18.56 14.06 17.083 25.423 7.067.901 14.106 1.233 21.063 1-.708-10.817 6.306-20.978 17.206-23.88 3.881-1.033 7.801-1.014 11.455-.135 7.345 1.767 13.602 7.053 16.381 14.447a132.87 132.87 0 0 0 22.322-11.599c-5.942-9.013-4.948-21.24 2.987-29.15 5.961-5.942 14.369-7.991 22.016-6.126a23.22 23.22 0 0 1 8.588 4.106c4.364-5.776 8.278-11.961 11.676-18.508-9.13-5.057-14.018-15.824-11.205-26.322 2.992-11.165 13.681-18.228 24.865-17.062a130.23 130.23 0 0 0-.082-34.94c-11.842 2.198-23.594-5.029-26.775-16.827-2.975-11.029 2.553-22.331 12.569-27.008a132.92 132.92 0 0 0-12.102-18.796c-9.071 6.247-21.618 5.352-29.704-2.707-7.599-7.575-8.866-19.081-3.789-27.944-6.271-4.003-12.941-7.515-19.973-10.462zm-39.054 76.323c.779.209 1.543.433 2.302.678a46.85 46.85 0 0 1 8.598 3.764c.671.378 1.336.772 1.984 1.18a46.34 46.34 0 0 1 3.734 2.623 44.12 44.12 0 0 1 1.751 1.442l.856.757c.039.035.074.076.113.111.38.345.755.695 1.123 1.051.404.394.797.784 1.187 1.19 1.039 1.084 2.032 2.214 2.959 3.388.348.44.691.897 1.023 1.349l.611.833c.267.381.513.771.768 1.159a46.09 46.09 0 0 1 1.381 2.215c.281.484.543.979.806 1.473l.014.024.366.686a46.52 46.52 0 0 1 .863 1.793l.23.508c.228.513.452 1.035.662 1.556a46.34 46.34 0 0 1 .736 1.961 47.05 47.05 0 0 1 .894 2.815c.151.539.285 1.087.417 1.633.354 1.461.639 2.927.85 4.425.093.656.181 1.31.245 1.972.007.068 0 .137.006.204.055.595.097 1.199.129 1.799l.015.247c.011.237.005.475.012.713l.039 1.754-.008.485c-.007.414-.031.829-.048 1.244l-.087 1.538c-.002.027.001.054-.001.081-.004.046-.013.092-.016.138a46.14 46.14 0 0 1-.171 1.779c-.005.04-.007.079-.011.119-.016.13-.046.259-.063.389l-.236 1.64c-.114.68-.24 1.366-.385 2.046-.165.77-.355 1.554-.562 2.323-.416 1.552-.896 3.047-1.455 4.517l-.005.019a46.42 46.42 0 0 1-.883 2.156l-.005.019c-.311.707-.643 1.402-.987 2.088l-.005.019a34.61 34.61 0 0 1-.536 1.012l-.555 1.007-.005.019a46.2 46.2 0 0 1-1.175 1.956l-.005.019a46.34 46.34 0 0 1-2.624 3.717 46.08 46.08 0 0 1-2.948 3.407c-1.038 1.103-2.126 2.127-3.253 3.103a35.67 35.67 0 0 1-1.725 1.424c-.589.477-1.2.912-1.805 1.341-2.437 1.744-5.036 3.238-7.752 4.472s-5.566 2.215-8.495 2.915c-1.465.35-2.954.626-4.457.834s-3.015.345-4.545.404c-.765.03-1.538.039-2.308.03-3.082-.033-6.211-.371-9.328-1.04a47.41 47.41 0 0 1-2.332-.564c-.779-.209-1.543-.433-2.302-.678a46.85 46.85 0 0 1-8.599-3.764c-.671-.378-1.336-.772-1.984-1.18a46.34 46.34 0 0 1-3.734-2.623 46.8 46.8 0 0 1-3.443-2.95c-.547-.518-1.066-1.059-1.586-1.601a49.87 49.87 0 0 1-1.528-1.667c-.492-.565-.968-1.135-1.432-1.722-.927-1.174-1.798-2.384-2.607-3.639a47.42 47.42 0 0 1-1.157-1.912c-.377-.65-.739-1.286-1.085-1.953l-.983-2.028c-.311-.679-.613-1.371-.892-2.064s-.537-1.388-.782-2.095c-.491-1.414-.913-2.853-1.266-4.314a45.99 45.99 0 0 1-.85-4.425l-.269-2.262c-.064-.776-.109-1.525-.14-2.288-.031-.746-.037-1.488-.031-2.239l.003-.162a46.92 46.92 0 0 1 .066-2.071l.037-.517.104-1.452.074-.731c.002-.019.013-.038.015-.057.074-.64.167-1.274.269-1.915l.048-.332c.109-.655.246-1.31.384-1.965.011-.052.01-.105.022-.156a46.88 46.88 0 0 1 .561-2.323c.208-.776.431-1.537.675-2.293a44.86 44.86 0 0 1 .779-2.225l.005-.019a46.42 46.42 0 0 1 .883-2.156l.005-.019c.311-.708.644-1.402.987-2.088l.005-.019c.344-.686.716-1.356 1.091-2.019l.005-.019a46.19 46.19 0 0 1 1.175-1.956l.005-.019c.409-.645.822-1.272 1.26-1.893.328-.465.674-.918 1.018-1.37l.122-.15.502-.656c.265-.332.538-.655.812-.979l.564-.66a46.89 46.89 0 0 1 1.296-1.417 36.85 36.85 0 0 1 1.589-1.602c.547-.521 1.099-1.027 1.669-1.52a46.43 46.43 0 0 1 1.72-1.405c.589-.477 1.2-.912 1.805-1.341.614-.451 1.237-.862 1.865-1.264a46.87 46.87 0 0 1 5.887-3.208c2.721-1.236 5.566-2.215 8.495-2.915 1.465-.35 2.954-.626 4.457-.834s3.015-.345 4.545-.404c.765-.03 1.538-.039 2.308-.03 3.082.033 6.211.371 9.328 1.04a47.41 47.41 0 0 1 2.332.564z" fill="silver"/><path d="M571.61 482.04c-57.41-15.383-116.43 18.562-131.76 75.756s18.822 116.08 76.232 131.47 116.45-18.538 131.77-75.732-18.836-116.11-76.246-131.49zm-15.691 58.636c.779.209 1.543.433 2.302.678 3.035.98 5.913 2.251 8.598 3.764.671.378 1.336.772 1.984 1.18a46.35 46.35 0 0 1 3.734 2.623c1.796 1.396 3.47 2.925 5.029 4.551a46.93 46.93 0 0 1 2.959 3.389 47.05 47.05 0 0 1 3.783 5.556 46.76 46.76 0 0 1 4.989 12.449 45.99 45.99 0 0 1 .85 4.425c.741 5.25.584 10.704-.582 16.147a47.64 47.64 0 0 1-.561 2.323 46.51 46.51 0 0 1-1.455 4.517l-.005.019a46.47 46.47 0 0 1-.883 2.156l-.005.019c-.311.707-.643 1.402-.987 2.088l-.005.019c-.344.686-.716 1.356-1.091 2.019l-.005.019a46.11 46.11 0 0 1-1.176 1.956l-.005.019c-1.632 2.574-3.504 4.953-5.573 7.125-1.038 1.103-2.126 2.127-3.253 3.103a35.64 35.64 0 0 1-1.725 1.424c-.589.477-1.2.912-1.805 1.341-1.219.88-2.473 1.677-3.762 2.419a46.79 46.79 0 0 1-1.977 1.072c-.664.341-1.333.672-2.013.981a46.86 46.86 0 0 1-8.495 2.915 46.68 46.68 0 0 1-4.457.834 46.35 46.35 0 0 1-4.545.404c-.765.03-1.538.039-2.308.03-3.082-.033-6.211-.371-9.328-1.04-.779-.167-1.553-.355-2.332-.564a47.4 47.4 0 0 1-2.302-.678c-3.035-.98-5.913-2.251-8.598-3.764a46.65 46.65 0 0 1-1.984-1.18 46.35 46.35 0 0 1-3.734-2.623c-1.796-1.396-3.47-2.925-5.029-4.551a46.93 46.93 0 0 1-2.959-3.389c-1.858-2.352-3.469-4.867-4.844-7.523a46.89 46.89 0 0 1-.988-2.009c-1.245-2.715-2.233-5.552-2.94-8.473-.354-1.461-.639-2.927-.85-4.425l-.269-2.262c-.064-.776-.109-1.525-.14-2.288-.157-3.821.156-7.707.991-11.597a46.88 46.88 0 0 1 .562-2.323c.417-1.558.898-3.061 1.46-4.536a46.39 46.39 0 0 1 .883-2.156l.005-.019a46.21 46.21 0 0 1 .987-2.088l.005-.019c.344-.686.716-1.356 1.091-2.019l.005-.019a46.13 46.13 0 0 1 1.175-1.956l.005-.019a45.62 45.62 0 0 1 1.26-1.893c1.317-1.867 2.758-3.615 4.318-5.251.518-.544 1.042-1.066 1.584-1.583s1.099-1.027 1.669-1.52a46.4 46.4 0 0 1 1.72-1.405c.589-.477 1.2-.912 1.805-1.341.614-.451 1.237-.862 1.865-1.264a46.33 46.33 0 0 1 1.897-1.154 47.29 47.29 0 0 1 1.977-1.072c.664-.341 1.333-.672 2.013-.981a46.86 46.86 0 0 1 8.495-2.915c1.465-.35 2.954-.626 4.457-.834a46.35 46.35 0 0 1 4.545-.404c.765-.03 1.538-.039 2.308-.03 3.082.033 6.211.371 9.328 1.04.779.167 1.553.355 2.332.564z" fill="#a9a9a9" opacity=".794"/><path d="m567.99 495.53c-49.934-13.38-101.27 16.148-114.6 65.895s16.372 100.97 66.306 114.35 101.29-16.124 114.62-65.871-16.386-100.99-66.32-114.37zm-12.077 45.146c24.919 6.677 39.737 32.26 33.085 57.085s-32.271 39.553-57.19 32.876-39.737-32.26-33.085-57.085 32.271-39.553 57.19-32.876z" fill="url(#E)" opacity=".794"/><use xlink:href="#G" transform="matrix(.50862 .13628 -.13558 .506 398.04 338.67)" fill="#696969" filter="url(#A)" opacity=".588"/><path d="M558.29 531.76c-29.813-7.988-60.477 9.667-68.447 39.41s9.753 60.384 39.566 68.373 60.477-9.667 68.447-39.41l.005-.019c7.97-29.744-9.758-60.365-39.571-68.354zm-3.27 12.203c23.104 6.191 36.85 29.896 30.682 52.913s-29.919 36.655-53.023 30.464-36.85-29.896-30.682-52.913 29.919-36.655 53.023-30.464z" fill="silver"/></g></svg>