<svg xmlns="http://www.w3.org/2000/svg" xmlns:xlink="http://www.w3.org/1999/xlink" viewBox="0 0 263 199" xmlns:v="https://vecta.io/nano"><style><![CDATA[.B{clip-path:url(#O)}.C{fill:#4e9a06}.D{fill-rule:evenodd}.E{stroke-width:1.397}]]></style><defs><radialGradient id="A" cx="505.89" cy="217.68" r="34.169" gradientTransform="matrix(-1.4821 2.0468 -.64271 -.4654 1457.6 -713.7)" xlink:href="#B"/><linearGradient id="B" xlink:href="#V"><stop stop-color="#73d216" offset="0"/><stop stop-color="#73d216" stop-opacity="0" offset="1"/></linearGradient><linearGradient id="C" x1=".683" x2="-.028" y1=".606" y2=".787"><stop stop-color="#a8e766" offset="0"/><stop stop-color="#a8e766" stop-opacity="0" offset="1"/></linearGradient><linearGradient id="D" x1=".557" x2=".244" y1=".124" y2=".89"><stop stop-color="#a8e766" offset="0"/><stop stop-color="#a8e766" stop-opacity="0" offset="1"/></linearGradient><filter id="E"><feGaussianBlur stdDeviation=".541"/></filter><radialGradient id="F" cx="547.81" cy="129.85" r="16.5" gradientTransform="matrix(-.20383 1.2575 -1.1196 -.18147 809.27 -517.91)" xlink:href="#V"><stop offset="0"/><stop stop-opacity="0" offset="1"/></radialGradient><filter id="G" x="-.019" y="-.126" width="1.039" height="1.252"><feGaussianBlur stdDeviation=".169"/></filter><radialGradient id="H" cx="588.52" cy="177.17" r="19.5" gradientTransform="matrix(2.1042 -.29221 .11271 .81161 -664.3 194.43)" xlink:href="#V"><stop stop-color="#85b96e" offset="0"/><stop stop-color="#9bb96e" stop-opacity="0" offset="1"/></radialGradient><filter id="I" x="-.063" y="-.107" width="1.126" height="1.213"><feGaussianBlur stdDeviation="1.073"/></filter><radialGradient id="J" cx="586.39" cy="160.17" r="20.371" gradientTransform="matrix(1.8859 .73705 -.2857 .73103 -814.15 -454.01)" xlink:href="#V"><stop stop-color="#006f38" stop-opacity="0" offset="0"/><stop stop-color="#006f38" offset="1"/></radialGradient><radialGradient id="K" cx="587.03" cy="166.51" r="30.233" gradientTransform="matrix(-1.833 -.50364 .14532 -.5289 1609.8 575.05)" xlink:href="#M"/><filter id="L"><feGaussianBlur stdDeviation="1.003"/></filter><linearGradient id="M" xlink:href="#V"><stop stop-color="#fff" stop-opacity=".613" offset="0"/><stop stop-color="#efdd70" stop-opacity=".299" offset="1"/></linearGradient><radialGradient id="N" cx="584.79" cy="194.88" r="30.233" gradientTransform="matrix(-1.833 -.50364 .14532 -.5289 1609.8 575.05)" xlink:href="#M"/><clipPath id="O"><path d="M552 133.48l2.9 11.04 9.88 6.67s8.48-1.15 14.22.29c5.94 1.5 11.66 3.38 15.1 5.23 4.96 2.67 10.99 7.51 11.91 12.78.78 4.47-.53 11.71-4.07 14.23l-6.68-.88c.65.22-11.13 4.04-16.26 3.49-3.46-.37-16.55-4.07-23.52-8.13-6.96-4.07-11.32-6.39-11.32-6.39s-1.45 8.42-3.48 11.32c-2.04 2.91-17.14 12.78-18.59 13.36s-29.33 1.74-32.52-2.32c-3.19-4.07 8.42-5.81 8.42-5.81s26.71-7.84 31.36-15.39 10.74-33.97 11.91-36.29c1.16-2.33 11.32-3.49 10.74-3.2z" fill="none" stroke="#4e9a06" stroke-width="1"/></clipPath><radialGradient id="P" cx="314.34" cy="122.36" r="21.147" gradientTransform="matrix(1.168 1.5811 -.77322 .57118 122.6 -459.97)" xlink:href="#B"/><radialGradient id="Q" cx="314.34" cy="122.36" r="21.147" gradientTransform="matrix(1.168 1.5811 -.77322 .57118 123.13 -457.85)" xlink:href="#B"/><radialGradient id="R" cx="354.76" cy="217.43" r="41.722" gradientTransform="matrix(1.7067 -.089212 .039934 .76397 -263.98 79.286)" xlink:href="#B"/><radialGradient id="S" cx="354.76" cy="217.43" r="41.722" gradientTransform="matrix(1.7067 -.089212 .039934 .76397 -262.92 79.286)" xlink:href="#B"/><radialGradient id="T" cx="630.69" cy="146.57" r="23.411" gradientTransform="matrix(-.10852 3.4217 -1.0609 -.033644 851.98 -2015.4)" xlink:href="#B"/><radialGradient id="U" cx="630.69" cy="146.57" r="23.411" gradientTransform="matrix(-.10852 3.4217 -1.0609 -.033644 849.98 -2015.4)" xlink:href="#B"/><linearGradient id="V" gradientUnits="userSpaceOnUse"/></defs><g class="D"><g transform="translate(-407.58 -108.86)"><path d="M599.94 109.31c-1.45.09-2.35.52-2.44 1.38-.55 5.46 10.37 23.52 8.19 27.34-4.33 9.04-6.35 17.29-13.6 24.16.94-.84 1.82-1.68 2.6-2.57-.13.16-.27.29-.41.44 1.14.79 1.22 1.08 1.22 2.22 0 1.4-.07 1.46-1.75 2.41-.95.53-2.17 1.09-2.72 1.22-.47.1-.99.21-1.34.31.23-.93.67-1.95 1.37-3.13-.22.2-.42.4-.65.6-8.1 13.49 15.84 10.39 19.12 12.03s13.11-2.72 18.03-8.19c4.92-5.46 12.56-23.49 8.19-37.15-3.69-11.53-27.98-21.52-35.81-21.07z" class="C"/><path d="M600.31 110.34a4.92 4.92 0 0 0-1.28.25l-.12.53c-.17.63-.01.76 1.25 1.04 2.59.58 4.15.47 4.93-.35.19-.2.41-.5.63-.78-2.17-.51-4.05-.76-5.41-.69zm-1.97.66c-.19.19-.34.41-.37.69-.01.12 0 .26 0 .4 0 0 .06.01.06 0 .01-.01.22-.74.31-1.09zm8.82.44c-.5.18-.77.47-1.22 1-.94 1.11-.95 1.12-.56 3.15.6 3.18.58 3.14 2.28 3.5.85.19 1.92.48 2.37.66.66.25 1.13.17 2.31-.5l1.69-1.06c.11-.11.32-1.28.44-2.6l.09-1.53c-2.6-1.1-5.12-1.99-7.4-2.62zm-9.13 1.56c.23 1.67.98 3.93 1.97 6.44.28-.55.61-1.59.78-2.6l.53-2.72c.13-.44-.21-.6-1.65-.9-.59-.12-1.13-.2-1.63-.22zm5.22.53c-.92 0-1.18.15-1.31.75l-.82 4.13c0 .28.63.4 2.1.4h2.12l-.46-2.37-.47-2.66c0-.14-.53-.25-1.16-.25zm12 .81l-.03.1c-.11.68-.22 1.8-.22 2.47v1.18l1.69-.53c.93-.3 1.74-.71 1.81-.9.04-.11-.03-.43-.16-.85l1 .47-4.09-1.94zm4.22 2c.41.73.85 1.47 1.22 1.94l1.09 1.47c.03.05.93.18 2 .31l1.94.25.03-.19c-1.96-1.36-4.1-2.64-6.28-3.78zm-.69 1.1l-2.12.81c-1.19.43-2.81 1.19-3.6 1.69l-1.4.9 1.68 3.19c2.38 4.45 2.09 4.22 4.35 3.85 1.19-.2 1.21-.24 2.22-3.29.56-1.69 1.03-3.42 1.03-3.84-.01-.42-.48-1.34-1.06-2.03l-1.1-1.28zm-15.37 2.37c-1.73 0-2.61.14-2.97.72l2.9 6.88c1.6-.5 2.64-2.03 3.41-5 .57-2.21.55-2.22-.16-2.41-.38-.1-1.82-.19-3.18-.19zm4.65.03l-.31 1.22c-.6 2.37-.74 3.39-.47 3.38.15-.01 1.2-.23 2.34-.47 1.15-.25 2.2-.54 2.32-.66.11-.11-.05-.7-.35-1.31-.4-.84-.89-1.24-2.03-1.62l-1.5-.54zm14.72.85c-.77-.01-1.04.23-1.19.78-.71 2.6-.71 2.71-.09 2.53l2.5-.56c1.79-.36 1.91-.42 1.91-1.32 0-.81-.18-.98-1.1-1.15l-2.03-.28zm3.88.09c-.11 1.69.08 4.55.4 5.38.24.6 2.71 1.62 3.41 1.4.2-.06 1.09-.64 2.06-1.31-1.53-1.93-3.56-3.77-5.87-5.47zm-1.57 3.1c-.04-.01-.1.01-.15.03a21.5 21.5 0 0 1-1.85.4c-1.98.34-2.29.58-2.97 2.5-.34.97-.85 2.14-1.15 2.6l-.78 1.21c-.15.25.41.83 1.5 1.57 1.99 1.34 1.7 1.27 3.4.81.73-.2 1.72-.75 2.22-1.22.77-.72.91-1.13.91-2.56a21.47 21.47 0 0 0-.38-3.56c-.26-1.29-.43-1.77-.75-1.78zm-13.31.31a.89.89 0 0 0-.22.03l-2.62.56c-1.67.34-2.02.52-2.75 1.63l-.81 1.28.74 1.43c.43.8.85 1.88.94 2.41.13.76.58 1.19 2.16 2.06l2.03 1.1c.04 0 .83-1.23 1.75-2.72s1.66-2.93 1.66-3.19-.54-1.42-1.19-2.59c-.87-1.56-1.22-2.01-1.69-2zm21.34 2.84l-1.78 1.41c-.1.16.08.78.38 1.37.73 1.45 3.05 4.53 3.4 4.53.11 0 .39-.23.69-.56a23.94 23.94 0 0 0-.75-3.03c-.4-1.27-1.07-2.5-1.94-3.72zm-5.87.47c-.27-.01-.37.43-.37 1.75v1.87l2.09-.21c1.13-.13 2.12-.31 2.19-.38s-.06-.57-.28-1.12c-.32-.75-.75-1.08-1.72-1.35l-1.78-.53c-.05-.02-.09-.03-.13-.03zm-22.63.25c-.03 0-.63.17-1.03.28l1.03 2.69c.8-.01 1.44-.1 1.44-.19 0-.24-1.31-2.78-1.44-2.78zm14.41.56l-1.28.22-1.69.22c-.22 0-.63.44-.9.97-.48.93-.46.96.25 1.09 1.57.31 1.83.21 2.71-1.12l.91-1.38zm-14.15 3.1c1.11 3.08 1.72 5.61 1.06 6.78l-.66 1.43c.42-.09.73-.34 1.1-.78.23-.28.62-.53.87-.53.63 0 .59-.87-.19-3.12-.36-1.06-.65-2.36-.65-2.88 0-.86-.1-.91-1.53-.9zm25.68 0c-1.9.05-3.56.49-4.44 1.18l-.93.72.87 2.75 1 3.19c.16.45 2.48.29 4.78-.31 1.65-.43 2.19-.93 2.41-2.32.17-1.06 0-1.44-1.31-3.21-1.2-1.61-1.68-2.02-2.38-2zm-15.44.21c-.65.07-.95.42-1.87 1.76-.93 1.33-1.29 2.2-1.34 3.24-.07 1.4-.05 1.46 1.4 2.04 1.58.62 4.76.58 6.88-.07.93-.28 1.09-.46 1.09-1.4 0-2.41-.35-3.07-2.19-4.28-1.19-.8-2.2-1.22-3.15-1.29-.34-.02-.6-.02-.82 0zm8.97 1.88a2.4 2.4 0 0 0-.47.06c-2.14.48-2.06.41-1.84 2.06.38 2.82.32 2.78 1.97 1.79.8-.49 1.46-1.15 1.47-1.44 0-.29-.15-.99-.34-1.56-.24-.68-.4-.91-.79-.91zm-17.03.03c0 .07.26.85.6 1.72l.81 2.16c.14.4.56.59 1.37.59 1.01 0 1.21-.13 1.25-.84l.07-1.35c.01-.34-.71-.86-2.04-1.47l-2.06-.81zm28.85.97c-.49.62-.82 1.32-.94 2.06-.21 1.33-.19 1.39.72 1.53l.59.07a29.46 29.46 0 0 0-.37-3.66zm-10.5 2.53l-1.5.94c-.82.51-2.04 1.09-2.72 1.31-.82.27-1.3.65-1.41 1.13l-.81 4.09c-.01.61 1.84 1.03 4.75 1.06l2.59.03-.15-3.56c-.1-1.95-.32-3.88-.47-4.28l-.28-.72zm-15.94 1.66c-.74.01-1.23.26-2.25.97l-1.56 1.06.18 2.19c.25 2.65.98 3.48 2.85 3.21l2.56-.37c1.53-.23 1.67-.47 2.53-3.87l.5-1.91-1.22-.53c-.66-.29-1.9-.6-2.75-.69l-.84-.06zm26.09.06c-1.57-.02-2.03.74-2.44 3.34-.32 2.11-.3 2.28.5 3.5.57.85.91 1.19 1.94 1.38.5-2.69.8-5.44.75-8.16l-.75-.06zm-2.97.81l-1.28.19-2.69.41-1.4.22V145l1.06-.16 2.5-.4c1.37-.21 1.41-.25 1.41-1.47a13.83 13.83 0 0 1 .22-2.31l.18-1.1zm-13.71.1c-.36-.01-1.1.06-1.94.18l-2.06.32-.44 1.93c-.25 1.08-.39 2.02-.32 2.1.12.12 2.62.6 3.72.72.21.02.6-1.12.88-2.53s.44-2.62.37-2.69c-.01-.02-.1-.03-.21-.03zm-14.13 1.12l-1.91 4.34c.46.03.92.01 1.25 0l1.16-.03-.13-2.15c-.05-.98-.21-1.81-.37-2.16zm27.41 4.13l-1.72.25c-3.52.46-3.37.29-3.47 3.43-.07 2.31.01 2.99.56 3.88.54.88.88 1.06 1.81 1.06 1.01 0 1.35-.25 2.82-2.06 1.91-2.36 2.04-3.05.84-5.09l-.84-1.47zm-18.1.18c-.06.07-.42 1.43-.78 3.03-.59 2.67-.61 3.01-.16 3.97.39.82.85 1.16 1.94 1.44l1.75.5c.18.07.4.11.5.13.1.01.72-.54 1.38-1.22.98-1.02 1.27-1.68 1.69-3.72.27-1.36.44-2.52.37-2.6-.21-.2-6.56-1.66-6.69-1.53zm-11.47.66l-2.5 5.56.91 2.31c.12.2.89.25 1.88.13l2.21-.22c.31 0 .86-.71 1.32-1.69 1.02-2.17.99-4.51-.07-5.31-.5-.38-2.14-.66-3.75-.78zm21.35.5c-2.59 0-2.37-.24-2.85 3.63l-.21 1.78 2.06-.22 2.68-.22c.55 0 .6-.28.6-2.47v-2.5h-2.28zm-11.28.03c-.2-.01-.51.05-1.04.13l-2.65.37c-1.09.16-1.24.29-1.22 1.06.04 1.68.46 2.19 2.31 2.75l1.78.53.38-1.62.59-2.47c.13-.52.17-.72-.15-.75zm21.78 1.19l.12 1.12c.05.49.14.81.44 1.13l.44-2.13-1-.12zm-.1 2.81c-.03.05-.75.96-1.62 2l-1.6 1.88.88 1.59c.2.37.43.76.69 1.13.79-2 1.53-4.15 2.12-6.41-.25-.13-.44-.23-.47-.19zm-26.31.31l-.5 1.22c-.81 1.9-1.33 5.27-.91 5.94.27.41 4.34 2.04 6 2.37.07.02.64-.3 1.26-.68.61-.38 1.12-.87 1.12-1.1 0-.22-.67-1.76-1.47-3.4l-1.47-2.97-2-.69-2.03-.69zm17.28 1.35a5.2 5.2 0 0 0-.69.06l-2.74.41c-1.16.15-1.8.48-2.6 1.31l-1.06 1.09.75 1.91 1.37 3.19.63 1.21 1.78-.96c.99-.53 2.38-1.04 3.09-1.16l1.28-.22.19-2.22c.17-1.97.11-2.34-.62-3.47-.58-.87-.82-1.15-1.38-1.15zm-25.75.4c-1.29 2.46-2.77 4.82-4.68 7.04 1.29.82 1.44.78 2.56.56.75-.15 1.26-.64 2-1.78 1.22-1.91 1.25-2.82.15-5.69l-.03-.13zm14.5 1.6c-.3 0-.09.5.75 2.18l1.16 2.35 1.06-.47c.59-.25 1.15-.6 1.22-.81s-.06-.84-.28-1.38c-.31-.74-.75-1.04-1.78-1.31l-1.97-.53c-.06-.02-.11-.03-.16-.03zm15.35.25c-1.03 0-1.13.1-1.32 1.25-.11.68-.21 1.72-.21 2.31v1.06l1.74-.69c.96-.37 1.85-.79 2-.93.16-.15-.02-.88-.4-1.63-.61-1.18-.85-1.37-1.81-1.37zm-24.29.03l-1.68.12-2.35.25v1.1c0 1.02.11 1.12 1.25 1.31l1.75.31c1.44.31 1.57.21 1.75-1.37.1-.87.13-1.63.07-1.69-.04-.03-.34-.05-.79-.03zm-3.59 3.47c-.73.09-1.08.55-1.78 1.69-.7 1.12-.69 1.17-.13 3.24.32 1.17.73 2.27.94 2.44s1.12.54 2.03.82l1.72.53c.03.01.51-.78 1.07-1.75.82-1.44 1.03-2.17 1.03-3.78 0-1.22-.18-2.13-.44-2.35-.23-.19-1.37-.5-2.53-.69-.89-.14-1.47-.21-1.91-.15zm30.63.19l-3.07 1.03-3.59 1.21c-.53.19-.52.28.09 1.66.37.82 1.14 2.2 1.72 3.06l.66.91c1.39-1.84 2.91-4.57 4.28-7.78l-.09-.09zm-13.57.34l-1.37.47c-2.13.74-3.18 1.83-3.6 3.78-.33 1.57-.29 1.76.41 2.5.41.44.78.78.81.78.04 0 .84-.13 1.82-.31 1.25-.24 2.1-.66 2.87-1.41.6-.58 1.09-1.15 1.09-1.28s-.47-1.19-1.03-2.37l-1-2.16zm-10.87 1c-.26.01-.34.48-.34 1.84v2l1.9.38 2.25.5c.85.3 1.15.09 1.16-.75 0-.5.08-1.23.19-1.63.17-.65-.04-.79-2.19-1.44l-2.85-.87c-.04-.02-.08-.03-.12-.03zm16.5.94l-1.69.84c-1.51.77-1.61.89-1.15 1.34.54.55 3.97 1.46 4.12 1.1.05-.12-.22-.9-.59-1.75l-.69-1.53zm-26.34.34c-.19.01-.42.06-.72.12-.95.21-1 .34-1 1.72 0 1.6-.18 1.53 2 .91.59-.17.69-.39.53-1.37-.18-1.11-.27-1.41-.81-1.38zm23.62 2.94l-1.16 1.06-1.12 1.09.19 2.41c.17 2.17.3 2.49 1.28 3.38l.31.24c2.3-1.37 4.5-3.03 6.12-4.84.07-.07.15-.17.22-.25-.2-.37-.45-.72-.72-1.03-.71-.85-1.33-1.2-3-1.59l-2.12-.47zm-14.25.4l-1.16 1.69-1.06 1.59 1.19 1.97c.65 1.1 1.16 2.21 1.16 2.47 0 .37.56.47 2.4.47 2.36 0 2.38 0 3.78-1.37 1.52-1.49 1.7-2.1.97-3.5-.87-1.68-1.94-2.36-4.62-2.91l-2.66-.41zm-8.84.13c-.29.02-.64.12-1.13.25-2.67.7-4.34 1.96-4.78 3.59-.33 1.23-.29 1.59.34 2.91l.97 1.81c.01.01 0 .03 0 .03.62.22 1.31.38 2 .53l.25-.12c.87-.38 2.2-1.05 2.97-1.53 1.61-1 1.67-1.3.91-4.63-.54-2.34-.68-2.92-1.53-2.84zm20.06 1.87c-.09-.11-3.47.59-3.47.72 0 .71 1.21 2.59 1.91 2.97 1.81.98 2.07.78 1.84-1.53l-.28-2.16zm-17.81.28c-.24 0-.23.17-.1.66.12.43.33 1.35.44 2.03.25 1.48.33 1.57 2.72 2.1 2.38.52 2.34.52 2.34.18 0-.16-.38-1.13-.84-2.15-.76-1.67-.97-1.87-2.22-2.19l-2.03-.56a2.05 2.05 0 0 0-.31-.07zm-8.94.35c-.14.01-.32.04-.56.09l-1.6.38c-.07.51-.09.97-.03 1.4.01.01 0 .03 0 .04.79 1.26 1.83 1.37 2.13.12l.4-1.53c.12-.4.09-.54-.34-.5zm-1.94 2.81c.06.16.11.33.19.47-.08-.15-.13-.31-.19-.47zm26.1.41l-1.41 1.37c-.91.9-1.69 2.12-2.16 3.38l-.22.59c2.21-.2 5.19-1.31 8.07-2.91-.65-.54-1.65-1.17-2.47-1.56l-1.81-.87zm-25.85.09c.51.91 1.33 1.64 2.41 2.19-.7-1.38-1.13-1.91-1.75-2.06a4.22 4.22 0 0 0-.66-.13zm11.72 1.44c-.63.02-.99.26-1.56.75-.65.55-.94.89-1.1 1.65l8.03.66-.03-.09c-.52-1.95-.56-1.99-2.03-2.35-1.76-.43-2.68-.64-3.31-.62zm8.06 1.47c-2.19 0-2.43.08-2.28.59.07.22.15.66.25 1.06.82.1 1.48.2 1.84.38.46.23 1.06.34 1.76.34l.21-.53.69-1.84h-2.47zm-11.56.37c-.05-.05-.47.1-1 .32l1.06.15c0-.25-.03-.44-.06-.47z" fill="url(#U)"/><path d="M609.47 113.72c-2.45 3.54 5.4 6.1 5 1.66-1.6-.65-3.41-1.41-5-1.66zm9.94 6.37c-4.53.38-2.3 3.5-.69 5.91.99-.04 3.74-6.94.69-5.91zm-13.72 3.07c.47 2.35 2.3-3.19-.53-1.35l.36.93.17.42zm19.78 3.12c-1.98-.04-2.05 3.24-2.59 4.31 2.95 2.36 4.75-2.97 2.59-4.31zm-12.5.13c-4-.59-3.21 2.96-1.63 4.9 2.02 2.19 4.53-4.31 1.63-4.9zm19 7.03c-3.14-.79-2.68 3.34-.85 4 2.58.33 4.49-1.35 1.88-3.28-.36-.21-.42-1.02-1.03-.72zm-14.5.28c-1.56 1.4-2.33 3.98.62 3.37 2.74.95 4.38-1.64 1.57-2.71-.58-.34-1.57-.98-2.19-.66zm7.97 6.78c-3.07.46-2.63 4.29.78 3.06-.32-.71.43-3.87-.78-3.06zm-14.19.25c-2.89 1.02-1.21 5.39 1.94 2.97 1.17-2.33.69-3.26-1.94-2.97zm7.25 1.19c-.62 1.61.88-.12 0 0zm12.72.15c-.12 2.3 2.57-1.2 0 0zm1.5 5.03c-2.61-1.09-2.29 4.47-1.03 4.19.95-1.17 3.38-3.31 1.03-4.19zm-15.22.29c-.89 1.76-1.32 5.65 1.78 4.12 1.62-2.24 1.91-4.19-1.78-4.12zm-12.28 1.93c-2.6 2.55 1.58 3.39 1.75.69 1.04-1.89-1.25-3.36-1.75-.69zm20-.46c1.72 2.6.94-2.62 0 0zm-14.06 4.28c-2.03 3.07.74 4.73 3.5 4.68-1.03-1.59-1.18-4.65-3.5-4.68zm14.46 1c-3.27-.84-3.56 3.31-1.4 4.03 2.33-.22 4.29-2.04 2.66-4.22l-.99.15-.27.04zm-6.15 6.59c-2.03.35-2.86 4.2-.03 2.37 1.39-.57.62-1.51.03-2.37zm10.22.75c.06 1.85 1.62-1.51 0 0zm-5.94 4.44c-2.16 4.04 2.13 2.33 2.75.34-.78-.19-2.19-1.16-2.75-.34zm-24.34.31c-2.34.14-4.5 3.28-1.85 4.72 2.77-.52 3.73-2.87 1.85-4.72z" fill="url(#T)"/></g><path d="M208.08 59.075l2.91 11.04 9.87 6.68s8.49-1.16 14.23.29c5.93 1.49 11.65 3.37 15.1 5.22 4.96 2.67 10.99 7.51 11.9 12.78.78 4.47-.53 11.71-4.06 14.23l-6.68-.87c.65.21-11.13 4.03-16.26 3.48-3.47-.37-16.55-4.07-23.52-8.13-6.97-4.07-11.33-6.39-11.33-6.39s-1.45 8.42-3.48 11.33c-2.03 2.9-17.13 12.77-18.58 13.35s-29.33 1.74-32.52-2.32c-3.2-4.07 8.42-5.81 8.42-5.81s26.71-7.84 31.36-15.39c4.64-7.55 10.74-33.97 11.9-36.29 1.16-2.33 11.33-3.49 10.74-3.2z" class="C"/><g transform="matrix(.81856 0 0 .81856 -265.75 -77.419)"><path d="M387.25 185.68c-6.62.15-33.86 1.4-46.32 11.19-14.23 11.18-16.28 16.25-16.28 23.37s44.74 10.18 66.1 1.03c21.35-9.15 19.34-24.4 19.34-24.4l-21.37-11.19s-.53-.02-1.47 0z" class="C"/><path d="M388.22 186.09l-1.56.03c.09.06.15.11.25.16l2.03 1.1c.01 0 .34-.55.44-.69l-1.16-.6zm-3.94.13l-6.34.4-1.19 1.13.66 1.72c.64 1.7.65 1.73 2.9 2.44 2.32.72 2.9.65 3.75-.38.24-.28.66-.5.91-.5.63 0 .56-.9-.22-3.15-.19-.54-.35-1.13-.47-1.66zm.47.03c0 .07.26.85.59 1.72l.85 2.15c.14.41.56.57 1.37.57 1.01 0 1.17-.1 1.22-.81l.06-1.38c.02-.34-.7-.87-2.03-1.47-1.13-.51-2.06-.85-2.06-.78zm-8.53.53l-1.41.13.91.12c.07.01.27-.09.5-.25zm-3.69.38l-.5.06c-.21.15-.02.6.56 1.62.53.93 1.19 1.45 2.25 1.88 1.66.66 2.32.78 2.32.37 0-.15-.25-.97-.54-1.81-.54-1.6-.46-1.56-3.53-2.06-.25-.04-.39-.05-.56-.06zm17.72 0c-.43.78-.59 1.46-.63 2.18-.06 1.4-.04 1.43 1.41 2 1.58.63 4.73.62 6.85-.03l.18-.06-7.81-4.09zm-18.91.15l-7.4 1.19v.16c0 1.96.13 2.76.65 3.62.37.61.88 1.05 1.1.97l2.69-.91c2.23-.72 3.81-1.71 3.81-2.43 0-.2-.3-1.12-.66-2.03l-.19-.57zm-8.15 1.31l-3.47.76c.21.25.65.47 1.56.84l1.81.75.1-2.35zm-4.85 1.1l-6.31 1.87.66 1.47 1.4-.22 2.41-.37c.92-.16 1.1-.38 1.75-2.41.04-.12.06-.22.09-.34zm.97.37l-.31 1.22c-.29 1.1-1.03 5.13-1.03 5.72-.01.83 4.09 1.05 6.03.31.7-.26.91-.56.91-1.28 0-.51-.41-1.75-.91-2.72-.81-1.57-1.09-1.83-2.78-2.5l-1.91-.75zm13.72.6l-.84.9c-.49.54-1.04 1.72-1.28 2.82-.4 1.76-.38 1.97.28 2.9.64.9.89.97 2.53.97 1 0 2.24-.22 2.78-.5.95-.49.97-.55.97-3.06v-2.56l-2.22-.75-2.22-.72zm14.13.72c-.74.01-1.23.23-2.25.93l-1.57 1.1.19 2.18c.25 2.66.98 3.46 2.85 3.19l2.56-.37c1.52-.23 1.67-.47 2.53-3.88l.5-1.9-1.22-.54c-.67-.28-1.9-.59-2.75-.68a5.01 5.01 0 0 0-.84-.03zm12.06.43l-.34.16c-.82.27-1.3.65-1.41 1.12l-.81 4.1c-.02.61 1.84 1.03 4.75 1.06H404l-.16-3.53-.03-.5-4.59-2.41zm-48.03.07c-2.26.84-4.39 1.8-6.31 2.9.19 1.2.78 1.89 2.37 3.19l1.97 1.59 1.06-1.21a5.73 5.73 0 0 0 1.34-2.88c.23-1.29.17-2-.28-3.16l-.15-.43zm45.4.43c-.35 0-1.12.07-1.97.19l-2.06.31-.44 1.94c-.24 1.07-.38 2.02-.31 2.1.12.11 2.62.6 3.72.71.2.03.59-1.11.88-2.53.28-1.41.44-2.61.37-2.68-.02-.02-.07-.04-.19-.04zm-26.18.1c-.04-.04-1.18.28-2.53.72-2.46.78-2.47.81-2.38 1.9.14 1.82.28 1.98 1.47 1.75l1.97-.37c.78-.15.93-.37 1.22-2.03l.25-1.97zm8.06 0c-.26.03-.35.64-.35 2.5v2.65l1.26.13c.68.07 1.76.14 2.4.12l1.16-.03-.13-2.15c-.06-1.19-.27-2.26-.47-2.38-.19-.12-1-.31-1.81-.44-.81-.12-1.69-.31-1.94-.4-.04-.02-.08-.01-.12 0zm-20.97.65c-.11-.11-4.56.57-4.72.72-.06.06-.2.85-.31 1.78l-.22 1.72h4.97l.19-2.06.09-2.16zm47.41 1.75v2.88l1.09-.19 2.47-.41.62-.09-4.18-2.19zm-60.75.41c-.92.56-1.8 1.15-2.6 1.78-.07.06-.12.13-.18.19 1.22-.37 2.38-.81 2.59-.97.1-.08.16-.5.19-1zm.31 1.69l-3.35 1.03-1.28.44-1.9 1.56c.29 1.46 1.12 3.68 1.75 4.56.95 1.33 2.15 1.93 4.15 2 .8.03.91-.09.91-.97 0-.55.5-2.24 1.13-3.78l1.12-2.81-1.25-1-1.28-1.03zm25.25 0l-2.5.5c-1.36.26-2.89.64-3.41.84-.88.34-.93.43-.72 1.75.25 1.57 1.3 3.98 1.97 4.53.36.3 2.81.8 4.78.97.25.02.95-.28 1.57-.65.61-.38 1.12-.93 1.12-1.22 0-1.02-1.45-5.01-2.12-5.85l-.69-.87zm39.4.78l-1 .12c-3.51.47-3.36.3-3.46 3.44-.08 2.31.01 2.99.56 3.88.54.87.87 1.06 1.81 1.06h.16c1.84-3.88 1.97-7.14 1.93-8.5zm-17.37.06c-.07.07-.42 1.46-.78 3.06-.6 2.66-.59 3.01-.13 3.97.39.82.81 1.13 1.91 1.41l1.75.5a3.89 3.89 0 0 0 .5.16c.1.01.72-.54 1.38-1.22.98-1.02 1.3-1.68 1.71-3.72.28-1.37.42-2.56.35-2.63-.21-.21-6.56-1.66-6.69-1.53zm-37.19.22c-2.64.02-2.72.03-3.65 1.16-.75.9-.94 1.49-.97 2.84l-.06 1.69 2 .78 3.12 1.06c1.08.26 1.25.21 2.34-1 .86-.94 1.32-1.91 1.69-3.47l.5-2.12-1.15-.5c-.72-.3-2.16-.45-3.82-.44zm24 .41c-.64.01-1.17.06-1.5.18-.79.3-.88.5-.68 1.29.25 1.05 2.01 5.95 2.31 6.43.12.19.92.25 1.9.13l2.19-.22c.3 0 .86-.71 1.31-1.69 1.02-2.18 1-4.48-.06-5.28-.69-.52-3.54-.9-5.47-.84zm-17.65.21c-.69.1-.85.69-1.44 3.6-.2.97-.18 1.09.31.9.31-.11.96-.29 1.44-.4 1.5-.36 1.64-.63 1.28-2.44-.3-1.51-.39-1.66-1.25-1.66-.12 0-.25-.01-.34 0zm39.87.32a3.83 3.83 0 0 0-.62.03c-1.06.11-1.02.7-1.38 3.59l-.22 1.78 2.06-.22 2.69-.21c.54 0 .6-.28.6-2.47v-2.47h-2.29c-.32 0-.6-.03-.84-.03zm-28.4.03c-.33.01-.54.06-.54.09 0 .1 1.12 3.35 1.5 4.41.2.55 2.82-.87 2.82-1.53 0-.28-.16-1.07-.35-1.75-.34-1.24-.35-1.22-2.15-1.22-.5 0-.96-.02-1.28 0zm17.74.03l-.81.09-2.65.41c-1.09.16-1.24.29-1.22 1.06.04 1.68.46 2.16 2.31 2.72l1.78.56.41-1.62.56-2.47c.16-.62.21-.8-.38-.75zm-42.15.34c-.4.06-.73.72-1.25 2.16l-.94 2.53c-.07.16.16.19.5.09l1.66-.37c.94-.19 1.05-.33 1.22-1.75.13-1.14.03-1.7-.35-2.12-.32-.37-.6-.57-.84-.54zm-10.63 1.13l-4.12 3.75-.03.66 2.06-.69c1.14-.38 2.21-.82 2.37-.97.19-.17.13-1.01-.12-2.13l-.16-.62zm39.1 2.47l-2.44 1.65c-2.09 1.41-3.35 2.72-4.59 4.85-.16.27.55.93 2.03 1.9 2.52 1.66 2.3 1.56 3.68 1.28.76-.15 1.27-.6 2-1.74 1.23-1.91 1.26-2.85.16-5.72l-.84-2.22zm-14.22.12c-1.16.17-3.22 1.15-4.1 2.1-1.82 1.96-1.45 3.58 1.22 5.56 1.43 1.06 3.1 1.96 3.91 2.09.08.02.88-.67 1.75-1.53s1.56-1.72 1.56-1.9c0-.35-3.12-5.75-3.59-6.22-.07-.07-.17-.08-.31-.1a2.15 2.15 0 0 0-.44 0zm23.5.22l-.5 1.22c-.81 1.89-1.33 5.3-.91 5.97.26.41 4.37 2 6.03 2.34.07.02.61-.28 1.22-.65.61-.38 1.13-.87 1.13-1.1 0-.22-.67-1.76-1.47-3.4l-1.44-3-2.03-.69-2.03-.69zm-47.72.63c-.04 0-1.16.36-2.47.81-2.95 1-4.2 1.96-4.65 3.56l-.35 1.25 2.06 1.97c2.19 2.07 2.4 2.19 3.63 1.72 1.06-.41 2.74-2.88 3.34-4.91l.5-1.69-.97-1.34-1.09-1.37zm10.12.5c-.5.03-1.06.16-1.81.37-.37.11-.64.63-.78 1.47-.11.72-.7 1.98-1.31 2.78-1.28 1.67-1.48 1.49 2.69 2.28 3.91.75 4.22.76 5.03.25.6-.37.76-.77.81-2.22l.09-2.65c.02-.75-.25-.96-1.96-1.66-1.18-.48-1.91-.68-2.76-.62zm54.91.25a5.2 5.2 0 0 0-.69.06l-2.78.37c-1.15.16-1.79.49-2.59 1.32l-1.06 1.09.75 1.94 1.37 3.15.63 1.25 1.78-.96c.99-.53 2.38-1.07 3.09-1.19l1.41-1.75.06-.69c.17-1.97.11-2.34-.62-3.47-.58-.88-.8-1.12-1.35-1.12zm-37.87.84l.9 1.59c1.01 1.76 1.8 2.78 2.16 2.79.13 0 .76-.83 1.4-1.82l1.19-1.81-1.56-.19-2.81-.37-1.28-.19zm-11.25.5c-.08 0-.14.01-.16.03-.07.07-.21 1.29-.31 2.69l-.19 2.53 1.44-.94 1.65-1.19c.1-.13.11-.77.04-1.4-.12-1-.29-1.19-1.32-1.47-.49-.14-.93-.24-1.15-.25zm37.84.66c-.3 0-.1.5.75 2.18l1.16 2.32 1.09-.44c.59-.25 1.12-.64 1.19-.84.07-.21-.06-.81-.28-1.35-.31-.74-.75-1.08-1.78-1.34l-1.97-.5c-.07-.02-.12-.03-.16-.03zm-50.78.06c-.11 0-.18.01-.22.03-.13.08-.32.66-.44 1.31s-.31 1.38-.4 1.63c-.16.41.43.65 1.9.78.29.02 1-.54 1.6-1.28.59-.75.97-1.49.81-1.63-.33-.3-2.52-.83-3.25-.84zm65.87.19c-.75.02-.89.19-1.06 1.21l-.09.76 1.15-1.97zm-24.03.03l-1.69.12-2.31.22v1.13c0 1.02.08 1.12 1.22 1.31l1.75.28c1.43.3 1.57.21 1.75-1.38.1-.86.13-1.62.06-1.68-.03-.03-.33-.02-.78 0zm-52.62.53c-.48.57-.87 1.14-1.25 1.69.69.26.8.16 1.12-.75.19-.55.29-.79.13-.94zm26.43 2.34l-2.18 1.6c-2.1 1.53-2.22 1.7-2.82 3.84l-.62 2.22 1.06.91c.91.76 3.07 1.6 4.5 1.71.22.02.98-.76 1.69-1.71.71-.96 1.53-2.58 1.81-3.63l.5-1.91-1.97-1.53-1.97-1.5zm-27.93.03a.94.94 0 0 0-.28.1c-2.03 3.14-2.63 5.87-2.72 8.94l1.06.9c.03 0 .99-.4 2.16-.87 2.86-1.17 3.72-1.8 4.47-3.44l.62-1.41-2.22-2.06c-1.6-1.49-2.43-2.26-3.09-2.16zm50.53.54c-.74.09-1.08.54-1.78 1.68-.7 1.13-.69 1.2-.13 3.28.32 1.16.73 2.24.94 2.41s1.12.53 2.03.81l1.72.53c.03.02.5-.77 1.06-1.75.83-1.44 1.03-2.14 1.03-3.75 0-1.21-.17-2.12-.43-2.34-.24-.19-1.37-.5-2.54-.69-.88-.14-1.46-.24-1.9-.18zm-11.41.06c-.64-.04-1.11.41-2.03 1.34-1.81 1.84-1.82 2.14-.16 5.47.73 1.45 1.11 1.88 1.54 1.75l1.56-.41c.54-.12 1.76-.65 2.72-1.18 1.68-.95 1.75-1.04 1.75-2.44 0-1.43-.05-1.46-2.28-2.91-1.65-1.06-2.46-1.59-3.1-1.62zm28.47.47l-1.37.5c-2.13.74-3.18 1.79-3.6 3.75-.33 1.57-.29 1.75.41 2.5l.81.81c.04 0 .87-.16 1.85-.35 1.25-.23 2.07-.62 2.84-1.37.6-.58 1.09-1.16 1.09-1.28 0-.13-.47-1.22-1.03-2.41l-1-2.15zm-56.09.03c-.62.01-.86.34-1.66 1.44-1.1 1.51-1.1 1.53-.75 3.56.26 1.49.57 2.21 1.19 2.75l.84.75 2.07-.97c1.13-.54 2.71-1.15 3.5-1.35 1.59-.39 1.59-.52.46-3.53-.45-1.21-.7-1.44-2.03-1.87-.84-.28-2.11-.59-2.84-.69-.32-.04-.58-.1-.78-.09zm45.22 1c-.26 0-.32.48-.32 1.84v2l1.88.38 2.25.46c.85.31 1.15.13 1.16-.71a8.13 8.13 0 0 1 .18-1.63c.18-.65-.03-.79-2.18-1.44l-2.85-.9c-.04-.02-.09 0-.12 0zm-38.69.31c-.41.04-.25.26-.13.75.82 3.27 1.02 3.63 2.16 4.03l1.31.41c.11.01.51-.99.88-2.25l.65-2.31-1.34-.19-3.53-.44zm55.19.59l-1.69.85c-1.51.76-1.62.91-1.16 1.37.1.1.31.2.56.32l2.47-2.16-.18-.38zm-40.13.1a.83.83 0 0 0-.28.03c-.09.02-.2.06-.25.12-.2.23-.97 3.05-.97 3.57 0 .12.21.13.47.03s1.02-.28 1.69-.41c1.32-.25 1.67-.73 1.37-1.94-.15-.62-1.3-1.33-2.03-1.4zm13.78.28c-.18.01-.41.06-.72.12-.95.21-1 .3-1 1.69 0 1.6-.14 1.53 2.04.91.59-.17.66-.36.5-1.35-.18-1.1-.28-1.4-.82-1.37zm-39.22.69c-.17.02-.41.06-.65.12-.57.14-1.11.64-1.53 1.47l-.63 1.28 1.38.38 1.75.43c.65.21.74-.12.43-1.84-.17-.96-.38-1.79-.43-1.84-.03-.03-.14-.03-.32 0zm48.6 2.62c-.05.06-.57.82-1.16 1.69l-1.06 1.59 1.19 2 .56 1.07c2.05-.6 3.98-1.28 5.75-2.04l2.03-.93c-.01-.03-.02-.04-.03-.07-.87-1.67-1.95-2.35-4.63-2.9-1.41-.3-2.61-.47-2.65-.41zm-21.1.03c-.05 0-.1.02-.15.03l-2.07.57c-1.17.29-1.76.7-2.74 1.96-.84 1.08-1.22 1.93-1.22 2.63 0 1.09 1.79 3.99 2.72 4.53l1.96-.09c.99-.17 1.5-.58 2.72-2.13.83-1.05 1.5-2.12 1.5-2.37s-.52-1.52-1.15-2.85c-.8-1.65-1.18-2.25-1.57-2.28zm12.25.1c-.28.02-.63.12-1.12.25-2.67.7-4.34 1.96-4.78 3.59-.33 1.23-.29 1.59.34 2.91l1.06 2 3.82-.57 1.31-.72c1.6-.99 1.67-1.29.9-4.62-.53-2.34-.67-2.92-1.53-2.84zm-42.59.87c-.11-.01-.17.02-.19.03-.07.07-.86 1.38-1.78 2.91l-1.69 2.78.07.06c2.23.81 5.23 1.49 8.75 2 .33-.8.55-2.15.53-3.19-.05-2.33-1.07-3.46-3.81-4.18l-1.88-.41zm14.53.09c-.17 0-.33.02-.5.04-.46.04-.93.16-1.41.34-.85.31-1.66.66-1.81.78-.42.37.36 4.4 1.25 6.41l.41.87 5.62.28.5-1.18c1.16-2.67.96-4.67-.59-6.04-1.1-.96-2.27-1.47-3.47-1.5zm-4.65.88l-1.72.75c-1.83.8-2.04 1.23-1.69 3.09l.22 1.16 1.69-.22c.94-.12 1.8-.34 1.9-.47.1-.12.07-1.15-.09-2.28l-.31-2.03zm51 .31c-.86.18-1.69.41-1.69.47 0 .11.04.23.09.38l1.6-.85zm-16.04.03c-.23 0-.22.17-.09.66.12.43.32 1.35.44 2.03.24 1.47.36 1.54 2.75 2.06.05.02.08.03.12.03.01.01.02 0 .03 0l1.94-.5-.62-1.46c-.77-1.67-.98-1.9-2.22-2.22l-2.03-.53c-.14-.04-.24-.06-.32-.07zm-47.31.22c-.31.05-1.05.26-1.91.56l-2.06.76-.06 1.46c.55.4 1.25.77 2.09 1.13.34-.41.66-.94 1.03-1.66l1.07-2.25c0-.02-.05-.01-.16 0zm38.38.13a4.56 4.56 0 0 0-.57.09c-2.35.48-2.32.43-1.78 1.47.8 1.55 1.99 1.78 2.32.44l.37-1.53c.12-.41.09-.52-.34-.47zm-15.91.93c-.21 0-.18 1.4.06 2.6.12.56.29.97.41.9.11-.06.85-.32 1.62-.53 1.24-.33 1.41-.47 1.41-1.31 0-.87-.15-.98-1.69-1.31l-1.81-.35zm-27.81.1c.07.3.24.59.47.87-.07-.35-.21-.6-.47-.87zm41.72 2.28l-1.6 2.12-.97 1.44 5.72-.53-.15-.34c-.89-1.85-1.33-2.39-2.03-2.57-.5-.12-.94-.17-.97-.12zm-10.53.91c-.04 0-.72.2-1.54.43-1.35.39-1.58.62-2.56 2.54l6.25-.04-2.15-2.93zm-14.19.37c-.36.03-.79.12-1.35.22-.94.17-1.23.28-1.68 1.44l5.31.56-.56-1.34c-.34-.73-.65-.98-1.72-.88zm36.81.13c-.51-.01-.84.16-1.22.43l1.78-.37-.56-.06z" fill="url(#S)"/><path d="M380.5 188.38c-5.01-.71.02 3.53 1.63 1.28-.35-.98-.08-1.93-1.63-1.28zm-13.53 1.43c-4.73.85.4 1.19 1.78-.28l-.98.16-.8.12zm-7.34 3.16c-1.49 2.43.13 3.59 2.03 2.53-.36-.95-.94-2.83-2.03-2.53zm12.87.09c-1.37 1.84-1.21 4.35 1.75 3.03.42-1.6.66-3.15-1.75-3.03zm13.57.38c-3.05.67-1.55 5.52 1.75 2.97.89-2.28 1.16-3.16-1.75-2.97zm11.9 1.72c1.86 3.68 4.47-1.38 0 0zm-4.84-.54c-.62 1.61.88-.11 0 0zm-44.69.13c-4 .39.61 3.57.22.03-.01-.11.05-.32-.22-.03zm30.63.19c0 2.51 1.44-.68 0 0zm-38.38 4.94c-3.87.33 1.83 7.86 1.81 2.34.85-2.21 2.19-4.05-1.81-2.34zm25.88-.47c-4.96-.32-.75 5.7 2.37 3.97.81-.33-.76-5.65-2.37-3.97zm-14.38.62c-4.16 1.64 3.31 5.79 3.56 1.47 1.42-2.45-2.24-1.18-3.56-1.47zm53.59 0c-.72 2.73.35 1.16 0 0zm-13.65.09c-1.2 1.96-.92 5.93 1.97 3.88 1.7-2.1 1.11-4.22-1.97-3.88zm-14.5.47c-.23 2.67 3.22 5.71 3.97 2.13 1.38-2.9-2.75-2.28-3.97-2.13zm22.28.44c-.57 3.48 2.6-.77 0 0zm-39.19 4.19c-2.46.56-4.05 3.15-.75 4.25 2.56 2.68 4.11-1.45 1.56-3.22-.65.72-.29-1.35-.81-1.03zm25.06.62c-2.07 3.1.81 4.75 3.5 4.72-1.07-1.58-1.14-4.73-3.5-4.72zm-11.68.38c-1.98 1.23-5.06 3.69-.88 4.53 1.91-.35 2.35-3.99.88-4.53zm-38.94.37c-2.17.39-5.38 2.58-1.56 4.1 1.26 2.69 5.15-6.26 1.56-4.1zm11.66-.15c-.94 1.07-2.26 3.81.71 3.15 4.04 1.66 2.58-4.04-.71-3.15zm52 .62c-3.01-.02-.7 5.93 1.53 3.19 2.99-.49 1.87-5.56-1.53-3.19zM354.6 213c-2.63.99-3.17 5.44.47 4.84 1.54-1.63 3.79-6.28-.47-4.84zm23.93-.56c-2.23 1.89 1.73 6.45 2.35 2.53.82-2.3-.42-2.59-2.35-2.53zm-50.4.12c-1.44 2.43-2 6.13 1.47 3.28 2.04-1.24-.43-2.59-1.47-3.28zm38.62.03c-3.16 1.59.37 6.02 2.69 3.07 2.39-1.04-2.08-2.54-2.69-3.07zm-27.65.97c-1.34 1.07-.27 5.29 1.84 2.66 5.2-.82.3-4.17-1.84-2.66zm55-.09c-2.26.45-2.67 4.3.22 2.22 1.21-.58.2-1.55-.22-2.22zm-9.72 5.87c-.12 2.41 6.05-1.03.47-.68l-.47.68zm-23.22-.28c-3.12.44-3.22 5.62.16 5 2.07-1.15 2.74-5.1-.16-5zm12.87-.12c-2.74-.13-4.77 4.8-.85 4.08 2.55.16 1.94-3.34.85-4.08zm-27.31.72c-3.05.04-.84 6.26 2.09 4.6 2.17-1.21.53-5.04-2.09-4.6zm-14.53 1.84c-.32 1.5 5.89 2.41 3.53-.75-1.31-1.02-2.99-1.59-3.53.75z" fill="url(#R)"/></g></g><g transform="matrix(.69709 0 0 .69709 -224.36 -57.578)"><path d="M389.93 96.858c-.72-.031-1.5.056-2.47.25-5.17 1.035-6.19 16.562-4.13 26.902 2.07 10.35 13.44 20.72 23.79 22.79 10.34 2.06 20.69-9.34 19.65-11.41 0 0-11.37-24.82-22.75-31.03-9.25-5.046-10.99-7.367-14.09-7.502z" class="C"/><path d="M389.83 97.889a11.95 11.95 0 0 0-1.65.219c-.23.046-.44.146-.66.25l.35.594c.8 1.268.92 1.348 2.46 1.348h1.63l1.19-1.692c-1.13-.554-2.08-.791-3.32-.719zm-3.09 1c-1.45 1.311-2.43 4.081-2.97 7.501 1.03.05 1.92-.29 2.69-1.06.59-.59.98-1.48 1.19-2.63.28-1.62.23-1.81-.85-3.717l-.06-.094zm7.31.219l-1.37 1.812 1.47 3.19 1.47 3.15 1.59-.81c.87-.45 1.97-1.33 2.47-1.97.25-.32.59-.82.9-1.37l-6.53-4.002zm-3.65 1.842c-1.77 0-1.8.02-2.22 2.41l-.22 1.22 2.12-.69c1.16-.38 2.24-.82 2.41-.97.19-.17.14-.62-.09-1.12-.34-.73-.57-.85-2-.85zm2.31 2.85c-1.11.08-4.81 1.47-5.56 2.18-1.29 1.21-.97 3.52.81 6.03l1.06 1.5 1.41-.53c.77-.3 1.65-.76 1.94-1 .28-.24.94-1.31 1.46-2.4l.94-2-.78-1.72-1-2c-.04-.05-.12-.08-.28-.06zm9.97.5c-1.39.02-1.71.16-2.53 1.15l-.94 1.16.72 1.87c1.27 3.33 1.43 3.49 3.59 3.22l1.91-.28c.02-.03.36-.67.75-1.44.7-1.38.85-2.26.44-3.15-.01-.01 0-.03 0-.03-.86-.67-1.71-1.26-2.57-1.72l-1.37-.78zm-4.16 2.4c-.19.02-.61.17-1.12.38-1.16.47-2.96 2.04-2.66 2.34.13.13 3.45.67 4.63.75.53.04.51-.08-.1-1.62l-.65-1.82c0-.02-.04-.03-.1-.03zm-13.31.25c-.14 0-.32.05-.56.1-.49.09-.81.15-1 .28l-.32 3.25.94-.19c.71-.13 1.39-.32 1.5-.44s.12-.86.03-1.65c-.11-1.06-.16-1.35-.59-1.35zm22.56.85c-.04.04-.07.09-.09.15-.12.36-.14.74-.06.81.06.06.84.26 1.71.47l-1.56-1.43zm.35 1.84c-.97.05-1.91 2.09-1.91 4.31 0 1.62.76 4.66 1.31 5.28.2.23 2.42.77 3.56.88.22.02 1.26-.77 2.32-1.75l1.9-1.81-.9-.94c-.39-.41-.66-.92-.88-1.53l-3.4-4.03-1.82-.38c-.06-.01-.12-.03-.18-.03zm-12.85.62c-.61-.01-.77.25-1.28 1.25-.38.75-.76 2.35-.87 3.54-.19 2.03-.17 2.19.71 3.12 1.11 1.16 1.42 1.17 4.5.31l2.57-.84c.36-.37-.01-4.89-.47-5.78-.35-.68-.79-.96-1.72-1.1l-2.63-.4-.81-.1zm-9.84.66c-.31 0-.76.08-1.44.22l-.69.16c-.1 2.5-.01 5.13.22 7.65.26.09.48.16.6.16.74.02.97-.21 1.59-1.69.4-.95 1.12-2.07 1.59-2.47.78-.65.82-.82.44-1.53-.23-.43-.74-1.2-1.16-1.72-.46-.58-.63-.79-1.15-.78zm19.12 1.31l-1.43.19-1.54.19v1.37c.01.75.11 1.9.22 2.57l.19 1.21 1.78-1.15c1.75-1.16 1.78-1.24 1.78-2.81 0-1.33.04-1.64-1-1.57zm-12.22.72c-.83.16-3.58 1.41-4.09 1.91-.71.7-.88.58 2.13 1.59l1.81.6.22-2 .15-2.07c-.02-.02-.1-.05-.22-.03zm13.07 3.22l-1.66 1.28c-1.01.77-2.21 1.36-3.06 1.5l-1.41.25v2.53c0 1.97.17 2.77.69 3.63.37.61.84 1.05 1.06.97l2.72-.91c2.24-.73 3.81-1.72 3.81-2.44 0-.19-.29-1.12-.65-2.03s-.83-2.36-1.07-3.22l-.43-1.56zm-17.32.28c-.67-.02-.92.52-1.65 1.97-.81 1.6-.68 2.57.81 5.94l.78 1.78 1.44-.22 2.41-.37c.92-.16 1.09-.39 1.75-2.41.39-1.23.71-2.45.71-2.72 0-.91-2.22-2.65-4.4-3.44-.9-.32-1.44-.52-1.85-.53zm27.91 1c-.49.24-1.03.68-1.97 1.56l-1.9 1.82.62 1.72c.65 1.69.68 1.73 2.94 2.43 2.31.73 2.9.65 3.75-.37.21-.25.53-.46.78-.5l-4.22-6.66zm-17.62 1.81c-.64.05-2.74.73-3.04 1.04-.17.17-.34.78-.4 1.31-.1.89.04 1 1.72 1.69l1.81.75.09-2.35v-2.4c-.02-.03-.09-.04-.18-.04zm-14.22.6c-.2.02-.37.09-.53.19l.46 3.18.5-.06 1.35-.22-.47-1.59c-.41-1.44-.51-1.59-1.31-1.5zm23.47.34c-.58.02-.4.43.34 1.72.53.92 1.15 1.45 2.22 1.88 1.65.66 2.31.78 2.31.37 0-.15-.21-.97-.5-1.81-.55-1.61-.46-1.56-3.53-2.06l-.84-.1zm-12.94 2.97l-.35 1.19c-.29 1.09-.99 5.16-1 5.75 0 .83 4.1 1.05 6.04.31.69-.27.9-.56.9-1.28 0-.52-.4-1.75-.9-2.72-.81-1.57-1.13-1.83-2.82-2.5l-1.87-.75zm13.69.59l-.85.91c-.49.54-1 1.71-1.25 2.81-.39 1.77-.38 1.98.28 2.91.64.9.9.97 2.53.97 1 0 2.25-.22 2.79-.5.95-.49.96-.55.96-3.06v-2.57l-2.21-.75-2.25-.72zm-22.25.16l-1.88.09c.42 2.04 1.2 4.07 2.28 6.04.21-.47.38-.94.47-1.47.22-1.29.16-2-.28-3.16l-.59-1.5zm34.65 1.16l-.5.34-1.56 1.09.19 2.19c.24 2.66.97 3.46 2.84 3.19l2.5-.38-3.44-6.43c0-.01-.03 0-.03 0zm-15 .43c-.03-.03-1.17.29-2.53.72-2.45.79-2.46.82-2.37 1.91.14 1.82.28 1.98 1.46 1.75l1.97-.38c.78-.14.9-.36 1.19-2.03l.28-1.97zm8.06 0c-.26.04-.34.65-.34 2.5v2.66l1.25.13c.68.07 1.77.14 2.41.12l1.15-.03-.12-2.16c-.07-1.18-.28-2.25-.47-2.37s-1.03-.32-1.84-.44c-.82-.12-1.66-.31-1.91-.41-.05-.01-.09 0-.13 0zm-20.96.66c-.12-.11-4.6.56-4.75.72-.06.06-.17.85-.29 1.78l-.21 1.72h4.96l.19-2.06.1-2.16zm12.18 3.84l-2.47.5-3.4.85c-.88.34-.93.43-.72 1.75.25 1.56 1.3 3.97 1.97 4.53.36.3 2.77.79 4.75.97.25.02.98-.28 1.59-.66s1.1-.93 1.1-1.22c0-1.02-1.45-5-2.13-5.84l-.69-.88zm-15.15 1.07c-1.56.01-2.19.01-2.66.25 1.43 2.29 3.27 4.46 5.31 6.4.05-.05.1-.06.16-.12.86-.95 1.31-1.91 1.69-3.47l.5-2.13-1.16-.5c-.71-.29-2.18-.45-3.84-.43zm24.03.4c-.64.02-1.18.07-1.5.19-.79.3-.91.49-.72 1.28.25 1.06 2.04 5.95 2.34 6.44.12.19.89.24 1.88.12l2.22-.21c.3-.01.85-.72 1.31-1.69 1.02-2.18 1-4.48-.06-5.28-.7-.53-3.55-.9-5.47-.85zm-17.31.22c-.98 0-1.14.27-1.82 3.6-.2.97-.14 1.09.35.9.31-.12.95-.29 1.43-.4 1.51-.36 1.64-.63 1.29-2.44-.3-1.52-.4-1.66-1.25-1.66zm12.4.35l-1.81.09c0 .1 1.08 3.35 1.47 4.41.2.54 2.84-.88 2.84-1.54 0-.27-.15-1.06-.34-1.75-.35-1.23-.36-1.21-2.16-1.21zm15.56.12l-2.56.41c-1.08.15-1.24.29-1.22 1.06.05 1.67.46 2.16 2.32 2.72l1.78.56.37-1.62.28-1.16-.97-1.97zm-12.78 3.84l-2.43 1.66c-2.09 1.41-3.36 2.72-4.6 4.84-.15.27.53.94 2 1.91 2.52 1.66 2.3 1.56 3.69 1.28.75-.15 1.3-.6 2.03-1.75 1.22-1.9 1.25-2.84.16-5.72l-.85-2.22zm-13.78.1c-.98-.09-3.53 1.05-4.53 2.12-.06.07-.1.15-.16.22 2.35 2.11 4.96 3.9 7.66 5.22.52-.57.94-1.08.94-1.22 0-.34-3.12-5.74-3.6-6.22-.06-.06-.17-.11-.31-.12zm23.06.25l-.53 1.22c-.6 1.41-1.02 3.64-1.03 4.97 2.29-1.57 4.17-3.4 5.28-4.91l-1.68-.59-2.04-.69zm-20.59 2.22l.94 1.59c1.01 1.76 1.79 2.78 2.15 2.78.13 0 .77-.82 1.41-1.81l1.16-1.81-1.53-.19-2.82-.38-1.31-.18zm17.69 1.43l-1.69.13-2.34.22v1.12c0 1.03.1 1.13 1.25 1.32l1.75.28c1.43.3 1.54.21 1.72-1.38.09-.86.12-1.62.06-1.69-.03-.03-.31-.02-.75 0zm-3.6 3.44c-.73.09-1.07.55-1.78 1.69l-.31.53c1.74-.37 3.4-1.01 4.94-1.84l-.94-.19c-.89-.14-1.47-.24-1.91-.19zm-11.5.06c-.39.01-.73.21-1.15.6 1.69.76 3.4 1.35 5.09 1.69.08.01.17.01.25.03l-1-.69c-1.71-1.11-2.53-1.64-3.19-1.63zm8.32 2.35c-.56.08-1.1.14-1.66.15.56-.01 1.11-.08 1.66-.15z" fill="url(#Q)"/><path d="M395.44 101.13c3.03 3.58-.38-2.876 0 0zm-4.63 2.97c-3.14.02-3.75 2.67-1.75 4.63 1.71.89 4.34-4.85 1.75-4.63zm10.79.13c-1.98 2.03 2.25 5.44 2.68 1.59-.83-.56-1.79-1.27-2.68-1.59zm6.5 5.46c-1.27 2.53.19 8.58 3.43 5.07.72-1.55-2.21-4.22-3.43-5.07zm-12.85.63c-.92 1.78-1.55 6.44 2.06 4.09 2.66-.07.92-6.14-2.06-4.09zm-10.53 1.66c.9.3-.44-2.08 0 0zm2.97 5.21c-1.25 2.32 2.21 6.89 3.5 3.19 2.16-1.97-2.71-4.57-3.5-3.19zm15.94.29c-2.25.73-3.76 1.95-2.63 4.43 2.19-1.14 5.61-.39 2.63-4.43zm11.22.9c-3.56 1.7 4.39 4.5 1.15 1.38-.5.31-.59-2.09-1.15-1.38zm-19.35 5.5c-2.16 2.43 1.31 3.99 1.94 2.19-.35-.85-.94-2.39-1.94-2.19zm12.91.1c-1.48 1.92-1.03 4.4 1.87 3.03.23-1.98.35-2.91-1.87-3.03zm6.56 1.9c.08 3.08 1.61-.68 0 0zm5.66 1.94c.14.04-.19-.33 0 0zm-18.16 2.53c-4.15-.79-1.99 4.79.91 3.97 3.63 1.48.66-5.29-.91-3.97zm-11.81.91c2.01 3.12 1.41-1.87 0 0zm22.84.31c-.14 2.77 3.53 5.75 4.06 1.81 1.3-2.64-3.33-1.92-4.06-1.81zm-16.9 4.62c-1.73.29 2.96 2.55 0 0zm13.4.97c-1.91 1.19-5.15 3.73-.87 4.53 1.88-.34 2.34-4 .87-4.53z" fill="url(#P)"/></g><g class="D"><g transform="translate(-343.91 -74.404)"><path d="M565.88 158.66c-.01 0-4.78 11.03-6.57 7.15l-3.28-6.28s-2.38 6.88-7.15 9.56c-1.71.96-2.76 2.02-3.41 3 1.6.88 4.59 2.51 9.72 5.5 6.97 4.07 20.06 7.76 23.53 8.13 5.13.55 16.9-3.25 16.25-3.47l6.69.84c2.9-2.06 4.27-7.3 4.25-11.59-.06.04-.13.08-.19.12-.68.51-1.38 1.01-2.1 1.5-.31.22-.62.43-.93.63-.2.13-.41.26-.6.37-.18.12-.38.24-.56.35-.37.21-.72.4-1.06.56-.08.04-.17.09-.25.13-.25.11-.5.23-.72.31h-.03c-.03.01-.04.02-.06.03-.26.08-.51.14-.72.16-2 .2-3.99-2.43-5.81-4.44-.2-.22-.41-.43-.6-.63-.68-.71-1.35-1.27-1.97-1.5-.09-.03-.17-.05-.28-.06-.13-.01-.26-.02-.41 0h-.06c-.03.01-.06.03-.09.03-.13.03-.26.05-.41.1-.34.1-.74.26-1.15.46-.02.01-.05.03-.07.04-.14.07-.31.17-.46.25-.29.15-.57.29-.88.47l-2.41 1.34c-.09.05-.16.11-.25.16l-.59.31a37.98 37.98 0 0 1-1.69.84l-1.06.47c-1.21.49-2.43.89-3.69 1.03h-.09c-.12.04-.24.06-.34.03-.31.02-.61.04-.91.03h-.03c-.42 0-.82-.05-1.22-.12l-.28-.06c-.24-.05-.46-.12-.69-.19-.01-.01-.02-.03-.03-.03-.18-.06-.36-.12-.53-.19-.27-.11-.53-.21-.78-.34-.02-.01-.05-.02-.07-.04a8.51 8.51 0 0 1-.96-.59 12.58 12.58 0 0 1-.82-.62c-.06-.06-.12-.11-.18-.16-.25-.22-.47-.45-.69-.69a4.12 4.12 0 0 1-.28-.31c-.1-.11-.2-.2-.29-.31-.24-.31-.49-.61-.71-.94-.06-.08-.11-.17-.16-.25a17.06 17.06 0 0 1-.63-1.09c-.22-.43-.44-.87-.62-1.32a16.38 16.38 0 0 1-.47-1.34H566v-.03c-.05-.18-.08-.35-.12-.53-.03-.1-.08-.19-.1-.28-.03-.13-.04-.25-.06-.38-.03-.11-.04-.23-.06-.34-.15-.79-.23-1.56-.22-2.32 0-.13.02-.27.03-.4.01-.24 0-.49.03-.72l.06-.44c.04-.22.1-.44.16-.65.02-.07.01-.15.03-.22.05-.6.13-1.03.13-1.03zm39.5 8.9c-.02.02-.05.02-.07.03.04.09.09.17.13.25-.03-.09-.03-.19-.06-.28z" fill="url(#N)" filter="url(#L)" class="B"/><path d="M538.53 174.1c-.72.03-1.46.12-2.19.35-3.88 1.19-9.25 9.56-9.85 12.84-.28 1.56 1.06 2.97 2.54 4.03 4.72-3.18 10.17-7.11 11.34-8.78s2.1-5.05 2.72-7.72c-1.1-.37-2.76-.79-4.56-.72z" fill="url(#K)" filter="url(#L)" class="B"/></g><path d="M207.84 59.036c-1.57.06-9.48 1.21-10.5 3.25-1.16 2.32-7.26 28.73-11.91 36.28-1.3 2.12-4.37 4.26-8.09 6.25l-8.97 8.4s8.86-.93 16.41-5.24c2.06-3.45 5.16-7.18 7.65-7.94.24-.08.48-.11.72-.16 2.01-4.11.61-7 4.06-8.34 4.77-1.85 4.25 4.49 6.1 1.84.45-.65 1.77-.55 3.5-.03 3.54-3.13 5.31-8.22 5.31-8.22s1.49 2.4 3.28 6.28 6.56-7.15 6.57-7.15c0 0-.08.43-.13 1.03-.02.07-.01.15-.03.22-.05.17-.09.34-.13.53l-.03.12-.06.44v.12c-.02.2-.02.4-.03.6 0 .07-.03.14-.03.22-.01.06 0 .12 0 .18v.1c0 .72.08 1.46.22 2.22.02.11.03.23.06.34.02.13.03.25.06.38.02.09.07.18.1.28.04.18.07.35.12.53v.03h.03a16.38 16.38 0 0 0 .47 1.34c.18.45.4.89.62 1.32.19.35.38.69.6 1.03l.03.06c.05.08.1.17.16.25.01.02.04.04.06.06a11.77 11.77 0 0 0 .65.88c.09.11.19.2.29.31.04.05.08.11.12.16.05.05.11.1.16.15.22.24.44.47.69.69.03.03.08.06.12.09.02.02.04.05.06.07.07.06.15.1.22.15 1.15.93 2.46 1.64 3.94 1.91 6.56 1.19 13.71-6.27 16.09-5.38 2.39.9 5.39 6.86 8.38 6.57 1.68-.17 4.91-2.41 7.47-4.35-.04-.53-.08-1.02-.16-1.5-.92-5.26-6.95-10.11-11.91-12.78-3.25-1.75-8.55-3.52-14.12-4.97l-.44-.44-.53-.12c-5.74-1.44-14.22-.31-14.22-.31l-9.87-6.66-2.91-11.06c-.03-.01-.11-.04-.25-.03z" fill="url(#J)" filter="url(#I)" class="B"/></g><g transform="translate(-343.91 -74.404)"><path d="M578.81 151.75c-.07.16-.17.35-.31.59-.46.79-.87 1.09-1.34 1l-2.54-.43-.4-.1-.88.41.88.22c2.61.53 3.48.99 3.12 1.59-.14.24-.14.74 0 1.13.51 1.4.23 1.99-1.78 3.81-1.95 1.77-1.97 1.78-3.97 1.44l-2.03-.35-.65-2.87-.41-2.19c-.34.27-.64.56-.94.84l.35 1.57c.35 1.57.51 3.02.37 3.21-.64.9-2.04 2.38-2.62 2.82L566 166l.75.16c1.08.17 2.1.39 2.28.5.68.4.77 2.44.22 4.96l.59.6.63-2.41c.05-.01.86.62 1.75 1.38 1.44 1.22 1.58 1.48 1.28 2.31l-.25.72.69.19.47-1.38 1.21-.15c.8-.12 3.11.2 4.88.62l1.06-.47-3.87-.84c-.06-.04.34-.86.9-1.81 1.02-1.74 1.02-1.75 2.41-1.38.76.2 1.61.5 1.88.66.38.22.48 1.55.37 2.53l.84-.47-.09-1.75 2.5.41 1.41-.76c-1.5-.19-5.89-1.03-6.91-1.34-.87-.26-1-.45-.84-1.37.26-1.53 3.39-5.85 4.59-6.35 1.37-.56 3.61.73 5.13 2.94.67.99 1.04 1.93.87 2.22-.16.28-.61 1.29-1.03 2.25-.21.48-.46.88-.66 1.19.37-.11.7-.16.97-.13l.56-1.25c.61-1.31 1.19-2.41 1.29-2.44.09-.02.81.45 1.59 1.04 1.42 1.07 1.44 1.26.34 2.46l-1.28 1.47-.25.28.6.63c.22-.39.58-.85 1.09-1.47.84-1.01 1.77-1.92 2.09-2.03.36-.13 1.34.22 2.5.9 1.55.92 2.11 1.52 3.03 3.13l1.1 2 .93-.63-.78-1.56-.96-2.09c-.04-.08.82-1.12 1.9-2.31l.88-.88-.41-.66-1.59 1.66-1.44 1.63-1.91-1.13c-1.49-.88-1.83-1.2-1.5-1.47.24-.18 1.35-1.17 2.47-2.22l1.56-1.34-.53-.53c-1.29 1.42-5.08 4.42-5.62 4.44-.89.02-3.86-2.4-5.22-4.25l-.88-1.19 1.82-1.56 1.78-1.54 3.19.26-2-1.19h-.44c-.99-.09-1.44-.32-2.82-1.57 0 0-.02.01-.03 0l-1.93-.78 1.78 1.75 1.34 1.29-1.53 1.4c-1.59 1.46-2.33 1.59-3.97.69-.75-.42-.77-.65-.31-1.78l1.12-2.78.44-.97-.97-.35c.03.38-.1.79-.31 1.32l-1.09 2.65c-.8 1.95-2 2.18-4.69.91l-2.22-1.03-.16-2.13c-.13-1.84.01-2.29.91-3.5.07-.1.16-.2.25-.31l-.75-.22-.19-.03zm-.75 7.06c.23-.11 1.36.27 2.53.88l2.13 1.12-.63 1.13a25.53 25.53 0 0 1-1.43 2.25l-.85 1.12-2.56-1.53c-2.04-1.2-2.46-1.57-2.13-1.84.24-.19.9-.92 1.47-1.63.58-.71 1.25-1.38 1.47-1.5zm-8.18 3.03c.28.02.63.1 1.09.19.97.2 1.89.45 2.03.53.39.23-.08.82-1.66 2.03-1.01.79-1.9 1.08-3.09 1.07-2.21-.03-2.29-.13-1.25-1.38 1.67-2 2.02-2.49 2.88-2.44zm4.34 1l2.47 1.47c2.41 1.42 2.47 1.46 2.4 2.66-.03.67-.53 2.01-1.09 2.97-.93 1.57-1.18 1.77-2.41 1.87-1.26.11-1.46.01-2.93-1.37-.92-.86-1.73-2.01-1.97-2.78l-.41-1.35 1.97-1.72 1.97-1.75z" fill="url(#H)" class="B"/><g class="D"><path d="M580.84 179.97c-1.99.06-4.71 1.36-5.5 1.75 1.06-.42 3.19-.78 5-.75 2.73.04 5.24 1.66 7.32 2.22 1.33.35 4.52.4 5.12.65 1.61-.52 2.67-.93 2.47-1l1.06.13c0-.02.01-.04 0-.06l-7.62-1c-2.5-.46-4.91-1.66-6.94-1.85a3.27 3.27 0 0 0-.91-.09z" class="B C"/><path d="M580.48 180.62c-1.21 0-2.52.21-3.59.46l-1.38.63c1.06-.42 3.19-.78 5-.75 2.73.04 5.23 1.66 7.32 2.22 1.33.35 4.52.4 5.12.65 1.61-.52 2.67-.93 2.47-1l1.06.13c0-.02.01-.04 0-.06l-1.94-.22-1.56.56c-.6-.24-3.78-.2-5.12-.53-2.09-.52-4.65-2.11-7.38-2.09z" fill="#238223" filter="url(#G)" class="B"/><path d="M546.72 134.22c-2.45.55-4.93 1.39-5.47 2.47-.83 1.66-4.18 15.59-7.72 26.19 1.97 2.31 4.51 4.65 6 3.31 2.65-2.38 2.4-14.54 4.78-19.57 2.38-5.02 6.46-3.22 7.92-6.62 1.3-3.02-.3-5.09-5.51-5.78zm10.94 11.03c-.51 0-1 .05-1.5.09-1.01.12-1.99.41-2.97.66a8.55 8.55 0 0 0-1.28.47c-.46.2-.9.45-1.32.72-.4.26-.79.59-1.15.9-.34.3-.65.6-.94.94s-.53.73-.78 1.09c-.24.36-.47.7-.69 1.07-.21.35-.4.73-.59 1.09s-.36.73-.53 1.1c-.2.43-.41.86-.6 1.31-.22.53-.39 1.08-.59 1.62-.18.46-.37.92-.53 1.38l-.41 1.22c-.14.45-.27.92-.4 1.37l-.32 1.03 1.66-.31.28-1.03c.13-.45.29-.93.44-1.38l.4-1.21.5-1.38c.21-.54.4-1.06.63-1.59l.59-1.35.53-1.09a22.15 22.15 0 0 1 .6-1.06c.21-.37.44-.72.69-1.07.25-.36.49-.73.78-1.06a8.77 8.77 0 0 1 .93-.9c.37-.31.76-.63 1.16-.88a10.91 10.91 0 0 1 1.31-.69 8.64 8.64 0 0 1 .85-.31l-.38.06c.19-.04.02-.02.81-.22-.15.04-.29.11-.43.16.05-.01.14-.03.18-.03.5-.06.98-.1 1.47-.09l1.6-.63zm1.53 1.59a12.21 12.21 0 0 0-1.35.07c-.89.1-1.75.37-2.62.59-.39.11-.78.24-1.16.41-.4.18-.78.41-1.15.65-.36.23-.68.5-1 .78-.3.27-.59.58-.85.88-.25.3-.46.61-.68.94-.22.31-.47.64-.66.96-.18.32-.33.62-.5.94s-.32.64-.47.97c-.18.39-.37.79-.53 1.19-.2.47-.35.96-.53 1.44-.16.4-.33.8-.47 1.22-.13.36-.23.75-.34 1.12l-.38 1.19c-.09.3-.2.6-.28.9l1.47-.28.25-.9c.12-.41.24-.79.37-1.19.12-.37.25-.73.38-1.1l.43-1.24.57-1.41c.17-.39.34-.8.53-1.19.15-.33.3-.65.47-.97a17.11 17.11 0 0 1 .53-.93c.19-.33.38-.66.59-.97a11.44 11.44 0 0 1 .75-.94c.26-.3.52-.56.82-.81.32-.28.64-.53 1-.75.37-.24.75-.49 1.15-.66.22-.09.46-.17.69-.25l-.34.06c.12-.03.01-.02.81-.22-.17.05-.31.1-.47.16l.25-.03c.44-.05.87-.1 1.31-.09l1.41-.54zm2.56 1.1c-.42 0-.8.02-1.22.06-.84.1-1.68.36-2.5.56-.37.11-.71.26-1.06.41a8.14 8.14 0 0 0-1.09.59c-.34.22-.64.49-.94.75-.28.25-.54.53-.78.81a11.21 11.21 0 0 0-.66.88 14.18 14.18 0 0 0-.59.91c-.18.29-.35.6-.5.9-.16.3-.3.6-.44.91-.17.36-.32.72-.47 1.09l-.53 1.35-.44 1.15c-.12.34-.2.69-.31 1.03l-.34 1.13-.26.87 1.38-.25c.08-.28.13-.58.22-.87.11-.38.25-.75.37-1.13l.35-1.03c.13-.38.23-.77.37-1.15.17-.45.38-.91.57-1.35.15-.37.32-.73.5-1.09.14-.31.28-.61.43-.91.16-.3.3-.58.47-.87a10.99 10.99 0 0 1 .6-.91c.21-.3.41-.6.65-.87a9.69 9.69 0 0 1 .78-.79c.3-.25.63-.5.97-.71.35-.22.71-.44 1.1-.6.17-.07.32-.12.5-.19-.08.02-.12-.01-.19 0 .12-.02.01 0 .75-.18-.16.04-.35.1-.5.15.09-.01.21-.05.28-.06.41-.05.8-.07 1.22-.06l1.31-.53zm2.25 1.59l-1.28.09c-.06.01-.1.03-.16.04-.77.19-.53.13-.12 0-.19.02-.37.05-.56.06-.81.09-1.64.27-2.38.62-.31.16-.62.34-.91.54-.32.22-.62.44-.9.71a9.26 9.26 0 0 0-.78.88c-.25.32-.48.65-.69 1-.26.42-.49.84-.72 1.28-.21.42-.43.85-.62 1.28-.19.42-.36.83-.54 1.25-.15.4-.32.79-.46 1.19-.14.36-.26.73-.38 1.09l-.38 1.16-.43 1.47 1.53-.31c.13-.49.25-.96.4-1.44l.38-1.16c.12-.36.24-.74.38-1.09.14-.4.31-.8.46-1.19.17-.42.35-.83.54-1.25s.41-.84.62-1.25c.23-.44.46-.86.72-1.28.21-.34.44-.65.69-.97.24-.3.53-.58.81-.84.28-.27.58-.51.9-.72.24-.16.5-.28.76-.41-.14.02-.3.02-.44.03-.54.09-1.41.32 1-.28.07-.02-.12.03-.28.09-.05.02-.08.05-.13.07s-.1.07-.15.09a7.08 7.08 0 0 0 .9-.16c.76-.15 1.49-.33 2.22-.59zm1.72 1.47a6.98 6.98 0 0 1-.63.12h.22c.21-.05.06-.03.41-.12zm-.41.12c-1.13.3-.68.15-.25 0-.19.03-.36.06-.56.07-.77.09-1.57.26-2.28.59-.3.15-.6.31-.88.5-.3.21-.6.46-.87.72s-.52.51-.75.81a10.36 10.36 0 0 0-.66.97c-.24.41-.47.83-.68 1.25-.21.4-.42.78-.6 1.19-.18.4-.33.81-.5 1.22-.15.38-.33.77-.47 1.15l-.34 1.03-.38 1.13c-.14.46-.25.92-.4 1.37l1.43-.28c.13-.46.3-.91.44-1.37.12-.37.22-.76.35-1.13l.34-1.03c.14-.38.32-.78.47-1.15.16-.41.32-.79.5-1.19.18-.41.39-.82.59-1.22.22-.42.44-.82.69-1.22.2-.33.45-.63.69-.94.23-.29.48-.56.75-.81s.56-.48.87-.69a6.3 6.3 0 0 1 .72-.4c-.14.01-.27.05-.41.06.17-.04.19-.06.69-.19l-.12.06c-.05.03-.11.04-.16.07.29-.04.56-.07.85-.13.72-.15 1.45-.31 2.15-.56l-1.22.12z" fill="url(#F)" filter="url(#E)" opacity=".499" class="B"/></g></g><g transform="matrix(.7686 0 0 .7686 -28.826 -309.12)" class="D"><g fill="#73d216" stroke="#4e9a06"><path d="m106.84 447.64c-7.406 4.82-11.37 12.25-10.509 17.94-5.37 6.72-6.25 16.91-4.803 25.81 0 6.13 5.687 14.88 10.502 19.69 4.08 5.76 10.03 12.89 19.25 17.5 3.79 4.13 8.48 7.96 15.75 10.94 4.45 6.46 14.91 9.41 24.06 11.37 6.71 4.77 14.29 6.46 22.75 7 4.65 2.2 11.11 3.2 19.25 3.06 13.76 2.56 26.79 1.52 39.38-1.75 6.77-1.86 13.04-3.97 17.5-7 15.61-6.32 25.08-18.75 28.87-28.87 4.68-16.19 4.55-29.44 11.52-37.01 8.49-9.22 21.94-5.36 15.18-18.34 0 0-35.92-41.47-91.85-44.19-55.91-2.72-80.97 5.04-80.97 5.04-7.06 1.58-15.87 3.77-19.69 9.62-8.52 1.06-14.52 4.9-16.19 9.19z" class="E"/><g class="E"><path d="M134.853 518.758c7.052-20.42 15.016-33.02 23.607-45.74 8.852-4.52 17.704-7.47 26.557-8.85 4.97 6.04 8.691 11.57 12.098 19.18-6.492 20.31-14.459 35.29-21.541 53.41-17.137 2.61-35.483-11.22-40.721-18z"/><path d="M228.308 425.738l-2.27.08c-19.692 6.8-33.642 19.35-40.633 38.85 4.772 5.85 8.381 11.27 11.697 18.68l-.219.7c10.062-7.2 19.246-12.3 27.366-15.46 6.153-10.61 12.272-19.57 28.062-31.29-3.026-3.15-6.231-6.28-10.038-9.43-3.936-1.79-8.758-2.24-13.966-2.13h.001z"/><path d="M197.756 424.378c-3.724-.02-7.701.08-12.133.26-24.095 3.91-31.361 23.6-35.701 32.17 3.434 3.96 6.471 9.66 9.034 15.97 8.694-4.38 17.362-7.24 26.056-8.59l.393.48c6.991-19.5 20.941-32.05 40.633-38.85.189-.01.378.01.568 0-9.281-.56-17.798-1.38-28.85-1.44z"/><path d="M150.14 456.368c-14.975 7.73-28.957 17.41-40.066 32.87-1.633 9.48 13.717 28.51 24.834 29.55-.012-.02-.032-.03-.044-.05 7.052-20.41 15.021-33.02 23.612-45.74.158-.08.322-.14.48-.22-2.563-6.31-5.6-12.01-9.034-15.97l.218-.44z"/><path d="M154.243 428.488c-4.42.13-9.283 1.24-15.538 4.71-31.958 20.85-31.839 40.92-28.544 55.91 11.094-15.39 25.046-25.03 39.979-32.74 3.283-6.58 8.25-19.02 20.644-26.44-5.974-.2-10.887-1.61-16.541-1.44z"/><path d="M175.759 424.028c-1.005-.01-2 .02-2.967.05-8.515.27-15.605 1.96-21.692 4.67 1.081-.16 2.121-.23 3.143-.26 5.654-.17 10.567 1.24 16.541 1.44 4.007-2.4 8.79-4.27 14.534-5.24v-.05c-3.365-.36-6.543-.58-9.559-.61zm48.315 44.65c-8.075 3.16-17.201 8.22-27.19 15.37-6.418 19.85-14.239 34.67-21.212 52.46 8.782 11.22 20.352 19.28 45.653 11.74 1.949-18.76 4.838-37.16 15.319-52.81l-12.57-26.76z"/><path d="M262.7 436.468c-3.815 0-7.418.39-11.086 1.36-15.261 11.45-21.305 20.31-27.365 30.76-.059.03-.115.07-.175.09 3.734 8.38 7.916 17.2 12.308 26.23 8.078-7.73 16.207-15.84 23.568-19.24 5.737-7.5 8.615-14.18 22.434-23.88.432-2.38.353-5.78 0-9.73-2.842-1.87-5.207-3.9-10.3-5.02-3.355-.33-6.443-.57-9.384-.57z"/><path d="M242.449 428.048c3.722 3.09 6.889 6.16 9.863 9.25-.231.17-.427.35-.654.53 3.654-.97 7.241-1.36 11.042-1.36 2.477 0 5.099.19 7.856.44-9.623-4.51-18.985-7.36-28.107-8.86zm44.517 23.13c-1.628.03-3.06.19-4.539.35l-.043.26c-13.493 9.47-16.564 16.07-22.041 23.35 1.468 11.56 4.907 24.79 10.562 35.05 4.084-2.42 7.611-3.17 10.911-3.23-.472-12.68 1.674-36.46 32.164-39.85-5.16-4.93-10.036-10.42-15.928-13.88-4.951-1.75-8.301-2.11-11.086-2.05z"/><path d="M282.035 441.838l.349.22c.341 3.82.428 7.1.043 9.47l4.539-.35c2.64-.05 5.806.27 10.344 1.79-4.428-4.6-9.285-8.61-15.275-11.13zm-21.692 33.3l-.393.53c-7.361 3.4-15.49 11.51-23.568 19.24l.262.53c-1.31 1.95-2.493 3.94-3.579 5.98-.542 1.01-1.036 2.02-1.527 3.05-.275.58-.527 1.16-.786 1.75-.207.46-.457.92-.655 1.39-.005.02.005.03 0 .05-.437 1.04-.828 2.08-1.222 3.14-.006.02-.037.03-.043.04-.392 1.05-.74 2.12-1.092 3.19l-.742 2.27-.305 1c-.004.02.004.03 0 .05l-.917 3.23c-.007.02.007.06 0 .08l-.785 3.28c-.006.02.006.06 0 .08l-.699 3.28-.305 1.57-.349 1.83c-.008.04.007.09 0 .13l-.568 3.32c-.006.04.007.09 0 .13l-.96 6.81c-.005.04.006.09 0 .13l-.785 6.85c11.488 2.09 23.355 5.14 39.804-8.64 1.293-8.75 6.51-20.01 11.26-30.07-.483.25-.985.53-1.484.83-5.655-10.26-9.094-23.49-10.562-35.05z"/><path d="M281.598 506.958c-2.834.08-5.826.67-9.209 2.4-4.593 9.73-9.59 20.58-11.086 29.2 12.198-6.73 22.122-15.06 20.295-31.6z"/></g><g stroke-width="1.396"><path d="M123.524 437.735l-.48.693c-8.279 1.03-14.161 4.715-16.017 8.86 4.763.285 9.241.764 12.875 1.794 2.218-2.578 4.86-5.182 7.943-7.818-1.442-1.593-2.88-2.656-4.321-3.53z"/><path d="M107.419 446.504a7.9 7.9 0 0 0-.393.784l.393-.784zm-.393.784l-.175.35c-7.147 4.65-11.066 11.723-10.561 17.326 4.119-1.742 8.571-2.694 15.187-2.267 1.733-4.398 4.421-8.964 8.423-13.614-3.634-1.03-8.112-1.509-12.875-1.794zm36.88-18.809l-1.178.35c-6.766 1.516-15.153 3.575-19.204 8.906 1.44.874 2.879 1.937 4.321 3.53 3.132-2.668 6.715-5.363 10.868-8.07 2.726-1.516 5.187-2.545 7.463-3.277l-2.226-1.438h-.043z"/><path d="M106.895 462.612a29.17 29.17 0 0 0-10.604 2.351l.045.615c-5.227 6.535-6.172 16.335-4.89 25.053 6.354-5.318 12.136-4.696 18.024-5.324-1.109-6.788-1.219-14.424 2.008-22.611-1.654-.104-3.17-.142-4.583-.084z"/><path d="M109.47 485.307c-5.888.628-11.67.006-18.024 5.324.032.246.045.492.084.738 0 6.127 5.706 14.871 10.52 19.683.26.369.552.758.829 1.14 2.064-4.761 5.219-7.753 12.046-8.776-3.422-5.084-5.498-10.389-4.845-14.184l.087-.13c-.269-1.224-.487-2.507-.698-3.795z"/><path d="M114.925 503.417c-6.827 1.023-9.982 4.016-12.046 8.776 3.847 5.259 9.228 11.412 17.152 15.706 1.17-4.903 3.31-9.573 6.983-12.261-4.485-2.902-8.877-7.448-12.09-12.222z"/><path d="M127.015 515.639c-3.674 2.688-5.814 7.358-6.983 12.261.415.227.837.44 1.266.661 3.792 4.132 8.484 7.98 15.756 10.952.124.181.259.35.393.525 1.289-3.394 2.384-6.367 9.733-10.868-5.652-3.549-10.074-7.571-12.264-10.389-2.498-.233-5.215-1.405-7.9-3.141z"/><path d="M147.179 529.169c-7.349 4.501-8.444 7.474-9.733 10.868 4.63 6.088 14.69 8.958 23.568 10.868-.054-4.722 2.488-9.728 6.765-14.01-7.443-.79-14.682-4.009-20.6-7.727z"/><path d="M175.679 536.501c-.034.084-.054.175-.087.259-2.753.421-5.532.389-8.292.045.16.019.319.071.48.091-4.277 4.281-6.819 9.288-6.765 14.01.027.006.06-.006.088 0 6.709 4.761 14.28 6.438 22.739 6.982a23.05 23.05 0 0 0 1.309.563c-.675-3.88.994-7.869 3.492-10.648-5.273-2.681-9.371-6.71-12.962-11.302h0z"/><path d="M188.642 547.803c-2.497 2.779-4.167 6.768-3.492 10.648 4.525 1.814 10.521 2.61 17.938 2.494l.916.168c-1.637-3.692-.3-6.885 1.571-9.994-6.899.311-12.364-.984-16.934-3.316z"/><path d="M221.332 548.069c-.006.058.006.117 0 .175-5.976 1.781-11.172 2.668-15.756 2.876-1.871 3.109-3.208 6.302-1.571 9.994 13.414 2.345 26.144 1.282 38.45-1.917.803-.22 1.567-.466 2.358-.7.602-3.724.499-7.047-.7-9.689-8.407 2.202-15.664.557-22.781-.738z"/><path d="M260.526 539.908c-6.011 4.909-11.419 7.597-16.412 8.899 1.198 2.643 1.302 5.965.7 9.689 5.849-1.697 11.218-3.621 15.143-6.283.227-.091.434-.214.654-.304 1.153-4.022.978-7.973-.084-12.002z"/><path d="M281.608 506.999c1.801 16.516-8.109 24.832-20.299 31.555-.052.291-.13.583-.175.868-.201.175-.408.317-.609.486 1.062 4.029 1.237 7.98.084 12.002 15.214-6.406 24.496-18.621 28.239-28.589.304-1.043.563-2.086.829-3.102-1.872-6.127-4.657-10.013-8.07-13.219z"/><path d="M313.817 466.932c.058.052.11.117.175.175-30.493 3.387-32.644 27.164-32.171 39.846a20.28 20.28 0 0 0-.874.045l.79 1.613-.13-1.613c3.413 3.206 6.198 7.092 8.07 13.219 3.847-14.78 4.165-26.827 10.693-33.907 8.491-9.217 21.944-5.35 15.188-18.336l-.434-.479-1.308-.563z"/></g></g><path d="M122.952 439.557c-3.806.57-7.626 1.632-10.728 4.029 2.288 0 5.047 1.179 7.044.79 1.159-1.71 4.236-3.355 4.453-4.916l-.642.084-.127.013zm-15.08 9.048c-3.916 2.636-7.306 6.406-8.605 11.069 3.409-.952 6.967-1.269 10.508-1.153 1.483-3.271 3.374-6.367 5.485-9.288-2.427-.389-4.946-.771-7.388-.628zm24.026-15.382c-1.307.81-4.283 1.736-4.028 3.018 1.225-.052 2.737-2.461 4.21-3.096l-.182.078zm-24.814 30.48c-4.083.188-9.52.557-10.789 5.285-2.351 4.728-3.044 10.292-2.63 15.467 3.919-2.118 8.449-2.792 12.872-3.038-.717-5.965-.375-12.034 1.376-17.734l-.648.019h-.182zm-.568 22.935c-4.289.272-8.939.836-12.327 3.744.725 5.978 4.365 11.224 8.239 15.726 1.75-3.044 5.767-4.806 8.218-6.172-2.27-4.048-3.513-8.673-3.36-13.336l-.647.032-.122.006zm7.004 18.155c-3.076.648-7.013 2.908-7.347 5.952 3.506 4.391 7.38 8.783 12.347 11.6.997-2.889 2.415-5.661 4.433-7.98-3.665-2.584-6.549-6.464-9.432-9.573zm13.358 12.973c-1.74 2.157-3.735 5.253-3.582 7.837 3.831 3.672 8.117 7.144 12.893 9.249 1.378-2.921 3.752-5.279 6.295-7.17-3.662-2.247-6.255-6.062-9.918-8.174-1.961-.065-4.069-2.396-5.687-1.742zm19.856 13.277c-2.626 1.729-5.102 3.938-6.315 6.943 4.81 4.689 12.284 7.099 18.358 7.934.68-3.174 2.121-6.134 4.068-8.724-5.531-1.295-10.759-3.608-15.646-6.477l-.466.324h0zm27.729 7.047c-2.586.24-6.454-1.017-7.549 2.306-1.559 2.267-3.109 4.909-3.138 7.669 5.546 3.634 12.156 5.11 18.702 5.609.231-2.338 1.24-4.508 2.307-6.581-3.986-2.325-7.094-6.114-10.322-9.003h0zm14.897 11.555c-.865 1.574-2.165 3.802-1.559 5.486 4.065 1.25 8.652 1.762 12.833 1.619-.626-1.535 2.082-4.858-.425-4.612-3.717-.233-7.48-1.354-10.849-2.494zm31.595-.123c-4.466 1.522-9.537 1.95-13.945 2.856-.717 1.451-2.534 5.499.546 5.182 11.62 1.529 23.581.596 34.877-2.571-.194-1.295 1.341-5.654-1.477-4.352-6.704 1.114-13.405-.654-20.001-1.114zm37.404-6.127c-3.277 2.5-7.785 3.899-10.829 6.127.531 1.613-.784 5.194 2.066 3.238 3.057-1.289 6.917-2.131 8.925-4.735.078-1.25.803-4.56-.162-4.631zm25.927-30.422c-1.231 11.645-10.68 20.577-20.584 25.785-.939 1.542.771 3.724.304 5.544-.842 3.167 2.021.155 3.219-.304 9.113-5.907 17.099-14.884 19.651-25.5-.602-1.794-1.665-4.443-2.591-5.525zm28.583-44.613c-12.112.913-24.36 9.385-26.963 21.736-1.237 4.754-1.833 9.89-1.334 14.696 1.71 1.71 3.18 3.653 4.411 5.751 2.254-11.024 3.498-24.36 13.686-31.089 3.692-2.636 9.191-3.148 12.06-6.762.168-1.386-.285-4.301-1.859-4.333zm-131.85-1.332c-9.123 2.45-20.45 4.35-24.456 14.21-6.898 10.93-13.392 22.44-16.857 34.94 8.8 8.49 20.458 15.28 33.063 14.79 6.408-16.75 15.378-32.59 19.781-49.91-2.661-5.09-5.282-10.36-9.406-14.47l-2.125.44zm47.656-39.28c-17.44 3.97-32.5 17.54-38.656 34.28 3.367 4.26 6.364 8.86 8.844 13.68 7.291-5.37 16.142-8.52 23.406-13.65 6.1-10.67 14.465-19.78 24.063-27.25-4.552-5.37-10.578-8.1-17.656-7.06h0zm-38.969-1.5c-15.287.51-28.135 11.84-33.893 25.45-3.333 3.43 2.246 5.89 2.966 9.21 1.263 3.02 2.362 5.69 5.725 2.92 5.848-2.7 12.755-3.69 18.452-5.9 5.237-13.08 14.896-24.06 27-31.15-6.746-.43-13.504-.37-20.25-.53zm-43.031 34.53c-12.506 7.2-24.971 16.13-32.594 28.53 1.79 9.98 9.93 18.6 18.531 22.66 4.51-15.11 13.041-28.8 21.688-41.91-1.588-3.71-3.359-7.17-5.656-10.38l-1.969 1.1zm7.125-30.22c-15.289 1.65-26.936 13.72-35.594 25.5a37.39 37.39 0 0 0-5.437 21.37c9.432-10.86 21.535-19.31 34.281-25.96 3.568-7.4 7.519-14.86 13.5-20.6-2.232-.28-4.503-.5-6.75-.31zm65.781 42.56c-6.845 3.68-15.407 6.89-19.937 13.35-5.312 16.22-13.39 31.66-19.25 47.62 7.56 10.07 21.584 13.26 33.312 9.94 2.436-.01 5.204-.66 4.244-3.75 1.934-16.32 5.197-33.01 14.131-47.07l-10-21.31-2.5 1.22zm39.219-34.69c-9.804 1.31-15.918 10.39-22.312 17.04-2.534 3.9-7.122 8.04-7.484 12.49l8.577 18.16c6.378-6.76 14.495-11.72 21.219-17.78 5.239-8.28 12.652-15.19 19.844-21.37.993-3.4-.65-6.44-4.094-7-4.977-1.95-10.489-1.27-15.75-1.54zm28.25 14.69c-8.002 1.28-12.605 9.14-17.875 14.53-3.435 3.45-5.882 8.08-3.563 12.91 1.696 7.33 3.445 16.31 7.469 22 2.707-.6 6.011-.63 4.688-4.44.39-15.85 10.895-31.85 26.937-35.31 1.724-1.28-3.65-4.12-5.218-5.72-3.608-2.6-7.951-4.3-12.438-3.97zm-31.562 28.13c-11.461 7.74-20.492 18.91-24.074 32.47-3.094 9.44-4.87 19.29-5.458 29.25 10.861 2.4 23.953.26 31.469-8.29 1.99-8.92 6.205-17.31 9.406-25.62-4.753-9.09-7.651-19.07-9.5-29.16l-1.843 1.35zm22.124 28.15c-5.263 2.13-4.917 9.35-7.824 13.55-2.353 4.34-1.924 5.81 1.574 1.58 3.696-4.02 6.961-9.8 6.25-15.13z" fill="#8ae234"/><g fill="url(#D)"><path d="M178.782 469.18c-8.641 1.65-17.403 5.69-20.406 14.37-5.576 9.12-10.723 18.54-13.968 28.81 7.12 6.4 16.153 11.55 25.843 12.04 5.885-15.31 14.144-29.65 18.094-45.47-2.616-3.12-3.806-12.33-9.563-9.75z"/><path d="M231.158 428.99c-16.097 2.7-30.077 14.94-36.407 29.81 2.193 2.41 3.894 6.65 5.969 8.28 8.129-4.9 18.574-7.55 22.919-16.94 4.615-6.86 11.255-12.72 16.519-18.4-2.533-1.9-5.768-2.94-9-2.75z"/><path d="M188.845 427.74c-13.299.96-24.893 11.68-29.437 23.69 2.184 2.07 2.725 7.96 6.343 5.03 4.712-2.12 10.573-1.99 14.657-5 4.119-9.07 10.296-17.28 17.781-23.66l-9.344-.06z"/><path d="M146.626 462.99c-10.791 6.48-21.262 13.98-28.094 24.62 1.729 6.37 6.732 12.89 12.063 15.6 4.495-13.02 12.316-24.55 19.125-36.38-.909-1.03-1.29-5.28-3.094-3.84z"/><path d="M151.626 432.49c-14.761 3.53-26.286 15.87-32.718 29.09-2.303 5.15 3.737-2.32 5.656-3.03 6.069-5.27 13.857-8.68 20.034-13.4 2.144-4.42 4.543-8.74 7.372-12.72l-.344.06z"/><path d="M220.064 474.93c-7.821 3.73-17.601 7.72-18.969 17.34-4.797 13.07-11.157 25.56-15.937 38.56 7.116 7.81 19.733 9.57 29.281 6.38 1.244-16.29 5.027-32.56 13.25-46.75-2.589-5.06-4.879-11.08-7.625-15.53z"/><path d="M260.595 439.93c-12.27 1.45-18.521 13.92-26 22.28-3.462 3.69 1.71 6.45 2.25 10.03.859 1.85 1.382 6.75 3.706 3.2 8.034-6.23 16.544-12.36 22.044-21.11 3.603-4.52 9.31-8.01 12.156-12.62-3.998-2.29-9.7-1.43-14.156-1.78z"/><path d="M288.064 454.52c-8.731 2.26-13.533 10.99-18.75 17.53-1.056 6.07 2.857 11.83 3.625 17.81.583 1.82.975 4.14 1.312 1.04 1.707-13.9 10.787-26.78 23.531-32.76-2.82-2.06-6.127-3.8-9.718-3.62z"/><path d="M254.532 484.36c-16.46 12.03-22.715 33.36-23.968 52.69 8.484.75 19.86-.44 23.937-8.97 2-7.35 5.328-14.31 8.125-21.37-3.841-6.93-5.531-15.3-8.094-22.35z"/></g><path d="M314.72 470.97c-2.21 3.85-10.52 3.95-16.44 10.37-6.07 6.6-6.77 17.5-9.93 30.91.95 1.12 1.48.52 1.75-2.97 1.93-11.17 4.62-24.94 16.34-29.72 3.23-1.77 11.09-2.86 8.44-8.25-.06-.09-.11-.22-.16-.34zM109 516.53c3.01 3.37 6.44 6.52 9.88 8.03l.34-.94-.03-.03c-3.96-1.98-7.32-4.45-10.19-7.06zm177.82 1.66c-.02.05-.02.1-.04.15-3.33 8.89-11.06 19.54-23.46 26.28.14 1.28.24 2.56 0 3.82 11.17-5.92 21.53-16.24 24.09-28.72-.14-.43-.37-.97-.59-1.53zm-163.94 9c.27.83.9 1.6 2.03 2.22 3.33 2.91 7.93 6.9 11.78 7.18-.65-.65-1.24-1.32-1.75-2.06-5.1-2.08-8.92-4.61-12.06-7.34zm17.31 12.12a3.37 3.37 0 0 0 .09.94c5.19 4.79 12.21 6.54 18.91 8.19a16.3 16.3 0 0 1 .44-2.1c-.22-.14-.41-.28-.63-.43-6.48-1.4-13.61-3.31-18.81-6.6zm119.28 7.22l-1.56.69c-2.95 2-6.71 3.57-10.88 4.97.09 2.14-.34 4.56 2.41 2.75 4.06-1.76 10.75-2.85 10.03-8.41zm-96.19 1.91c-.08 1.42.52 2.59 2.63 3.06 5.12 2.59 12.06 4.53 17.16 3.87-.12-.6-.01-1.22.18-1.84a26.01 26.01 0 0 1-1.5-.62c-6.71-.43-12.86-1.63-18.47-4.47zm79.91 4.97l-2.81.81c-11.26 2.92-22.87 4.05-35.03 2.44-.34 1.88.08 3.64 2.65 3.03 11.73 1.54 23.66.46 35-2.75.16-1.1.3-2.43.19-3.53zm-56 1.31c-.34 1.88.24 3.49 3.13 3.22 3.4.44 8.32 1.6 10.96.59-.35-.67-.13-1.59.16-2.5-.15-.03-.29-.04-.44-.06-5.34.08-9.95-.35-13.81-1.25z" fill="url(#C)"/></g><path d="M173.05 115.845c-5.85.25-12.1 3.57-12.65 3.85 0 0-15.01 18.39-16.72 25.25-1.71 6.85-3 14.56-3 14.56s-6.4 6.43-8.97 10.28-4.28 7.69-4.28 7.69-8.58 5.14-10.72 11.56-3.41 6.44-2.12 8.16c1.28 1.71 17.54-2.58 31.25-12 13.7-9.43 32.54-19.69 37.25-35.54 4.71-15.84 3.84-22.69-1.72-30.4-1.74-2.41-4.36-3.32-7.16-3.41-.39-.01-.77-.02-1.16 0z" class="C"/><g transform="translate(-399.16 -58.155)" fill="url(#A)"><path d="M571.37 176.6c-.63.02-1.28.09-1.91.18l1.29 1.19 1.4 1.34c.01.01.65-.2 1.44-.46.78-.27 1.98-.86 2.66-1.32.05-.03.07-.06.12-.09-1.2-.55-2.53-.8-3.91-.84a9.91 9.91 0 0 0-1.09 0zm-2.94.78c-.14-.02-.27 0-.43.03l-2 .31c-1.73.26-2.34 1.09-2.69 3.5-.48 3.29-.7 2.97 2.37 3.47.81.13 1.18.37 1.5 1l.44.84 1.75-1.18c1.69-1.17 1.73-1.23 1.91-2.82l.31-2.09c.08-.28-.45-.97-1.34-1.81-.9-.84-1.37-1.19-1.82-1.25zm8.82.56l-.5.37c-.96.78-1.25 1.25-1.54 2.5l-.5 2.19c-.14.55 0 .66 1.1.91 2.28.51 3.63.41 4.31-.31.26-.28.59-.67.91-1.1l-1.75-2.69c-.58-.79-1.28-1.39-2.03-1.87zm-14.6.78l-2.59 1.16c.18.17.34.31.4.31.18 0 1.02-.54 1.88-1.19.12-.09.21-.19.31-.28zm12.47.56l-.91.19c-2.13.43-2.05.31-2.37 3.16l-.19 1.68 1.1-.18 1.15-.28c.03-.03.31-1.07.63-2.32l.59-2.25zm-12.47.35c-.54.18-2.28 1.43-2.28 1.68 0 .14.45.78.97 1.41l.94 1.16.31-2.07c.18-1.13.28-2.12.22-2.18-.02-.03-.08-.03-.16 0zm-3.4.75l-4.38 5.59c.22.03.51 0 .88 0h1.4l1.47-2.06 1.47-2.06-.59-1.07-.25-.4zm1.37 2.4l-1.44 1.88-1.4 1.87 1.28 2.78 1.31 2.79 1.38-.72c.76-.4 1.75-1.17 2.18-1.72.44-.56 1.11-1.75 1.5-2.63l.69-1.59-.75-.16-1.91-.31c-.76-.13-1.36-.5-1.96-1.19l-.88-1zm20.91.69c-.23.15-.4.38-.66.69-.82.97-.84 1-.5 2.78.53 2.78.52 2.74 2 3.06l1.25.31a19.54 19.54 0 0 0-2.09-6.84zm-8.32 1.19c-1.08.1-2.09.53-3.34 1.37-.92.62-1.66 1.19-1.66 1.25 0 .54.81 1.95 1.69 2.97l1.06 1.22 2.04-.16c1.63-.12 2.13-.27 2.53-.78.27-.35.63-1.49.81-2.53l.44-2.34c.11-.39-.17-.55-1.44-.81-.8-.17-1.47-.25-2.13-.19zm5.29.47c-.81 0-1.04.13-1.16.65l-.72 3.6c0 .25.55.37 1.84.37h1.85l-.38-2.09-.4-2.31c0-.12-.48-.22-1.03-.22zm-11.72.56c-.12 0-.48.62-.78 1.37l-.63 1.6c-.05.12.49.22 1.22.22.85 0 1.34-.12 1.34-.35 0-.56-.92-2.84-1.15-2.84zm-11 .87c-1.56 0-1.57.01-1.94 2.1l-.19 1.09 1.85-.62c1.01-.34 1.97-.71 2.12-.85.16-.15.11-.55-.09-1-.29-.64-.5-.72-1.75-.72zm-2.38 1.41l-2.31 3.16c.43-.15.84-.38 1.22-.75.52-.52.88-1.28 1.06-2.28.01-.06.02-.08.03-.13zm4.41 1.09c-.98.07-4.22 1.29-4.88 1.91-1.12 1.06-.84 3.08.72 5.28l.94 1.35 1.22-.5c.68-.27 1.44-.64 1.69-.85.24-.21.82-1.17 1.28-2.12l.84-1.75-.69-1.53-.87-1.75c-.04-.05-.11-.05-.25-.04zm8.81.41c-1.3.02-1.54.14-2.28 1.03l-.84 1 .62 1.66c1.11 2.92 1.29 3.08 3.19 2.84l1.65-.25c.02-.02.32-.61.66-1.28.9-1.78.82-2.62-.44-3.91-.97-.99-1.24-1.11-2.56-1.09zm12.03 1.16c-2.75-.01-3.06.34-2.62 2.84l.47 3.06c.12 1 .29 1.36.56 1.25l1.5-.5c1.41-.42 2.32-1.75 3-4.37.5-1.94.49-1.96-.13-2.13-.34-.09-1.58-.15-2.78-.15zm4.06.03l-.28 1.06c-.53 2.08-.64 2.95-.4 2.94.11-.01.92-.15 1.72-.31.05-1.18.05-2.29-.04-3.35l-1-.34zm-19.81.94c-.16.01-.55.16-1 .34-1.01.41-2.57 1.8-2.31 2.06.11.11 3.03.58 4.06.66.47.03.44-.08-.09-1.44l-.56-1.59c0-.02-.04-.04-.1-.03zm-11.65.21c-.13.01-.29.05-.5.1-.11.02-.17.04-.25.06l-1.04 1.47-.03.25-.15 1.37 1.12-.21c.62-.12 1.22-.3 1.31-.41.1-.11.11-.78.04-1.47-.1-.92-.13-1.17-.5-1.16zm23.15 0l-1.37.13c-1.53.16-1.92.32-2.07.78-.1.31-.13.62-.06.69.13.12 3.54.91 4.19.97.27.02.33-.32.19-1.22l-.28-1.31c-.03-.03-.24-.06-.6-.04zm-3.09 2.35c-.06 0-.1.01-.16.03-.79.25-1.5 1.93-1.5 3.75 0 1.42.67 4.11 1.16 4.66.17.19 2.12.65 3.12.75.19.01 1.11-.67 2.03-1.54l1.66-1.56-.78-.84c-.57-.6-.9-1.36-1.13-2.63l-.31-1.78-1.62-.34-2.28-.47c-.06-.01-.13-.03-.19-.03zm-22.6.4l-.25.38c.14-.11.21-.24.25-.38zm11.1.19c-.36.07-.5.36-.88 1.1-.33.65-.68 2.02-.78 3.06-.17 1.78-.12 1.93.66 2.75.97 1.01 1.23 1.03 3.94.28 1.13-.32 2.13-.66 2.21-.75.32-.32.04-4.28-.37-5.06-.31-.6-.72-.85-1.53-.97l-2.28-.35c-.45-.06-.76-.1-.97-.06zm23.94.16c-.11.02-.15.04-.25.06-1.47.29-1.77.47-2.41 1.44l-.75 1.12.69 1.25c.37.7.73 1.63.81 2.1.07.42.29.75.78 1.12.59-2.63.99-5 1.13-7.09zm-32.22.37c-.12-.01-.26.01-.44.03l-.94.19c-1.13.23-1.92.45-2.53.75 0 .01-.03 0-.03 0l-2.06 3.44c-.05.28-.06.48 0 .53.61.59 4.08 2.27 4.75 2.28.65.02.86-.2 1.4-1.5.35-.84.96-1.84 1.38-2.19.68-.57.74-.69.4-1.31-.2-.38-.67-1.08-1.03-1.53-.36-.46-.54-.66-.9-.69zm16.68 1.16c-.3.02-.73.08-1.28.16l-1.34.18.03 1.19c0 .66.06 1.69.16 2.28l.18 1.06 1.57-1.03c1.53-1.01 1.56-1.05 1.56-2.43 0-1.17.03-1.47-.88-1.41zm-10.75.66c-.72.13-3.15 1.22-3.59 1.65-.63.62-.76.52 1.88 1.41l1.59.53.22-1.75.12-1.84c-.02-.03-.11-.02-.22 0zm22.25.5c-.04 0-.78.18-1.62.43l-1.53.47.81.85c.68.7 1.05.84 2.22.84.77 0 1.37-.07 1.37-.16 0-.21-1.14-2.43-1.25-2.43zm-10.78 2.31l-1.43 1.12c-.89.68-1.95 1.19-2.69 1.32l-1.22.21v2.22c0 1.73.1 2.44.56 3.19.33.53.78.91.97.84l2.38-.78c1.96-.64 3.31-1.52 3.31-2.15 0-.17-.25-.98-.56-1.78a30.05 30.05 0 0 1-.94-2.82l-.38-1.37zm-15.18.22c-.59-.02-.8.47-1.44 1.75-.71 1.4-.62 2.23.69 5.18l.71 1.6 1.22-.19 2.13-.34c.81-.14.96-.32 1.53-2.1.35-1.07.62-2.17.62-2.4 0-.81-1.93-2.31-3.84-3-.79-.29-1.27-.49-1.62-.5zm26 .65c-1.45.01-1.61.11-3.22 1.63l-1.72 1.59.59 1.5c.57 1.49.59 1.51 2.56 2.13 2.03.63 2.54.58 3.29-.32 0-.01.02-.02.03-.03l.72-2.68-.16-.5c-.32-.93-.59-2.05-.59-2.5 0-.81-.02-.83-1.5-.82zm-34.88.13c-.64 1.24-1.12 2.38-1.34 3.28l-1.03 4.56 1.53-.47c1.08-.33 2.2-.87 2.5-1.22.68-.78 1.97-3.25 1.97-3.75 0-.21-2.01-1.47-3.63-2.4zm17.91 1.72c-.56.04-2.4.64-2.66.9-.15.16-.32.66-.37 1.13-.09.78.03.9 1.5 1.5l1.59.65.09-2.06v-2.12c-.02-.02-.07-.01-.15 0zm19.06.03c0 .04.19.6.37 1.09l.22-.9c-.35-.15-.59-.23-.59-.19zm-31.13.47c-.11-.02-.26.01-.43.03-.6.07-.97.41-1.6 1.59l-.81 1.53.81-.03c.45-.01 1.36-.11 2-.22l1.19-.18-.41-1.41c-.26-.95-.4-1.25-.75-1.31zm20.19.31c-.5.01-.37.37.28 1.5.47.81 1.04 1.28 1.97 1.66 1.45.58 2.03.66 2.03.31 0-.13-.22-.83-.47-1.56-.48-1.41-.4-1.38-3.09-1.82-.32-.05-.55-.1-.72-.09zm-11.37 2.59l-.28 1.07c-.26.96-.87 4.51-.88 5.03-.01.73 3.58.93 5.28.28.61-.24.78-.53.78-1.16 0-.45-.34-1.49-.78-2.34-.71-1.38-.99-1.63-2.47-2.22l-1.65-.66zm12.03.53l-.75.82c-.43.47-.88 1.5-1.1 2.47-.34 1.54-.33 1.71.25 2.53.56.78.76.87 2.19.87.88 0 2-.22 2.47-.47.84-.43.84-.48.84-2.68v-2.25l-1.96-.66-1.94-.63zm-19.53.16l-2.1.09c-2.44.11-3.15.66-3.12 2.38.03 1.76.34 2.33 2.12 3.78l1.75 1.41.91-1.07a5.17 5.17 0 0 0 1.19-2.53c.19-1.13.14-1.73-.25-2.75l-.5-1.31zm24.31 1.34c-.23.03-.31.6-.31 2.22v2.35l1.09.12c.6.07 1.54.11 2.09.1h.04l.9-2.04c.01-.01 0-.02 0-.03-.06-.98-.28-1.83-.44-1.93-.16-.11-.88-.27-1.59-.38s-1.47-.29-1.69-.37c-.04-.02-.06-.04-.09-.04zm-7.09.04c-.04-.04-1.03.24-2.22.62-2.15.69-2.14.7-2.07 1.66.13 1.59.25 1.76 1.29 1.56l1.71-.34c.69-.13.81-.33 1.07-1.79l.22-1.71zm-23.19.28c-.03-.04-.92.21-1.97.53-.99.29-1.53.52-1.84.94l-.41 2v1.03l1.94-.6c1.07-.32 2.1-.7 2.28-.84.26-.2.26-2.72 0-3.06zm11.87.28c-.1-.1-4.02.52-4.15.65-.05.05-.16.75-.25 1.57l-.19 1.5h4.34l.19-1.82c.09-.99.11-1.85.06-1.9zm22.94.12l-.28.19.03.47c.07-.22.18-.44.25-.66zm-34.37 3.28l-2.91.91-2.13.72-.37 2.12c.34 1.12.81 2.34 1.22 2.91.83 1.17 1.9 1.68 3.65 1.75.7.03.79-.08.79-.84 0-.48.45-2 1-3.35l1-2.47-1.13-.87-1.12-.88zm22.15 0l-2.19.41c-1.19.23-2.54.58-3 .75-.77.3-.8.37-.62 1.53.22 1.37 1.13 3.48 1.72 3.97.32.26 2.45.72 4.19.88.22.01.83-.27 1.37-.6s1-.81 1-1.06c0-.9-1.28-4.39-1.87-5.13l-.6-.75zm-13.31.91c-2.32.02-2.37.05-3.19 1.03-.66.79-.84 1.29-.87 2.47l-.03 1.5 1.75.69c.95.38 2.19.8 2.75.94.94.22 1.1.15 2.06-.91.75-.83 1.14-1.64 1.47-3l.47-1.91-1.04-.4c-.62-.27-1.92-.42-3.37-.41zm21.37.34c-.69 0-1.29.06-1.62.19-.69.26-.76.4-.59 1.1.13.56.75 2.34 1.28 3.78 1.19-1.58 2.27-3.2 3.15-4.91-.73-.1-1.52-.16-2.22-.16zm-15.78.22c-.6.09-.76.6-1.28 3.16-.17.85-.14.94.28.78.27-.1.86-.27 1.28-.37 1.32-.32 1.44-.54 1.13-2.13-.26-1.33-.37-1.44-1.13-1.44-.1 0-.19-.01-.28 0zm11.19.28c-.87 0-1.59.04-1.59.1 0 .09.97 2.94 1.31 3.87.17.48 2.47-.76 2.47-1.34 0-.24-.15-.93-.31-1.53-.31-1.09-.3-1.1-1.88-1.1zm-22.53.35c-.35.04-.67.64-1.13 1.9l-.81 2.19c-.06.14.14.21.44.13.3-.09.97-.25 1.47-.35.83-.16.92-.31 1.06-1.56.11-1 .02-1.47-.31-1.84-.29-.32-.51-.5-.72-.47zm24.97 3.15l-2.16 1.44c-1.83 1.24-2.91 2.42-4 4.28-.13.23.44.75 1.66 1.57 1.88-1.76 3.65-3.57 5.19-5.5l-.69-1.79zm-12.1.1c-.85-.08-3.09.9-3.96 1.84-1.61 1.73-1.29 3.14 1.06 4.88 1.25.92 2.73 1.72 3.44 1.84.07.01.73-.59 1.5-1.34.76-.76 1.4-1.49 1.4-1.66 0-.3-2.74-5.05-3.15-5.47-.06-.06-.16-.08-.29-.09zm-21.62.75c-.01 0-.38.13-.47.15l-5.22 5.63.94.87c1.91 1.82 2.11 1.92 3.19 1.5.93-.35 2.41-2.5 2.93-4.28l.44-1.5-.87-1.18-.94-1.19zm8.87.44c-.44.03-.94.16-1.59.34-.33.09-.57.54-.69 1.28-.1.63-.62 1.73-1.15 2.44-1.12 1.46-1.28 1.3 2.37 2 3.43.65 3.7.66 4.41.22.53-.33.67-.7.72-1.97l.06-2.31c.01-.66-.21-.83-1.72-1.44-1.03-.42-1.66-.62-2.41-.56zm14.94.96l.81 1.41c.89 1.54 1.56 2.41 1.88 2.41.11 0 .68-.7 1.25-1.57l1-1.59-1.34-.19-2.47-.31-1.13-.16zm-10 .47c-.06.06-.19 1.12-.28 2.35l-.16 2.25 1.29-.85c.7-.45 1.35-.91 1.43-1.03.09-.12.1-.69.03-1.25-.1-.88-.25-1.03-1.15-1.28-.57-.16-1.1-.25-1.16-.19zm-11.22.6c-.09-.01-.15.01-.18.03-.12.07-.27.58-.38 1.15l-.34 1.44c-.14.37.36.58 1.65.69.26.02.89-.51 1.41-1.16s.82-1.28.69-1.4c-.3-.27-2.2-.74-2.85-.75zm13.75 2.72l-1.93 1.37c-1.85 1.34-1.95 1.5-2.47 3.38l-.53 1.96.9.79c.79.67 2.71 1.4 3.97 1.5.19.01.85-.67 1.47-1.5.62-.84 1.34-2.27 1.59-3.19l.44-1.66-1.72-1.34-1.72-1.31zm9.78.56c-.54-.01-.97.37-1.75 1.15-1.41 1.44-1.48 1.9-.46 4.04l4.71-3.94c-1.28-.83-1.95-1.24-2.5-1.25zm-24.21.44c-.54 0-.75.25-1.44 1.21-.96 1.33-.97 1.35-.66 3.13.23 1.31.49 1.96 1.03 2.44l.75.65 1.82-.87c.99-.47 2.37-.99 3.06-1.16 1.4-.35 1.39-.45.4-3.09-.39-1.06-.61-1.28-1.78-1.66-.74-.24-1.86-.5-2.5-.59-.27-.04-.51-.07-.68-.06zm-8.13.21l-2.47 3.19-2.12 3.53.93.82c.03 0 .89-.37 1.91-.79 2.51-1.02 3.26-1.59 3.91-3.03l.53-1.22-1.94-1.81-.75-.69zm13.88.91c-.36.03-.24.23-.13.66.72 2.86.91 3.21 1.91 3.56.54.19 1.06.33 1.15.34.1.01.43-.89.75-2l.6-2-1.19-.18-3.09-.38zm12.93.63c-.08.01-.14.07-.18.12-.18.2-.88 2.67-.88 3.13 0 .1.21.11.44.03.23-.09.88-.24 1.47-.35 1.16-.22 1.45-.66 1.18-1.72-.15-.62-1.45-1.33-2.03-1.21zm-22.06.81c-.15.02-.35.07-.56.12-.5.13-.98.59-1.35 1.32l-.56 1.09 1.22.31 1.53.44c.57.18.65-.15.38-1.66l-.38-1.62c-.02-.03-.12-.02-.28 0zm24.16 2.34c-.06 0-.11.02-.16.03l-1.81.5c-1.03.26-1.55.61-2.41 1.72-.73.94-1.09 1.7-1.09 2.31 0 .05.02.11.03.16l5.94-4.31c-.19-.26-.35-.39-.5-.41zm-26.78.88c-.06.06-.79 1.21-1.6 2.56l-1.47 2.44 1.07.93c.77.68 1.67 1.08 3.4 1.5l2.56.6c.11.01.41-.54.69-1.22.29-.71.49-1.91.47-2.81-.04-2.05-.93-3.03-3.34-3.66-.93-.24-1.73-.4-1.78-.34zm12.46.12a5.44 5.44 0 0 0-1.25.28l-1.59.69c-.37.32.31 3.83 1.09 5.59l.75 1.66h3.16l1.56-1.03.28-.66c1.02-2.33.83-4.05-.53-5.25-1.1-.96-2.25-1.39-3.47-1.28zm-3.65.69l-1.5.66c-1.61.7-1.81 1.08-1.5 2.71l.19 1.04 1.5-.19c.82-.11 1.56-.3 1.65-.41s.05-1.01-.09-2l-.25-1.81zm-10.85.5c-.27.04-.9.23-1.65.5l-1.81.66-.1 1.78-.06 1.78.94-.47c.69-.33 1.23-.96 1.9-2.25l.94-2c0-.02-.06-.01-.16 0zm-5.09.62l-1.53 3-1.59 1.07 2.06-.19 1.97-.19v-1.5c0-1.27-.13-1.54-.91-2.19zm24.81.32c-.18 0-.18 1.22.03 2.28.1.49.28.84.38.78s.73-.26 1.41-.44a4.4 4.4 0 0 0 .65-.22l.44-.28c.11-.15.16-.34.16-.65 0-.77-.13-.87-1.47-1.16l-1.6-.31zm-9.5 3.22c-.31.02-.69.09-1.18.18-1.1.2-1.13.26-1.91 2.53l-1 2.82c-.28.64 1.37 1.9 2.72 2.06l.65.06 1.35-.87 2.44-1.66c-.36-1.27-1.1-3.43-1.54-4.37-.29-.64-.58-.84-1.53-.75zm-11.97.4c-.2.01-.43.11-.78.25-.52.22-1.71.48-2.62.6-.91.11-1.66.31-1.66.43 0 .13.15.93.31 1.78.24 1.27.54 1.83 1.63 2.94 1.55 1.58 1.89 1.59 4.97.22.99-.45 1.81-.96 1.81-1.12 0-1.1-1.29-3.52-2.31-4.35-.69-.55-1-.76-1.35-.75zm-7.28.72l-1.53 1.22c.01 2.22.33 3.43.85 3.28.25-.08.83-.2 1.31-.31 1.38-.32 1.53-.57 1.28-2.1l-.25-1.71c-.01-.25-.52-.38-1.59-.38h-.07zm10.75.97c-.04.04.16.84.44 1.78.4 1.36.66 1.78 1.22 1.94 1.63.45 1.86.3 2.34-1.22l.47-1.44-1.19-.31-2.21-.56c-.55-.15-1.02-.23-1.07-.19zm-12.84.75c-1.46 1.28-2.99 2.86-4.16 4.62.98.73 1.44.91 2.44.91 1.32 0 1.38-.02 1.56-.97.25-1.3.28-3.17.16-4.56zm24.59.59l.22.82.16.53 1.97-1.35h-2.35zm-20.43 2.03l-1.44.47c-1.88.63-2.08.82-2.31 2.1-.12.59-.32 1.21-.47 1.4-.3.37-.14.82 1.09 2.78.66 1.05.74 1.1 2.28 1.1 1.06 0 2.04-.22 2.85-.63.67-.34 1.27-.75 1.37-.9s.05-.93-.09-1.75c-.22-1.26-.49-1.76-1.75-3.03l-1.53-1.54zm10.37 1c-.7-.01-1.29.17-2.5.72l-1.91.94c0 .05.24.96.54 2 .28.99.63 1.86.96 2.59l6.75-3.65c.09-.85-.02-1.05-.78-1.63-.51-.39-1.57-.79-2.31-.9-.29-.05-.52-.06-.75-.07zm4.88 1.66c-.13.01-.2.04-.22.06-.04.04-.11.23-.16.47l.84-.53c-.18-.01-.34-.01-.46 0zm-10.29.03a2.91 2.91 0 0 0-.59.1c-.73.18-.77.28-.59 1.4.29 1.9.44 2.15 1.12 2.28 1.7.33 1.66.38 1.06-1.72l-.68-2.03c-.04-.03-.15-.04-.32-.03zm-13.71.03c-.43.73-.81 1.48-1.07 2.25l-.87 2.41c1.25-1.32 2.75-3.22 2.75-3.75 0-.21-.33-.54-.81-.91zm2.78.82c-1.03.07-1.32.26-1.78 1.06l-.57.94 1.57-.6 1.75-.75c.62-.38.12-.73-.97-.65zm.68 1.53c-.3.05-.91.26-1.56.53-1.05.43-2.04 1.15-2.97 2.15l-1.37 1.5.78 1.47c.44.81.99 1.62 1.19 1.78.11.1.47.18.97.29 1.15-.2 2.54-.52 4.09-.97a9.93 9.93 0 0 1 .47-2.03l.5-1.41-.85-1.59c-.47-.88-.96-1.66-1.06-1.72-.02-.02-.09-.02-.19 0zm10.1 2c-.59-.01-1.11.17-2 .62-1.47.74-1.49.75-1.1 1.53.05.09.13.32.19.47l4.72-2.03c-.26-.31-.58-.43-1.19-.53-.23-.04-.43-.06-.62-.06zm-5.66 1.34c-1.56 0-1.6.04-2.03 1.06-.58 1.39-.59 1.34.66 1.16l2.31-.34.62-.1c.2-.07.4-.17.6-.25-.02-.09-.14-.4-.28-.78-.26-.67-.43-.75-1.88-.75zm-10.78 1.16l-.66 1.53c1.16-.07 1.28-.25.88-1.13-.08-.18-.14-.3-.22-.4zm9.31 1.65c-.46.07-.71.11-.84.28-.01.01 0 .03 0 .04l.94-.32c-.03.01-.07-.01-.1 0zm-9.28.44c-.19 0-.42.03-.69.09.05.29.17.58.44.94.19.25.75.36 1.56.35l-.09-.35c-.31-.75-.61-1.04-1.22-1.03z"/><path d="M567.43 179.53c-2.83-.52-3.01 3.98-.09 3.6 2.55 2.18 3.05-4.52.09-3.6zm9.85 1.22c-.92 2.66 2.72 1.54 0 0zm-17.19 6c-.01 3.9 2.92 2.03 2.94.16-1.15.21-2.45-2.09-2.94-.16zm13.25-.09c-2.78-.08-3.41 3.29.03 2.59 1.32.38 1.68-3.52-.03-2.59zm-16.66 4.75c-2.95-.34-2.88 2.94-1.09 3.62 1.14-.41 2.6-3.33 1.09-3.62zm9.47.09c-1.62 2.28 2.55 3.6 1.91.85-.36-.64-1.07-1.15-1.91-.85zm11.75 1.16c-.84 5.89 3.71-1.22 0 0zm-6 3.72c-1.26 2.27 1.13 7.18 2.81 3.5-1.18-1.31-.22-4.09-2.81-3.5zm-11.28.56c-.6 1.55-1.16 4.78 1.59 3.06 2.12-.03.54-4.76-1.59-3.06zm-10 .5c-2.18-.25-3.5 2.96-.75 2.69-.07-.78 2.36-2.72.75-2.69zm3.53 5.25c-1.25 2.08 2.26 5.92 2.78 1.94.87-1.13-2.4-2.49-2.78-1.94zm25 .12c-2.38.89-2.39 3.28.38 3.19.4-.84.41-2.82-.38-3.19zm-11.62.6c-2.43-.05-2.87 4.51.03 2.5 1.96.05.38-2.55-.03-2.5zm-21.88.69c-1.07 2.49.99-.52 0 0zm15.03 6.03c.64 1.98 2.39-.29.5-1.25-.65-.55-.29.9-.5 1.25zm-10.59-1.32c-3.4-.46 1.03 4.84.78 1.22-.02-.53.1-1.54-.78-1.22zm-.88 1.72c-.1.04.05.06 0 0zm22.91-1.5c-1.38 1.52-.05 3.26 1.34 1.78.3-1.15-.19-2.16-1.34-1.78zm5.91 1.66c.4-.18-.29-.39 0 0zm-11.16 3.75c-4.09.06-.19 4.54 2.09 2.91-.5-1-.56-3.64-2.09-2.91zm-22.69.44c-2.75.21 1.37 5.97 1.32 1.75.74-1.56 1.3-3.28-1.32-1.75zm9.94.12c-2.91 1.61 3.27 4.13 3.09.63.83-1.23-2.71-.42-3.09-.63zm7.56 4.63c-2.93.52-2.23 2.94.22 3.68 2.77 1.05.66-2.87-.22-3.68zm-12.03 1c-2.13 1.54.72 3.36 2.13 2.22.77-1.72-.86-2.31-2.13-2.22zm-9.78 1.09c-2.87 1.41-1.12 4.12 0 .75.15-.26 1.07-2.28 0-.75zm-1.12 2.5c-.05.06.1.03 0 0zm17.68 2.09c-2.03.75-2.58 4.28.22 3.75 1.15-1.24 2.95-4.85-.22-3.75zm-13.5.41c-1.32 1.81.48 3.47 2.28 1.63 2.81-.66-1.79-2.67-2.28-1.63zm-8.62 1.44c-.9 1.56 1.88-2.19 0 0zm14.9 4.12c-3.19 3.07 4.07 5.85 2.38.94-.63-.58-1.46-1.13-2.38-.94zm-12.34 1.44c-1.93 1.7 4.23 3.38 3 .41.23-1.68-2.92-2.59-3-.41zm7.75 3.94c-1.62.76-2.23 5.66.64 2.5.6-.22-.08-2.42-.64-2.5zm-11.87.53c-2.9-.37-2.93 2.32-.54 2.94 2.8-.3 2.08-1.92.54-2.94zm-5.82 5.25c-3.37 1.12.67 5.41 2.13 2.59-.13-1.16-1.18-2.31-2.13-2.59zm10.94.66c-2.67.52-1.44 2.04.69.24.83-.26-.61-.29-.69-.24zm-16.25 4.43c-3.09.63-2.79 5.05.34 2.28.43-.76.48-2.05-.34-2.28z"/></g><path d="M219.525 91.067l-3.919-5.775" fill="none" opacity=".157" stroke="#177f12" stroke-linecap="round" stroke-linejoin="round" stroke-opacity=".69" stroke-width="2.607"/><path d="M248.865 90.735a9.8 9.8 0 0 1-9.797 9.797 9.8 9.8 0 0 1-9.797-9.797 9.8 9.8 0 0 1 9.797-9.797 9.8 9.8 0 0 1 9.797 9.797z" fill="#fff" stroke="#000" stroke-opacity=".615" stroke-width="1.564"/><path d="M244.638 92.388c0 1.878-1.616 3.4-3.61 3.4s-3.61-1.522-3.61-3.4 1.616-3.4 3.61-3.4 3.61 1.522 3.61 3.4z" opacity=".839"/></svg>