<svg width="89" height="89" viewBox="0 0 89 89" fill="none" xmlns="http://www.w3.org/2000/svg">
<rect x="0.5" y="0.5" width="88" height="88" fill="white"/>
<path d="M36.331 42.88H48.547V44.32H36.331V49.216H51.043V50.68H34.843V36.52H51.019V37.984H36.331V42.88ZM37.651 39.328H52.363V35.176H33.499V52.024H52.387V47.872H37.651V45.64H49.867V41.56H37.651V39.328ZM32.899 52.624V34.576H52.963L55.291 37.048V42.256H51.619L52.795 43.432V47.272L55.315 49.744V54.952H35.371L32.899 52.624Z" fill="#02DEDE"/>
<path d="M22.9289 16.88C23.3129 16.88 23.6889 16.84 24.0569 16.76C24.4249 16.664 24.7529 16.52 25.0409 16.328C25.3449 16.136 25.5849 15.888 25.7609 15.584C25.9369 15.264 26.0249 14.888 26.0249 14.456C26.0249 14.008 25.9369 13.632 25.7609 13.328C25.6009 13.008 25.3769 12.752 25.0889 12.56C24.8009 12.352 24.4729 12.208 24.1049 12.128C23.7369 12.032 23.3529 11.984 22.9529 11.984H12.6809V16.88H22.9289ZM22.9529 13.328C23.1289 13.328 23.3209 13.344 23.5289 13.376C23.7369 13.408 23.9289 13.472 24.1049 13.568C24.2809 13.648 24.4249 13.76 24.5369 13.904C24.6489 14.048 24.7049 14.232 24.7049 14.456C24.7049 14.68 24.6409 14.864 24.5129 15.008C24.4009 15.136 24.2489 15.248 24.0569 15.344C23.8809 15.424 23.6889 15.48 23.4809 15.512C23.2729 15.544 23.0889 15.56 22.9289 15.56H14.0249V13.328H22.9529ZM24.2249 23.216C24.6089 23.216 24.9929 23.176 25.3769 23.096C25.7609 23 26.0969 22.856 26.3849 22.664C26.6889 22.456 26.9289 22.2 27.1049 21.896C27.2969 21.576 27.3929 21.192 27.3929 20.744C27.3929 20.344 27.3129 19.992 27.1529 19.688C26.9929 19.384 26.7769 19.136 26.5049 18.944C26.2329 18.736 25.9209 18.584 25.5689 18.488C25.2329 18.376 24.8809 18.32 24.5129 18.32H12.6809V23.216H24.2249ZM24.5129 19.64C24.6729 19.64 24.8409 19.664 25.0169 19.712C25.2089 19.744 25.3769 19.808 25.5209 19.904C25.6809 19.984 25.8089 20.096 25.9049 20.24C26.0009 20.384 26.0489 20.552 26.0489 20.744C26.0489 20.984 25.9849 21.176 25.8569 21.32C25.7449 21.464 25.5929 21.576 25.4009 21.656C25.2249 21.736 25.0249 21.792 24.8009 21.824C24.5929 21.856 24.4009 21.872 24.2249 21.872H14.0249V19.64H24.5129ZM22.9529 10.52C23.6089 10.52 24.2169 10.592 24.7769 10.736C25.3369 10.88 25.8169 11.112 26.2169 11.432C26.6329 11.752 26.9529 12.16 27.1769 12.656C27.4169 13.152 27.5449 13.752 27.5609 14.456C27.5609 14.84 27.4729 15.208 27.2969 15.56C27.1369 15.896 26.9369 16.192 26.6969 16.448C26.4569 16.704 26.2009 16.912 25.9289 17.072C25.6569 17.216 25.4249 17.296 25.2329 17.312C25.6649 17.344 26.0969 17.456 26.5289 17.648C26.9609 17.824 27.3449 18.064 27.6809 18.368C28.0329 18.672 28.3209 19.024 28.5449 19.424C28.7689 19.824 28.8809 20.264 28.8809 20.744C28.8809 21.464 28.7609 22.08 28.5209 22.592C28.2809 23.088 27.9449 23.496 27.5129 23.816C27.0969 24.12 26.6009 24.344 26.0249 24.488C25.4649 24.616 24.8649 24.68 24.2249 24.68H11.2409V10.52H22.9529ZM24.2249 26.024C25.0889 26.024 25.8889 25.928 26.6249 25.736C27.3609 25.528 27.9929 25.216 28.5209 24.8C29.0489 24.368 29.4649 23.824 29.7689 23.168C30.0729 22.496 30.2249 21.688 30.2249 20.744C30.2249 19.944 30.0009 19.232 29.5529 18.608C29.1209 17.984 28.4649 17.488 27.5849 17.12C27.7769 16.96 27.9529 16.776 28.1129 16.568C28.2729 16.344 28.4089 16.112 28.5209 15.872C28.6329 15.632 28.7209 15.392 28.7849 15.152C28.8489 14.896 28.8809 14.664 28.8809 14.456C28.8809 13.544 28.7369 12.76 28.4489 12.104C28.1609 11.432 27.7529 10.88 27.2249 10.448C26.7129 10.016 26.0889 9.696 25.3529 9.488C24.6329 9.28 23.8329 9.176 22.9529 9.176H9.89691V26.024H24.2249ZM9.29691 8.576H22.9529C24.3929 8.576 25.6969 8.816 26.8649 9.296C28.0329 9.776 29.1209 10.616 30.1289 11.816C30.4649 12.216 30.7689 12.712 31.0409 13.304C31.3129 13.88 31.5049 14.488 31.6169 15.128C31.7289 15.752 31.7289 16.368 31.6169 16.976C31.5209 17.584 31.2649 18.104 30.8489 18.536C31.2649 18.696 31.6169 18.968 31.9049 19.352C32.1929 19.72 32.4249 20.128 32.6009 20.576C32.7929 21.024 32.9289 21.48 33.0089 21.944C33.1049 22.408 33.1529 22.808 33.1529 23.144C33.1529 24.184 32.9849 25.072 32.6489 25.808C32.3289 26.528 31.8809 27.12 31.3049 27.584C30.7289 28.064 30.0409 28.408 29.2409 28.616C28.4409 28.84 27.5689 28.952 26.6249 28.952H11.7689L9.29691 26.624V8.576Z" fill="#CD02DE"/>
<path d="M60.79 62.52H62.038L70.318 74.808C71.678 72.728 73.046 70.672 74.422 68.64C75.814 66.608 77.214 64.568 78.622 62.52H79.87V76.68H78.382V65.544L70.918 76.68H69.742L62.278 65.568V76.68H60.79V62.52ZM63.598 69.936L68.998 78.024H71.638L77.062 69.912V78.024H81.19V61.176H77.878L70.294 72.408L62.758 61.176H59.47V78.024H63.598V69.936ZM65.422 63.048L70.63 70.848L77.59 60.576H81.79L84.118 63.048V80.952H78.934L76.462 78.624V77.736L74.302 80.952H71.134L68.71 78.624L66.526 75.36V80.952H61.342L58.87 78.624V60.576H63.046L65.422 63.048Z" fill="#DE0202"/>
<rect x="0.5" y="0.5" width="88" height="88" stroke="black"/>
</svg>
