<svg width="657" height="657" viewBox="0 0 657 657" fill="none" xmlns="http://www.w3.org/2000/svg">
<g id="Group 42">
<rect id="Rectangle 44" width="657" height="657" fill="#D9D9D9"/>
<g id="css 1" clip-path="url(#clip0_316_178)">
<g id="#000000ff">
<path id="Vector" d="M194.147 10.28C221.759 9.93332 249.37 10.1733 276.982 10.16C277.048 18.92 277.179 27.68 276.864 36.44C257.733 36.3067 238.615 36.44 219.497 36.56C219.366 49.28 219.116 62 219.234 74.72C238.431 74.84 257.641 75.0267 276.837 74.9467C277.061 82.1467 276.982 89.3733 276.772 96.5867C249.239 96.4 221.706 96.48 194.173 96.5066C194.239 67.76 194.292 39.0267 194.147 10.28Z" fill="black"/>
<path id="Vector_2" d="M286.83 10.1867C314.784 10.1333 342.737 9.95999 370.704 10.28C370.599 18.56 370.678 26.8267 370.678 35.1067C350.337 35.04 329.983 35.1333 309.643 35.3733C309.669 38.6267 309.669 41.88 309.643 45.1333C329.957 45.4667 350.258 45.5067 370.559 45.6267C370.638 62.6 370.599 79.56 370.704 96.52C342.737 96.4667 314.771 96.4933 286.804 96.6267C286.659 89.7733 286.646 82.9333 286.843 76.08C306.224 76.1333 325.618 76.16 344.999 76C345.117 71.5867 345.17 67.16 345.157 62.7467C325.684 62.7467 306.198 62.8133 286.725 62.68C286.725 45.1867 286.725 27.68 286.83 10.1867Z" fill="black"/>
<path id="Vector_3" d="M380.066 10.3333C407.967 10.3333 435.881 10.3333 463.782 10.3333C463.9 18.6533 464.019 26.9733 463.756 35.28C443.323 35.2666 422.89 35.3866 402.458 35.4266C402.51 38.8266 402.589 42.2266 402.76 45.6266C423.074 45.5333 443.389 45.7866 463.69 46C463.874 62.8933 464.006 79.7867 463.769 96.68C435.802 96.6 407.835 96.6 379.869 96.7333C379.698 89.9067 379.645 83.0533 379.934 76.2266C399.276 76.3733 418.63 76.3466 437.985 76.16C438.037 71.7333 438.129 67.3066 438.09 62.8933C418.67 63.08 399.236 62.9733 379.803 62.9066C379.803 45.3866 379.934 27.8533 380.066 10.3333Z" fill="black"/>
</g>
<g id="#0170baff">
<path id="Vector_4" d="M104.251 132.28C254.038 132.267 403.812 132.253 553.599 132.28C545.355 226.747 537.242 321.213 528.656 415.653C523.555 476.013 518.295 536.373 512.747 596.693C480.783 605.28 449.135 615.067 417.184 623.693C387.837 632.427 358.253 640.333 328.892 649H328.024C300.084 640.573 271.867 633.16 243.927 624.733C210.951 615.72 178.264 605.667 145.274 596.693C140.975 551.48 137.096 506.24 133.27 461C126.051 377.413 118.202 293.88 111.259 210.28C108.853 185.12 107.131 159.88 104.251 134.773V132.28ZM329.629 169.547C329.313 187.693 329.865 205.853 329.313 223.987C277.929 223.8 226.532 223.947 175.148 224C176.029 241.613 178.356 259.107 180.749 276.573C228.557 278.373 276.43 276.507 324.238 277.96C282.413 296.987 240.075 314.907 198.065 333.533C194.463 335.16 190.61 336.387 187.389 338.76C187.744 358.107 190.821 377.347 192.175 396.653C217.656 396.56 243.125 396.147 268.607 396.107C289.026 396 309.459 396.413 329.878 395.96C328.905 427.773 330.181 459.627 329.221 491.44C315.481 489.373 301.912 486.267 288.224 483.8C277.429 481.413 266.371 480.173 255.734 477.04C254.222 461.773 253.17 446.453 251.829 431.173C248.753 430.213 245.492 430.307 242.31 430.253C226.874 430.347 211.424 430.2 195.975 430.44C197.487 459.813 200.09 489.147 204.521 518.24C219.747 522.267 234.999 526.213 250.199 530.413C273.485 536.84 297.06 542.187 320.385 548.507C323.16 549.107 325.96 550.147 328.84 549.907C330.391 569.227 329.195 588.667 329.484 608.04C334.862 607.16 340.147 605.813 345.341 604.187C389.493 592.027 433.593 579.64 477.719 567.36C479.915 549.76 480.941 532.04 482.676 514.4C487.265 460.773 491.893 407.147 496.706 353.533C502.346 292.2 507.224 230.8 512.905 169.467C451.804 169.52 390.716 169.347 329.629 169.547Z" fill="#0170BA"/>
</g>
<g id="#29a9dfff">
<path id="Vector_5" d="M329.628 169.547C390.716 169.347 451.803 169.52 512.904 169.467C507.224 230.8 502.346 292.2 496.705 353.533C491.893 407.147 487.265 460.773 482.676 514.4C480.94 532.04 479.915 549.76 477.719 567.36C433.593 579.64 389.493 592.027 345.341 604.187C340.147 605.813 334.861 607.16 329.484 608.04C329.194 588.667 330.391 569.227 328.839 549.907C329.234 549.827 330.036 549.667 330.43 549.587C371.493 539.133 412.279 527.627 453.25 516.8C458.43 457.867 464.176 398.96 467.818 339.907C432.975 340.093 398.118 339.987 363.275 340.133C358.2 340.16 353.125 340.133 348.076 339.76C366.825 329.973 386.548 322.213 405.797 313.48C424.271 304.987 442.968 297.027 461.507 288.693C465.083 287.027 468.896 285.64 472.039 283.16C473.275 278.56 473.209 273.747 473.696 269.04C474.761 254.107 476.654 239.253 477.364 224.307C428.018 223.907 378.672 224.253 329.313 223.987C329.865 205.853 329.313 187.693 329.628 169.547Z" fill="#29A9DF"/>
<path id="Vector_6" d="M329.878 395.96C353.703 395.547 377.541 396.2 401.379 396.04C400.051 420.747 398.026 445.413 396.764 470.12C382.156 474.96 367.325 479.053 352.599 483.533C344.749 485.96 336.689 487.88 329.221 491.44C330.181 459.627 328.905 427.773 329.878 395.96Z" fill="#29A9DF"/>
</g>
<g id="#cfcfcfff">
<path id="Vector_7" d="M175.147 224C226.532 223.947 277.929 223.8 329.313 223.987C329.983 281.32 329.142 338.653 329.878 395.96C309.459 396.413 289.026 396 268.607 396.107C243.125 396.147 217.656 396.56 192.175 396.653C190.82 377.347 187.744 358.107 187.389 338.76C190.61 336.387 194.463 335.16 198.065 333.533C240.074 314.907 282.412 296.987 324.238 277.96C276.43 276.507 228.556 278.373 180.749 276.573C178.356 259.107 176.028 241.613 175.147 224Z" fill="#CFCFCF"/>
<path id="Vector_8" d="M195.975 430.44C211.424 430.2 226.873 430.347 242.31 430.253C245.492 430.307 248.752 430.213 251.829 431.173C253.17 446.453 254.222 461.773 255.734 477.04C266.371 480.173 277.429 481.413 288.224 483.8C301.912 486.267 315.481 489.373 329.221 491.44C330.536 510.8 328.235 530.293 330.43 549.587C330.036 549.667 329.234 549.827 328.84 549.907C325.96 550.147 323.159 549.107 320.385 548.507C297.06 542.187 273.485 536.84 250.199 530.413C234.999 526.213 219.747 522.267 204.521 518.24C200.09 489.147 197.487 459.813 195.975 430.44Z" fill="#CFCFCF"/>
</g>
<g id="#ffffffff">
<path id="Vector_9" d="M329.313 223.987C378.672 224.253 428.018 223.907 477.364 224.307C476.654 239.253 474.761 254.107 473.696 269.04C473.209 273.747 473.275 278.56 472.039 283.16C468.897 285.64 465.083 287.027 461.507 288.693C442.968 297.027 424.271 304.987 405.797 313.48C386.548 322.213 366.825 329.973 348.076 339.76C353.125 340.133 358.2 340.16 363.275 340.133C398.118 339.987 432.975 340.093 467.818 339.907C464.176 398.96 458.43 457.867 453.25 516.8C412.279 527.627 371.493 539.133 330.43 549.587C328.235 530.293 330.536 510.8 329.221 491.44C336.689 487.88 344.749 485.96 352.599 483.533C367.325 479.053 382.156 474.96 396.764 470.12C398.026 445.413 400.051 420.747 401.379 396.04C377.541 396.2 353.703 395.547 329.878 395.96C329.142 338.653 329.983 281.32 329.313 223.987Z" fill="white"/>
</g>
</g>
</g>
<defs>
<clipPath id="clip0_316_178">
<rect width="450" height="640" fill="white" transform="translate(104 9)"/>
</clipPath>
</defs>
</svg>
