<svg width="35" height="31" viewBox="0 0 35 31" fill="none" xmlns="http://www.w3.org/2000/svg">
<g clip-path="url(#clip0_311_141)">
<path d="M17.5 12.2818C18.6321 12.2818 19.55 11.3639 19.55 10.2318C19.55 9.09958 18.6321 8.18176 17.5 8.18176C16.3678 8.18176 15.45 9.09958 15.45 10.2318C15.45 11.3639 16.3678 12.2818 17.5 12.2818Z" fill="#61DAFB"/>
<path d="M18 14.8263C24.0751 14.8263 29 12.9459 29 10.6263C29 8.30667 24.0751 6.42627 18 6.42627C11.9249 6.42627 7 8.30667 7 10.6263C7 12.9459 11.9249 14.8263 18 14.8263Z" stroke="#61DAFB"/>
<path d="M14.3626 12.7263C17.4002 17.9875 21.4911 21.3124 23.4999 20.1526C25.5087 18.9928 24.6748 13.7875 21.6372 8.52628C18.5996 3.26506 14.5087 -0.0597981 12.4999 1.1C10.4911 2.2598 11.325 7.46506 14.3626 12.7263Z" stroke="#61DAFB"/>
<path d="M14.3626 8.52623C11.325 13.7874 10.4911 18.9927 12.4999 20.1525C14.5087 21.3123 18.5996 17.9874 21.6372 12.7262C24.6748 7.46501 25.5087 2.25975 23.4999 1.09995C21.4911 -0.0598469 17.4002 3.26501 14.3626 8.52623Z" stroke="#61DAFB"/>
</g>
<path d="M7.56012 30L5.90012 27.15H4.80012V30H3.89012V23.03H6.14012C6.66678 23.03 7.11012 23.12 7.47012 23.3C7.83678 23.48 8.11012 23.7233 8.29012 24.03C8.47012 24.3367 8.56012 24.6867 8.56012 25.08C8.56012 25.56 8.42012 25.9833 8.14012 26.35C7.86678 26.7167 7.45345 26.96 6.90012 27.08L8.65012 30H7.56012ZM4.80012 26.42H6.14012C6.63345 26.42 7.00345 26.3 7.25012 26.06C7.49678 25.8133 7.62012 25.4867 7.62012 25.08C7.62012 24.6667 7.49678 24.3467 7.25012 24.12C7.01012 23.8933 6.64012 23.78 6.14012 23.78H4.80012V26.42ZM14.9741 27.05C14.9741 27.2233 14.9641 27.4067 14.9441 27.6H10.5641C10.5974 28.14 10.7808 28.5633 11.1141 28.87C11.4541 29.17 11.8641 29.32 12.3441 29.32C12.7374 29.32 13.0641 29.23 13.3241 29.05C13.5908 28.8633 13.7774 28.6167 13.8841 28.31H14.8641C14.7174 28.8367 14.4241 29.2667 13.9841 29.6C13.5441 29.9267 12.9974 30.09 12.3441 30.09C11.8241 30.09 11.3574 29.9733 10.9441 29.74C10.5374 29.5067 10.2174 29.1767 9.9841 28.75C9.75077 28.3167 9.6341 27.8167 9.6341 27.25C9.6341 26.6833 9.74743 26.1867 9.9741 25.76C10.2008 25.3333 10.5174 25.0067 10.9241 24.78C11.3374 24.5467 11.8108 24.43 12.3441 24.43C12.8641 24.43 13.3241 24.5433 13.7241 24.77C14.1241 24.9967 14.4308 25.31 14.6441 25.71C14.8641 26.1033 14.9741 26.55 14.9741 27.05ZM14.0341 26.86C14.0341 26.5133 13.9574 26.2167 13.8041 25.97C13.6508 25.7167 13.4408 25.5267 13.1741 25.4C12.9141 25.2667 12.6241 25.2 12.3041 25.2C11.8441 25.2 11.4508 25.3467 11.1241 25.64C10.8041 25.9333 10.6208 26.34 10.5741 26.86H14.0341ZM15.8353 27.24C15.8353 26.68 15.9486 26.19 16.1753 25.77C16.4019 25.3433 16.7119 25.0133 17.1053 24.78C17.5053 24.5467 17.9486 24.43 18.4353 24.43C18.9153 24.43 19.3319 24.5333 19.6853 24.74C20.0386 24.9467 20.3019 25.2067 20.4753 25.52V24.52H21.3953V30H20.4753V28.98C20.2953 29.3 20.0253 29.5667 19.6653 29.78C19.3119 29.9867 18.8986 30.09 18.4253 30.09C17.9386 30.09 17.4986 29.97 17.1053 29.73C16.7119 29.49 16.4019 29.1533 16.1753 28.72C15.9486 28.2867 15.8353 27.7933 15.8353 27.24ZM20.4753 27.25C20.4753 26.8367 20.3919 26.4767 20.2253 26.17C20.0586 25.8633 19.8319 25.63 19.5453 25.47C19.2653 25.3033 18.9553 25.22 18.6153 25.22C18.2753 25.22 17.9653 25.3 17.6853 25.46C17.4053 25.62 17.1819 25.8533 17.0153 26.16C16.8486 26.4667 16.7653 26.8267 16.7653 27.24C16.7653 27.66 16.8486 28.0267 17.0153 28.34C17.1819 28.6467 17.4053 28.8833 17.6853 29.05C17.9653 29.21 18.2753 29.29 18.6153 29.29C18.9553 29.29 19.2653 29.21 19.5453 29.05C19.8319 28.8833 20.0586 28.6467 20.2253 28.34C20.3919 28.0267 20.4753 27.6633 20.4753 27.25ZM22.5931 27.25C22.5931 26.6833 22.7064 26.19 22.9331 25.77C23.1598 25.3433 23.4731 25.0133 23.8731 24.78C24.2798 24.5467 24.7431 24.43 25.2631 24.43C25.9364 24.43 26.4898 24.5933 26.9231 24.92C27.3631 25.2467 27.6531 25.7 27.7931 26.28H26.8131C26.7198 25.9467 26.5364 25.6833 26.2631 25.49C25.9964 25.2967 25.6631 25.2 25.2631 25.2C24.7431 25.2 24.3231 25.38 24.0031 25.74C23.6831 26.0933 23.5231 26.5967 23.5231 27.25C23.5231 27.91 23.6831 28.42 24.0031 28.78C24.3231 29.14 24.7431 29.32 25.2631 29.32C25.6631 29.32 25.9964 29.2267 26.2631 29.04C26.5298 28.8533 26.7131 28.5867 26.8131 28.24H27.7931C27.6464 28.8 27.3531 29.25 26.9131 29.59C26.4731 29.9233 25.9231 30.09 25.2631 30.09C24.7431 30.09 24.2798 29.9733 23.8731 29.74C23.4731 29.5067 23.1598 29.1767 22.9331 28.75C22.7064 28.3233 22.5931 27.8233 22.5931 27.25ZM30.1173 25.27V28.5C30.1173 28.7667 30.174 28.9567 30.2873 29.07C30.4006 29.1767 30.5973 29.23 30.8773 29.23H31.5473V30H30.7273C30.2206 30 29.8406 29.8833 29.5873 29.65C29.334 29.4167 29.2073 29.0333 29.2073 28.5V25.27H28.4973V24.52H29.2073V23.14H30.1173V24.52H31.5473V25.27H30.1173Z" fill="black"/>
<defs>
<clipPath id="clip0_311_141">
<rect width="24" height="21" fill="white" transform="translate(6)"/>
</clipPath>
</defs>
</svg>
