<svg width="560" height="560" viewBox="0 0 560 560" fill="none" xmlns="http://www.w3.org/2000/svg">
<rect width="560" height="560" fill="white"/>
<path d="M477.586 310.779C458.52 310.879 441.95 315.454 428.074 322.219C422.983 312.172 417.893 303.219 416.994 296.654C415.996 288.995 414.798 284.32 415.996 275.168C417.194 266.017 422.584 252.986 422.484 251.992C422.384 250.997 421.286 246.322 410.306 246.222C399.326 246.123 389.843 248.311 388.745 251.196C387.647 254.08 385.55 260.646 384.153 267.41C382.256 277.357 362.192 312.868 350.712 331.469C347.019 324.208 343.825 317.842 343.126 312.769C342.128 305.109 340.93 300.434 342.128 291.283C343.326 282.131 348.716 269.101 348.616 268.106C348.516 267.111 347.418 262.436 336.438 262.337C325.458 262.237 315.974 264.426 314.876 267.31C313.778 270.195 312.581 276.959 310.285 283.524C307.989 290.089 281.336 349.374 274.349 364.693C270.755 372.551 267.661 378.818 265.465 383.095C265.465 383.095 265.365 383.394 265.065 383.891C263.169 387.571 262.071 389.561 262.071 389.561C262.071 389.561 262.071 389.561 262.071 389.66C260.573 392.346 258.976 394.833 258.178 394.833C257.579 394.833 256.481 387.671 258.377 377.923C262.37 357.332 271.853 325.302 271.753 324.208C271.753 323.611 273.55 318.041 265.565 315.156C257.778 312.271 254.983 317.046 254.285 317.046C253.586 317.046 253.087 318.737 253.087 318.737C253.087 318.737 261.771 282.728 236.516 282.728C220.745 282.728 198.983 299.937 188.203 315.454C181.415 319.135 166.941 326.993 151.468 335.448C145.579 338.731 139.49 342.013 133.8 345.097C133.401 344.699 133.001 344.202 132.602 343.804C102.056 311.277 45.5574 288.299 47.9531 244.631C48.8515 228.715 54.3417 186.937 156.459 136.207C240.509 94.9258 307.39 106.365 318.969 131.73C335.54 167.938 283.133 235.181 196.288 244.929C163.147 248.61 145.778 235.877 141.386 231.103C136.794 226.129 136.096 225.831 134.399 226.825C131.604 228.317 133.401 232.794 134.399 235.38C136.994 242.144 147.675 254.08 165.743 259.949C181.714 265.122 220.545 268.007 267.561 249.903C320.167 229.61 361.294 173.21 349.215 125.961C337.137 78.0157 257.279 62.1997 181.714 88.9575C136.794 104.873 88.0814 129.94 53.044 162.567C11.4183 201.36 4.83009 235.081 7.52528 249.206C17.208 299.34 86.5841 331.967 114.335 356.138C112.937 356.934 111.639 357.63 110.541 358.227C96.6661 365.091 43.7606 392.644 30.5841 421.79C15.6108 454.814 32.9798 478.488 44.4593 481.672C80.0957 491.519 116.73 473.813 136.395 444.569C156.06 415.324 153.664 377.326 144.581 359.918C144.481 359.719 144.381 359.52 144.181 359.321C147.775 357.233 151.468 355.044 155.062 352.955C162.149 348.777 169.137 344.898 175.126 341.715C171.732 350.966 169.237 362.007 168.039 377.923C166.541 396.623 174.228 420.894 184.31 430.444C188.802 434.621 194.092 434.721 197.486 434.721C209.265 434.721 214.556 424.973 220.445 413.434C227.632 399.309 234.121 382.896 234.121 382.896C234.121 382.896 226.035 427.261 247.996 427.261C255.982 427.261 264.067 416.916 267.661 411.644C267.661 411.743 267.661 411.743 267.661 411.743C267.661 411.743 267.86 411.445 268.26 410.748C269.058 409.455 269.557 408.659 269.557 408.659C269.557 408.659 269.557 408.56 269.557 408.46C272.752 402.89 279.939 390.257 290.62 369.269C304.395 342.212 317.671 308.392 317.671 308.392C317.671 308.392 318.869 316.648 322.962 330.375C325.358 338.432 330.349 347.285 334.342 355.84C331.147 360.316 329.151 362.803 329.151 362.803C329.151 362.803 329.151 362.803 329.251 362.902C326.655 366.284 323.86 369.965 320.766 373.546C309.885 386.477 296.909 401.298 295.112 405.576C293.015 410.649 293.515 414.329 297.507 417.313C300.402 419.502 305.593 419.8 310.884 419.502C320.666 418.805 327.554 416.418 330.948 414.926C336.238 413.036 342.427 410.151 348.217 405.874C358.898 398.016 365.386 386.776 364.787 371.954C364.488 363.798 361.793 355.641 358.499 347.982C359.497 346.589 360.395 345.196 361.393 343.804C378.263 319.234 391.34 292.278 391.34 292.278C391.34 292.278 392.538 300.534 396.63 314.261C398.627 321.224 402.72 328.784 406.313 336.145C390.442 348.976 380.659 363.897 377.165 373.645C370.876 391.749 375.768 399.906 385.051 401.796C389.244 402.691 395.233 400.702 399.625 398.812C405.215 397.021 411.803 393.938 418.092 389.362C428.773 381.504 439.055 370.562 438.456 355.74C438.156 348.976 436.36 342.312 433.864 335.846C447.34 330.276 464.709 327.192 486.869 329.778C534.384 335.349 543.768 364.892 541.971 377.326C540.174 389.76 530.192 396.524 526.898 398.613C523.604 400.702 522.506 401.398 522.805 402.89C523.204 405.078 524.802 404.979 527.597 404.581C531.49 403.885 552.552 394.534 553.45 371.656C554.948 342.411 526.998 310.481 477.586 310.779ZM111.04 433.925C95.2686 451.034 73.3078 457.5 63.8248 452.029C53.6429 446.16 57.6358 420.894 77.0012 402.791C88.7802 391.749 103.953 381.504 114.035 375.237C116.331 373.844 119.725 371.855 123.818 369.368C124.516 368.97 124.916 368.771 124.916 368.771C125.714 368.274 126.513 367.777 127.311 367.279C134.399 393.142 127.611 415.921 111.04 433.925ZM225.835 356.138C220.345 369.468 208.866 403.586 201.878 401.696C195.889 400.105 192.196 374.242 200.68 348.678C204.973 335.846 214.056 320.528 219.347 314.559C227.932 305.01 237.415 301.827 239.711 305.706C242.606 310.779 229.229 347.783 225.835 356.138ZM320.566 401.298C318.27 402.492 316.074 403.288 315.076 402.691C314.377 402.293 316.074 400.702 316.074 400.702C316.074 400.702 327.953 387.969 332.645 382.2C335.34 378.818 338.534 374.839 341.928 370.363C341.928 370.761 341.928 371.258 341.928 371.656C341.928 386.875 327.155 397.121 320.566 401.298ZM393.636 384.687C391.939 383.493 392.238 379.514 397.928 367.08C400.124 362.206 405.315 354.049 414.199 346.191C415.197 349.374 415.896 352.458 415.796 355.343C415.696 374.541 401.921 381.703 393.636 384.687Z" fill="#CD6799"/>
</svg>
