<?xml version='1.0' encoding='utf-8'?>
<svg xmlns="http://www.w3.org/2000/svg" version="1.1" width="1024px" height="768px" viewBox="27 680 1024 768"> <g id="layer1"> <g style="fill:rgb(64,190,174); fill-opacity:1.0; stroke-linejoin: miter"> <path d="M26.999,679.499C26.866392,679.499,26.739216,679.5517,26.645447,679.64545C26.551678,679.7392,26.499,679.8664,26.499,679.999L26.5,1448.0C26.5,1448.2761,26.723858,1448.5,27.0,1448.5L1051.001,1448.501C1051.1335,1448.501,1051.2607,1448.4482,1051.3545,1448.3545C1051.4482,1448.2607,1051.501,1448.1335,1051.501,1448.001L1051.5,680.0C1051.5,679.7239,1051.2761,679.5,1051.0,679.5L26.999,679.499 Z"/> </g> <g style="fill:rgb(74,108,37); fill-opacity:1.0; stroke-linejoin: miter"> <path d="M546.8485,905.6896C546.8485,905.6896,542.4962,885.8721,548.5744,877.6829C550.1375,875.57904,553.5258,905.32196,546.8485,905.6896 Z"/> </g> <g style="fill:rgb(74,108,37); fill-opacity:1.0; stroke-linejoin: miter"> <path d="M546.8485,905.6896C546.8485,905.6896,561.43787,902.26373,565.7006,893.09753C567.26855,889.7247,543.1952,900.08966,546.8485,905.6896 Z"/> </g> <g style="fill:rgb(253,217,8); fill-opacity:1.0; stroke-linejoin: miter"> <path d="M558.491,868.4491C556.17676,867.3101,552.8197,865.79364,552.5261,865.75726C552.2646,865.7265,551.9705,866.04895,552.1623,866.14777C552.29004,866.21405,551.9694,866.81165,551.7192,866.95996C551.55695,867.0496,551.53345,867.11804,551.58105,867.3165C551.6383,867.51935,551.5239,867.8073,551.05096,868.78864C550.72925,869.4554,550.43713,869.99805,550.4095,869.9843C550.3824,869.96967,550.3809,869.7265,550.4077,869.4508C550.4993,868.4689,549.77625,866.9146,548.8722,866.1348C548.3727,865.6914,547.2922,865.0519,546.7296,864.865C544.78546,864.19525,542.13605,865.04626,540.33673,866.91486C538.41156,868.91534,537.2637,872.2315,537.3605,875.55566C537.42847,877.99664,538.61426,882.0337,540.0176,884.5988C540.493,885.4694,540.8171,885.96075,542.3308,888.20087C542.547,888.52094,542.8015,889.05743,542.8933,889.3948C543.0817,890.0817,543.0215,890.444,542.82306,889.8437C542.49133,888.897,541.0891,888.58856,540.2525,889.2894C539.1227,890.24365,539.5948,892.01514,541.12286,892.5274C541.9781,892.8196,542.606,892.61206,543.12604,891.8746C543.37915,891.51953,543.44867,891.4743,543.42773,891.6492C543.42145,891.7729,543.3581,892.7234,543.28864,893.77454C543.21045,895.1339,543.1187,895.80347,542.9767,896.1004C542.8677,896.3335,542.7768,896.5983,542.7662,896.7083C542.76,896.8095,542.5955,897.1056,542.3896,897.3696C541.7347,898.2112,541.6485,898.4671,541.8393,898.97064C541.9415,899.2205,542.1524,899.5958,542.3056,899.8137C542.4589,900.0315,542.7334,900.4625,542.9035,900.7823C543.39703,901.6622,543.2863,902.39087,542.6815,902.24066C542.2785,902.14795,541.7704,902.34766,541.60034,902.6761C541.34564,903.1688,541.43713,903.8643,542.02673,905.78864C542.6779,907.9068,542.68427,908.1182,542.12427,909.42505L541.7683,910.24725L541.2381,910.0423C540.04456,909.599,539.20294,909.6607,538.3722,910.2606C537.9126,910.59,537.77423,910.63403,537.4994,910.56134C535.80133,910.06464,535.05566,910.1423,534.3475,910.863C533.90454,911.3167,533.8954,911.312,532.9561,911.1153C532.11774,910.92474,531.40076,910.9468,530.9607,911.1708C530.4749,911.4171,529.3771,912.735,528.56445,914.03784C528.17444,914.6577,527.526,915.7103,527.12177,916.35736C526.11176,917.9751,525.94037,918.08307,524.66473,917.9322C523.00415,917.7212,522.13745,917.9211,521.1939,918.717C519.88715,919.8344,520.0472,920.9117,521.79706,922.6726C523.2704,924.16327,525.2305,925.65155,528.4791,927.71295C530.17865,928.7884,531.24994,929.4004,534.17065,930.91077C537.79865,932.7982,539.45197,933.53754,542.6022,934.71515C545.86206,935.92725,548.76306,936.51385,549.9209,936.1984C550.68634,935.9932,551.11743,935.38324,551.2053,934.3412C551.3188,933.09283,550.9358,932.2005,549.7809,930.967C549.21454,930.36176,549.10895,930.02924,549.2556,929.3881C549.2988,929.2374,549.7503,928.1405,550.26746,926.96155C551.31085,924.5637,551.54504,923.9096,551.72406,922.9147C551.9279,921.7822,551.7902,921.4447,550.65216,920.3128L550.0082,919.6789L550.1175,919.0649C550.1864,918.7303,550.19684,918.30743,550.14404,918.14154C550.02545,917.7217,549.5237,917.1266,548.8465,916.5796L548.29596,916.1447L548.30176,915.3956C548.301,914.43524,547.9332,913.782,547.0008,913.0805L546.3731,912.6168L546.82855,911.89246C547.5709,910.6803,547.84937,910.49994,550.0514,909.7764C552.2115,909.06616,552.73047,908.75604,552.7526,908.1316C552.76434,907.9525,552.64886,907.66113,552.47754,907.4337C552.2427,907.127,552.212,907.0074,552.3021,906.81116C552.50055,906.4276,552.9616,906.29596,554.3455,906.23694C556.00995,906.1718,556.0982,906.1133,556.5141,904.92914C556.7344,904.2795,556.85236,904.05145,556.98157,904.00256C557.07416,903.95776,557.1821,903.7939,557.235,903.6245C557.32166,903.32263,557.5872,903.0779,559.236,901.7909C559.5755,901.5151,560.0355,901.1394,560.2494,900.9496C560.46344,900.75946,560.677,900.5923,560.72296,900.59296C560.77386,900.58435,560.7339,900.7954,560.643,901.0606C560.3662,901.8199,560.58307,902.4294,561.2884,902.9443C562.5533,903.8762,564.3267,903.2429,564.42834,901.8383C564.4743,901.168,564.0389,900.39935,563.42755,900.0828C563.20844,899.96954,563.08453,899.96344,562.4128,900.00964L562.1417,900.01904L562.48395,899.84973C563.05334,899.5539,563.6242,899.4792,565.55,899.4457C568.61584,899.4,570.12225,899.14905,572.7532,898.28906C575.97064,897.23425,577.6791,896.2792,579.35187,894.6106C580.442,893.5086,581.02747,892.71216,581.74036,891.3343C582.3022,890.2253,582.412,889.92346,582.5702,889.103C582.9901,886.94916,582.6138,884.9031,581.55255,883.51025C580.6093,882.2703,579.08923,881.51904,577.3945,881.44073C576.4208,881.3997,575.63214,881.6051,574.9134,882.0779L574.3801,882.4381L575.07184,881.2345C575.59015,880.3225,575.8008,880.02655,575.92944,880.0242C576.15,880.0221,576.24915,879.83057,576.1511,879.59503C576.0665,879.4005,576.2497,879.1137,576.64465,878.81995C577.09467,878.48627,576.8036,878.26654,573.0734,876.1519C570.7111,874.81445,561.07025,869.7251,558.491,868.4491 Z M547.4233,867.5719C547.6775,867.7963,548.0075,868.1867,548.1608,868.42755C548.48,868.9284,548.82245,870.1236,548.8678,870.8409C548.89514,871.52606,548.6116,872.7904,548.281,873.42914L548.0026,873.9677L547.8295,873.51953C547.6296,873.0112,547.1398,872.52686,546.7049,872.40607C545.92194,872.19763,545.0547,872.75604,544.832,873.5893C544.60394,874.47784,544.8844,875.1434,545.6693,875.54913C546.4361,875.9453,547.02527,875.8795,547.63947,875.3184C547.8954,875.09216,548.12384,874.85187,548.1615,874.77893C548.1993,874.7057,548.2687,874.6611,548.31415,874.6847C548.35077,874.7037,548.2024,875.1471,547.9793,875.66785C547.5853,876.58624,547.00385,878.1132,546.5255,879.4854C544.8987,884.2194,544.3103,886.25183,543.80963,888.92C543.79474,889.0162,543.6297,888.6415,543.4535,888.0876C543.2504,887.4739,542.77295,886.42834,542.2034,885.4051C541.0551,883.3306,540.64484,882.40204,540.1357,880.6575C539.05914,877.03534,539.18115,873.1309,540.4509,870.67566C541.5271,868.5947,544.5002,866.581,546.0911,866.8599C546.6412,866.95953,546.883,867.0959,547.4233,867.5719 Z M579.4412,884.34973C579.9477,884.95886,580.2232,886.30444,580.1611,887.834C580.02325,890.8741,578.3553,893.2045,574.74084,895.40704C572.3126,896.88135,569.7983,897.62836,565.85876,898.04333C565.1499,898.11676,564.1595,898.30963,563.6516,898.4638C563.1353,898.61255,562.7432,898.6993,562.7763,898.63556C562.8048,898.5805,563.01935,898.34454,563.2612,898.12274C564.69977,896.75024,568.7378,891.46967,570.9575,888.07166C571.1407,887.7848,571.4079,887.4024,571.5393,887.2156L571.7829,886.8787L571.6464,887.4333C571.4166,888.4595,571.67456,889.0788,572.53265,889.5223C573.35394,889.947,574.1241,889.7553,574.6631,888.98145C575.5864,887.66595,574.4445,886.13885,572.9074,886.62787L572.46454,886.7686L572.9204,886.0213C573.16956,885.60645,573.558,885.1016,573.76746,884.89764C574.5357,884.17285,575.6184,883.6223,576.5626,883.47424C577.6124,883.3232,578.90295,883.7132,579.4412,884.34973 Z M547.055,873.3396C547.21014,873.41943,547.26917,873.82,547.16046,874.03015C547.0946,874.1577,547.11475,874.3648,547.2041,874.54987C547.3024,874.7398,547.30536,874.891,547.2214,874.9639C547.0027,875.16254,546.4745,875.1555,546.04987,874.9474C545.3196,874.593,545.19464,873.6033,545.80304,873.1659C546.0906,872.9677,546.66016,872.9848,546.87335,873.19867C546.937,873.2548,547.00934,873.316,547.055,873.3396 Z M574.33826,887.86523C574.4388,888.25256,574.2964,888.5724,573.91113,888.8472C573.5492,889.0998,573.2827,889.1004,572.7716,888.8363C572.44324,888.6664,572.3256,888.53613,572.2011,888.21747L572.04584,887.8016L572.4417,887.7521C572.6814,887.71387,572.8712,887.6152,572.93713,887.48755C573.2487,886.88513,574.15533,887.1228,574.33826,887.86523 Z M542.3474,890.33826C542.4782,890.8457,542.32245,891.1696,541.8701,891.3058C541.43616,891.45197,541.03,891.25287,540.9299,890.84247C540.8333,890.49225,541.2278,889.5505,541.4946,889.5269C541.7801,889.4893,542.2337,889.90936,542.3474,890.33826 Z M563.5041,900.87427C563.57635,900.9581,563.5189,901.13666,563.28827,901.53784C563.0431,901.9895,562.92206,902.1119,562.6916,902.1548C561.8759,902.3231,561.47595,901.3064,562.16754,900.81946C562.58514,900.52655,563.2097,900.5491,563.5041,900.87427 Z"/> </g> <g style="fill:rgb(255,183,13); fill-opacity:1.0; stroke-linejoin: miter"> <path d="M542.05676,909.5805L541.7683,910.24725L541.2381,910.0423C540.04456,909.599,539.20294,909.6607,538.3722,910.2606C537.9126,910.59,537.77423,910.63403,537.4994,910.56134C536.1701,910.17285,535.42456,910.13574,534.8237,910.4837Q542.49963,914.453,550.17554,918.423C550.17487,918.30524,550.164,918.2048,550.14404,918.14154C550.02545,917.7217,549.5237,917.1266,548.8465,916.5796L548.29596,916.1447L548.30176,915.3956C548.301,914.43524,547.9332,913.782,547.0008,913.0805L546.3731,912.6168L546.7545,912.00995L542.05676,909.5805 Z"/> </g> <g style="fill:rgb(255,183,13); fill-opacity:1.0; stroke-linejoin: miter"> <path d="M542.8666,900.7125L542.86646,900.71246C542.87897,900.7357,542.8916,900.7592,542.9035,900.7823C543.39703,901.6622,543.2863,902.39087,542.6815,902.24066C542.2785,902.14795,541.7704,902.34766,541.60034,902.6761C541.34564,903.1688,541.43713,903.8643,542.02673,905.78864C542.131,906.1284,542.21924,906.41895,542.2907,906.67316Q545.64087,908.4057,548.9914,910.1387C549.2876,910.0306,549.6351,909.9135,550.0514,909.7764C552.2115,909.06616,552.73047,908.75604,552.7526,908.1316C552.76434,907.9525,552.64886,907.66113,552.47754,907.4337C552.2427,907.127,552.212,907.0074,552.3021,906.81116C552.4614,906.50256,552.79126,906.3572,553.6346,906.28143L549.6724,904.2321L542.868,900.71326 Z"/> </g> <g style="fill:rgb(255,255,255); fill-opacity:0.60784316; stroke-linejoin: miter"> <path d="M533.3632,914.06757L548.1072,921.6921L544.77094,928.14355L530.02686,920.51904L533.3632,914.06757"/> </g> <g style="fill:rgb(255,255,255); fill-opacity:0.60784316; stroke-linejoin: miter"> <path d="M564.2512,891.6545L563.18823,893.53284Q559.6792,899.05676,555.3866,901.2363Q551.078,903.4045,548.00946,900.98676Q545.2312,898.3883,545.5803,892.93427Q545.6989,891.17377,546.17096,889.26984L546.73206,887.3517Q547.3821,885.4082,548.3897,883.452Q551.5778,877.4961,555.87555,874.6697Q560.1738,871.84283,563.62213,873.4345Q566.91406,875.32837,567.0913,880.4698Q567.2687,885.6112,564.2512,891.6545"/> </g> <g style="fill:rgb(255,183,13); fill-opacity:1.0; stroke-linejoin: miter"> <path d="M559.29407,889.41956L558.22003,895.3511L555.3279,890.06244L549.3548,890.8744L553.4912,886.48926L550.8732,881.059L556.3219,883.638L560.6774,879.46985L559.9081,885.4492L565.2178,888.30347L559.29407,889.41956 Z M558.16144,894.82135L559.17004,889.2503L557.0813,886.95245L557.079,886.9537L557.079,886.9537L557.07855,886.9541L558.14716,894.79517L558.16144,894.8209 Z M557.0574,886.9648L549.8482,890.60315L555.4375,889.843L557.0574,886.9648 Z M551.2961,881.3926L551.2464,881.3691L553.71075,886.47986L553.69885,886.4923L557.06744,886.9474L557.0714,886.9402L551.2962,881.39264 Z M559.7706,885.51184L557.0898,886.9434L557.09076,886.9415L557.0879,886.92993L560.473,879.8843L560.4745,879.8735L556.37476,883.7962L556.30304,883.8544L557.08795,886.92993L557.082,886.9418L557.07886,886.94885L557.087,886.94965L557.0892,886.9451L564.6925,888.1979L564.74805,888.1873L559.7703,885.5117 Z M557.08746,886.9452L557.09,886.94354L557.0892,886.9451L557.08746,886.9452 Z"/> </g> <g style="fill:rgb(255,183,13); fill-opacity:1.0; stroke-linejoin: miter"> <path d="M557.0869,886.9415C557.08344,886.9397,557.0791,886.93945,557.0756,886.9414L557.0733,886.94257L557.07306,886.94305C557.06836,886.94476,557.06586,886.9502,557.06665,886.9555L558.135,894.7967L558.13605,894.80096L558.15063,894.8273C558.1519,894.8294,558.1535,894.83136,558.15576,894.8325C558.1576,894.8335,558.1596,894.83344,558.16156,894.83356C558.1662,894.83356,558.17035,894.8309,558.17236,894.82697L558.17255,894.8267L558.17365,894.8234L559.1822,889.25244L559.1791,889.2422L557.0905,886.94385C557.0894,886.9429,557.088,886.94214,557.0869,886.9415 Z"/> </g> <g style="fill:rgb(255,183,13); fill-opacity:1.0; stroke-linejoin: miter"> <path d="M557.0631,886.9537C557.05945,886.9518,557.0555,886.95166,557.0519,886.95355L549.84265,890.59216C549.83734,890.59454,549.8348,890.601,549.8365,890.6066C549.8375,890.61017,549.83997,890.6122,549.84265,890.6142C549.8448,890.6153,549.8474,890.61566,549.85004,890.61505L555.4387,889.8557L555.44794,889.84937L557.06805,886.9707C557.07086,886.96594,557.07007,886.9602,557.06647,886.956C557.0654,886.9549,557.0642,886.9542,557.0631,886.9537 Z"/> </g> <g style="fill:rgb(255,183,13); fill-opacity:1.0; stroke-linejoin: miter"> <path d="M551.3016,881.3814L551.3011,881.38165L551.2516,881.358C551.24713,881.35565,551.24133,881.3564,551.2376,881.3602C551.234,881.3641,551.233,881.36993,551.23535,881.3746L553.6957,886.4778L553.6899,886.48395C553.6867,886.4876,553.68567,886.49225,553.68726,886.49646C553.68835,886.49945,553.6904,886.5021,553.6931,886.50354C553.6944,886.5042,553.69556,886.5048,553.6971,886.5046L557.06586,886.95935L557.0782,886.9532L557.08234,886.9463C557.085,886.941,557.084,886.93524,557.08,886.93115L551.3047,881.3835L551.30176,881.3815 Z"/> </g> <g style="fill:rgb(255,183,13); fill-opacity:1.0; stroke-linejoin: miter"> <path d="M560.4803,879.86224C560.4755,879.85974,560.4696,879.861,560.466,879.8643L556.3667,883.78723L556.2951,883.8449L556.29095,883.85767L557.076,886.93286C557.0768,886.9362,557.0789,886.93933,557.0822,886.94104C557.08356,886.9418,557.0849,886.9419,557.0864,886.94226C557.09155,886.94257,557.09644,886.93976,557.09894,886.93524L557.09863,886.9355L557.09894,886.93524L560.48425,879.8898L560.4853,879.88586L560.4867,879.87506C560.4874,879.8697,560.48474,879.86456,560.4803,879.86224 Z"/> </g> <g style="fill:rgb(255,183,13); fill-opacity:1.0; stroke-linejoin: miter"> <path d="M559.7759,885.5007C559.7725,885.49884,559.7683,885.499,559.76495,885.5008C559.76355,885.5014,559.7625,885.50226,559.7612,885.5036L559.7606,885.50336L557.09875,886.9246C557.09766,886.9226,557.0954,886.9205,557.09326,886.91943C557.0918,886.91864,557.09015,886.91815,557.08887,886.91815C557.08386,886.9173,557.0789,886.92004,557.07666,886.9246L557.07086,886.9366L557.07074,886.93695L557.06775,886.9435C557.066,886.9469,557.0662,886.9515,557.0682,886.9544C557.0693,886.95685,557.0714,886.95856,557.07355,886.95966C557.07465,886.9602,557.07587,886.9609,557.0772,886.961L557.08563,886.96185C557.08923,886.96234,557.09296,886.96094,557.09564,886.95856L557.0948,886.95856L564.6903,888.21027L564.6947,888.21014L564.75055,888.1996C564.7555,888.1987,564.75934,888.1946,564.7603,888.18933C564.7611,888.18396,564.75854,888.1787,564.7541,888.17633L559.77637,885.5009C559.77625,885.5008,559.776,885.5007,559.7759,885.5007 Z"/> </g> <g style="fill:rgb(61,83,96); fill-opacity:0.99607843; stroke-linejoin: miter"> <path d="M522.7112,908.6482L522.7112,908.6482L522.71124,908.64825L522.7107,908.64935"/> </g> <g style="fill:rgb(61,83,96); fill-opacity:0.99607843; stroke-linejoin: miter"> <path d="M550.2914,922.1095L550.2914,922.1095L550.2914,922.1095L550.2914,922.1095"/> </g> <g style="fill:rgb(255,183,13); fill-opacity:0.99607843; stroke-linejoin: miter"> <path d="M521.3691,917.54553L536.79736,925.52454L552.22577,933.50336Q550.82904,936.20435,549.4325,938.90497Q534.004,930.9263,518.57544,922.9476Q519.9721,920.2471,521.3691,917.54553"/> </g> <g style="fill:rgb(255,255,255); fill-opacity:0.99607843; stroke-linejoin: miter"> <path d="M465.47086,837.5003L465.47086,837.5004L465.47086,837.5007L465.47086,837.5003"/> </g> <g style="fill:rgb(249,169,136); fill-opacity:1.0; stroke-linejoin: miter"> <path d="M501.23938,1056.6942L501.29492,1056.8981Q501.63873,1058.2472,501.40186,1059.3756L501.2248,1060.2552L500.4699,1063.1417Q500.16174,1064.6053,500.12787,1065.0448Q499.9502,1066.2577,500.2713,1067.7906Q500.60718,1069.1976,501.80872,1070.6493Q503.0797,1072.205,505.2243,1073.7227Q509.36224,1075.6748,509.80902,1075.803Q510.4295,1076.0222,510.76764,1076.0281Q511.09045,1076.0918,511.40808,1075.7246L511.43652,1075.3496L511.3366,1074.9443L511.10852,1074.5095Q510.81635,1074.0593,510.26782,1073.5496Q509.1706,1072.5293,507.0478,1071.2692Q508.6593,1070.5195,508.9626,1069.5742Q509.2287,1068.888,508.93988,1066.866Q508.59155,1066.6438,508.20844,1066.1495Q508.02325,1065.8688,508.01,1065.5975Q508.0448,1065.1908,508.1266,1065.048Q509.23883,1063.388,509.21515,1063.2422Q509.43488,1062.6406,509.33234,1062.1978Q509.0379,1061.0151,507.06128,1059.7864Q505.78528,1058.9297,501.23938,1056.6942"/> </g> <g style="fill:rgb(249,169,136); fill-opacity:1.0; stroke-linejoin: miter"> <path d="M557.6822,925.7732L555.1276,921.4352Q556.04395,918.83105,556.2665,917.11536Q556.531,915.47363,556.5884,911.3628L552.78467,905.26965Q550.4249,903.42725,549.56934,902.80383Q546.36926,900.38904,546.51294,901.40515Q546.8778,902.77454,551.44775,909.069Q551.0736,908.25916,547.5418,907.2931Q542.80756,906.0137,540.91815,906.11084Q539.83795,906.13525,539.7552,906.844Q539.6789,906.93896,540.06537,907.5619Q540.4676,908.0814,541.2204,908.5294Q542.61554,909.44507,547.2232,910.13916Q541.3162,907.56323,539.9743,907.68945Q538.2147,907.7269,539.1626,909.7053Q539.7941,910.81177,541.42017,912.004Q543.2833,913.3816,547.3569,915.59753L547.6742,923.00977L551.0764,928.78723L557.6822,925.7732"/> </g> <g style="fill:rgb(0,0,0); fill-opacity:1.0; stroke-linejoin: miter"> <path d="M526.08325,946.84845L526.14014,946.0358Q526.551,940.6254,526.3916,938.2796Q526.28125,936.09454,525.18835,934.4749Q526.9398,935.8652,527.5482,936.23834Q528.0907,936.5776,527.93994,936.2232Q523.4308,929.67426,519.03955,928.535Q516.7272,927.7885,512.8506,927.9665Q509.44742,928.1873,507.6467,929.39813Q506.5049,930.26935,506.22073,931.26544Q505.64517,932.88116,506.36203,935.11285Q505.29672,935.52716,504.83115,936.71234Q504.42715,937.7071,504.2986,939.89667Q504.1429,942.4266,504.23196,947.8504L526.08325,946.84845"/> </g> <g style="fill:rgb(255,255,255); fill-opacity:0.96862745; stroke-linejoin: miter"> <path d="M560.8923,928.8716L560.5558,928.0707L560.2191,927.2699L558.48224,924.17786Q554.1895,926.2174,549.89655,928.2567L551.77466,931.5935L560.8923,928.8716"/> </g> <g style="fill:rgb(255,255,255); fill-opacity:1.0; stroke-linejoin: miter"> <path d="M545.68744,1040.8282L549.8195,1011.15424L524.8312,957.28314L510.4927,965.9051L509.07675,972.57697L506.30508,980.5711L505.37445,1039.8344L545.68744,1040.8282"/> </g> <g style="fill:rgb(0,0,0); fill-opacity:0.96862745; stroke-linejoin: miter"> <path d="M542.7868,1172.1166L542.3975,1177.4908Q542.5655,1180.1315,542.34894,1181.3905Q542.42303,1182.3231,542.53595,1182.4635Q543.2735,1183.8693,545.017,1183.9791Q558.23236,1183.8589,558.8852,1179.8254Q559.05414,1179.2346,558.3317,1177.4988Q556.5416,1174.8367,554.4367,1170.1128L556.53723,1166.3596L557.25964,1156.2206L556.98035,1148.2738L555.0258,1124.2993L553.4406,1116.435Q552.50806,1104.0587,551.5156,1094.0569L552.2402,1087.8073L554.18134,1061.2042L553.9979,1038.6655L548.92615,1033.6514Q525.8528,1033.7228,504.3615,1037.7987L508.1206,1066.2379L513.7772,1096.6389L518.3007,1111.118L521.8179,1144.4011L524.08374,1156.8059L525.6107,1172.0653L523.6489,1175.6154L519.63776,1177.8357Q517.23236,1178.6467,512.7843,1178.9095Q511.95404,1179.4777,512.2602,1180.2267Q513.0126,1181.7617,515.382,1182.1128Q517.35706,1182.5857,524.755,1182.5162Q534.6952,1182.1423,537.19763,1181.686Q540.1406,1181.2778,541.0913,1179.9214L539.6414,1170.8512L540.01276,1161.639L538.6704,1156.0656L539.1775,1141.6456L537.20026,1123.9932L534.75525,1108.7396L537.39856,1115.9193Q537.0693,1124.7498,537.77203,1131.0898Q538.32,1137.0864,541.15076,1152.9293L542.7868,1172.1166"/> </g> <g style="fill:rgb(0,0,0); fill-opacity:0.96862745; stroke-linejoin: miter"> <path d="M552.5474,1049.2765L574.177,1031.0195Q573.04987,1027.079,554.2648,987.16864L554.3424,975.1523L562.44,971.45844L569.68286,966.3654L575.31,960.24005L573.24915,953.515L560.9225,927.24207L551.2213,931.48596L559.9016,955.75775L555.2187,957.00934Q546.15704,953.4262,543.9624,953.7153Q542.8103,953.77924,541.75134,954.2928Q539.9131,955.71063,530.05786,960.19305L525.2876,957.9108L524.5377,965.96954L525.0065,971.54767L529.4176,990.6055L552.5474,1049.2765"/> </g> <g style="fill:rgb(0,0,0); fill-opacity:0.96862745; stroke-linejoin: miter"> <path d="M509.66617,972.6048L509.77493,969.82587L507.87997,976.9189L502.86255,982.7691L499.02124,988.0091L498.89612,994.1955L500.02368,1010.4411L497.06427,1064.9225L508.4563,1065.6888L507.52606,1016.29816Q508.04297,1009.98444,507.96094,1006.9305Q507.9397,1003.8582,507.21625,997.91986L509.66617,972.6048"/> </g> <g style="fill:rgb(249,169,136); fill-opacity:1.0; stroke-linejoin: miter"> <path d="M516.7489,967.8243L511.20993,965.9355L508.25095,959.4924Q506.89865,958.6768,506.42874,957.6562Q505.92203,956.74457,505.32095,953.69635Q504.68875,954.7032,503.98093,952.98724Q502.20657,947.6379,502.46652,945.2756Q502.64896,944.1409,504.87204,946.1641Q505.19754,941.52167,506.0944,939.4168Q506.43643,938.56366,506.94583,937.82135L507.50766,937.1141Q508.1165,936.43756,508.95535,935.91364Q511.26352,934.5595,514.5233,934.3315Q517.6703,934.1258,520.2124,934.91364Q521.2146,935.22784,522.01697,935.70026L522.782,936.23285Q523.4828,936.8083,523.9702,937.5263Q525.6763,940.0395,525.7954,945.7011Q527.9342,944.02997,527.625,946.3449Q527.2738,949.0213,526.0054,952.63934Q525.3386,954.4355,524.9889,953.2233L524.6019,958.71027L516.7489,967.8243"/> </g> <g style="fill:rgb(255,25,0); fill-opacity:0.06666667; stroke-linejoin: miter"> <path d="M524.69617,955.7994L524.36926,956.4261Q522.6094,959.9229,520.92993,961.4084Q519.3063,962.83246,517.1769,963.2452Q514.2245,963.78156,512.12805,962.9401Q511.35306,962.70087,510.13095,961.633Q509.1575,960.6529,508.36667,959.5141L511.79868,967.6264L514.5648,966.5701L524.40845,959.0981L524.69617,955.7994"/> </g> <g style="fill:rgb(255,75,0); fill-opacity:1.0; stroke-linejoin: miter"> <path d="M515.86206,968.51935L519.194,970.1214L518.4142,973.92755L520.2466,976.3941L527.845,1025.7363L523.12427,1032.0536L517.3517,1026.6381L512.83484,978.31354L514.3197,973.89996L513.4452,971.06415L515.86206,968.51935"/> </g> <g style="fill:rgb(255,255,255); fill-opacity:0.99607843; stroke-linejoin: miter"> <path d="M433.4852,1160.3534L433.48532,1160.3539Q433.48532,1160.3544,433.4852,1160.3534 Z"/> </g> <g style="fill:rgb(83,93,102); fill-opacity:0.99607843; stroke-linejoin: miter"> <path d="M540.88934,1155.312L529.1135,1157.2762L523.442,1158.2223Q523.442,1158.2227,523.44214,1158.2231L523.4392,1158.2241L460.56546,1168.7098L470.46042,1293.3657L421.68985,1373.1909L370.2525,1404.3213L344.0761,1449.448L720.1987,1449.448L691.4946,1412.3721L685.23975,1359.1885L632.2724,1309.52L635.1828,1211.8151L540.88934,1155.312 Z"/> </g> <g style="fill:rgb(125,139,150); fill-opacity:0.99607843; stroke-linejoin: miter"> <path d="M539.96686,1154.9377L530.3324,1291.8608L493.4612,1449.4482L762.6411,1449.4485L691.86816,1352.2014L634.4787,1306.6467L634.48737,1201.4127L539.96686,1154.9377 Z"/> </g> <g style="fill:rgb(125,139,150); fill-opacity:0.99607843; stroke-linejoin: miter"> <path d="M380.28546,821.0248L380.28546,821.0249L380.28546,821.025L380.28546,821.0249L380.28546,821.0248L380.28546,821.0249L380.28546,821.025Q380.28546,821.0249,380.28546,821.0248"/> </g> <g style="fill:rgb(0,0,0); fill-opacity:0.99607843; stroke-linejoin: miter"> <path d="M693.85,1451.8325L693.85,1451.8333L693.85,1451.8325L693.85,1451.8325"/> </g> <g style="fill:rgb(255,255,255); fill-opacity:0.7058824; stroke-linejoin: miter"> <path d="M325.86334,974.5885C326.65912,971.68164,327.0464,968.6821,327.01538,965.64136C326.83112,947.6604,312.0531,933.1813,294.07233,933.365C286.59235,933.4418,279.3117,936.114,273.5716,940.8899C268.4665,945.13684,264.76257,950.87646,262.9917,957.22314C250.94727,956.2219,240.14679,963.96814,236.86108,975.1461C235.03522,974.75024,233.17188,974.55994,231.29504,974.5792C217.45618,974.7207,206.31197,986.0133,206.45345,999.85205C206.59505,1013.6909,217.96826,1024.7532,231.80713,1024.6118L319.42517,1023.71606C333.26404,1023.5736,344.40808,1012.2815,344.26642,998.4425C344.151,987.12085,336.55884,977.5231,325.86334,974.5885 Z"/> </g> <g style="fill:rgb(255,255,255); fill-opacity:0.70980394; stroke-linejoin: miter"> <path d="M805.88477,952.9313C806.3833,951.10925,806.6261,949.22974,806.60657,947.3237C806.49133,936.0541,797.2289,926.979,785.959,927.09424C781.271,927.14233,776.70764,928.8174,773.10986,931.81067C769.91016,934.4724,767.5884,938.0697,766.47876,942.0475C758.92957,941.42017,752.16016,946.2748,750.1007,953.28076C748.9563,953.03284,747.78845,952.9137,746.6123,952.9258C737.93823,953.0145,730.953,960.09216,731.042,968.7655C731.131,977.4387,738.2593,984.3722,746.93286,984.28345L801.8495,983.7219C810.5232,983.63293,817.50793,976.5554,817.4192,967.88184C817.3468,960.78613,812.58826,954.7709,805.88477,952.9313 Z"/> </g> </g> </svg>